<svg width="1280" height="348" viewBox="0 0 1280 348" fill="none" xmlns="http://www.w3.org/2000/svg">
<path d="M282.448 216.779C287.242 156.204 285.756 142.435 270.102 139.522C261.492 137.92 255.257 132.262 256.201 127.19C258.628 114.149 234.765 85.7214 203.293 63.3735C186.909 51.3294 161.107 42.0301 125.751 36.2002C0.385604 13.62 -82.1086 73.9773 -106.917 207.286C-118.512 269.593 -114.7 310.031 -95.9118 335.266C-88.0026 344.983 -86.4635 349.767 -92.1857 345.704C-108.57 333.66 -95.3427 349.614 -77.7979 364.123C-32.0464 401.122 -1.33065 418.831 30.7596 424.803C57.2363 430.48 61.6628 432.803 48.9786 435.69C39.6949 437.71 36.0248 440.025 41.5037 441.045C60.0186 445.99 158.279 414.052 191.444 392.489C240.207 361.086 275.74 291.989 282.448 216.779ZM232.79 222.53C221.05 220.345 220.537 218.75 231.79 214.848C242.261 210.799 240.183 208.914 223.746 205.855C211.223 203.524 202.505 198.154 203.314 193.807C204.123 189.46 211.572 188.597 219.777 192.373C227.982 196.149 233.596 196.444 231.922 192.384C230.113 189.049 234.835 185.431 241.636 183.698C250.785 182.402 253.107 187.332 250.141 203.271C247.175 219.21 242.182 224.278 232.79 222.53ZM201.227 305.108C201.01 297.572 196.61 290.756 192.696 290.028C188 289.154 185.895 291.761 187.704 295.096C189.378 299.155 185.708 301.47 179.446 300.305C173.185 299.14 169.676 296.238 172.294 295.226C175.046 293.49 171.429 286.82 164.545 280.292C154.288 270.137 155.206 269.558 172.938 274.357C199.793 282.353 209.402 291.638 205.923 305.982C203.118 316.704 202.335 316.558 201.227 305.108ZM215.827 130.921C212.479 122.802 209.078 123.668 203.656 135.402C197.18 148.439 194.698 148.727 186.006 138.864C179.905 132.481 176.044 122.768 176.988 117.696C179.28 105.38 162.439 104.494 148.137 116.075C141.445 121.576 136.614 121.427 134.292 116.497C131.97 111.567 138.689 101.574 148.916 94.482C164.784 83.1925 167.267 82.905 165.379 93.0481C164.166 99.5686 167.405 103.919 171.723 102.474C176.958 100.45 178.82 94.7997 177.281 90.0157C175.094 84.3615 176.011 83.7827 179.385 87.409C182.625 91.7598 184.542 98.8629 183.733 103.21C182.789 108.281 189.024 113.939 197.634 115.542C223.058 122.522 224.489 123.538 222.736 132.956C221.523 139.477 219.957 139.185 215.827 130.921ZM178.236 328.565C173.136 329.864 172.892 326.821 176.319 321.462C184.225 309.44 190.108 308.286 188.221 318.429C187.412 322.776 183.337 327.265 178.236 328.565ZM157.755 347.241C154.381 343.615 152.464 336.512 153.542 330.716C155.16 322.022 156.726 322.313 164.77 331.306C174.622 343.634 169.065 356.092 157.755 347.241ZM158.702 363.908C156.759 361.298 143.94 364.909 130.312 372.867C101.221 389.942 85.189 384.709 80.5157 357.604C76.0857 333.542 92.2491 316.311 114.947 320.535C128.253 323.011 164.882 356.813 163.399 364.782C162.859 367.68 160.511 367.243 158.702 363.908ZM157.829 133.62C153.915 132.892 150.272 130.715 150.541 129.266C150.946 127.092 155.533 124.198 159.851 122.753C164.952 121.453 167.813 123.485 167.139 127.107C166.33 131.454 162.525 134.494 157.829 133.62ZM144.478 183.607C139.16 177.371 129.389 173.304 122.723 174.312C110.174 176.474 161.179 199.353 174.672 192.119C178.343 189.803 130.303 150.986 127.146 154.896C123.072 159.385 127.607 165.476 138.808 170.559C149.226 175.496 156.892 182.17 156.083 186.517C155.004 192.313 151.226 190.86 144.478 183.607ZM133.01 201.712C126.749 200.547 124.157 197.067 127.18 193.881C130.202 190.695 118.255 202.239 121.764 205.141C130.726 213.555 146.316 204.189 133.01 201.712ZM143.76 83.028C140.251 80.1263 134.611 84.3239 130.645 92.5809C124.304 104.894 121.822 105.181 112.347 95.1726C102.872 85.1639 104.06 83.136 117.418 76.6268C136.794 68.2391 153.5 69.8488 151.478 80.7164C150.804 84.3389 147.269 85.9298 143.76 83.028ZM47.7022 385.979C43.3843 387.424 40.7928 383.943 41.8714 378.147C42.95 372.351 46.6201 370.036 50.1291 372.938C52.8554 375.694 55.4468 379.174 55.1772 380.623C54.9075 382.072 51.2374 384.388 47.7022 385.979ZM53.7871 127.002C28.741 122.341 22.8839 119.002 27.4978 111.615C31.7072 106.402 34.7556 98.7235 35.4298 95.101C36.1039 91.4785 44.4701 90.037 54.5102 92.655C70.9467 95.7137 70.8119 96.4383 54.8622 99.4669C43.0956 101.775 41.1257 103.657 49.6005 105.984C55.5923 108.598 64.2019 110.2 67.4675 110.058C71.5158 110.062 70.8417 113.684 66.9019 117.449C61.7751 123.241 64.771 124.548 76.9158 124.56C86.8474 123.409 92.9741 125.299 89.9519 128.485C87.8472 131.091 71.0062 130.206 53.7871 127.002ZM58.3414 85.1224C55.9933 84.6855 52.6192 81.0592 51.0801 76.2752C49.4061 72.2157 51.6456 68.8845 55.5591 69.6128C60.2552 70.4867 63.4946 74.8375 62.8204 78.46C62.0115 82.807 59.9068 85.4137 58.3414 85.1224ZM-13.2688 361.14C-19.2344 354.033 -26.9002 347.359 -31.4616 345.761C-47.3587 339.804 -62.2596 319.79 -67.2289 298.626C-72.9283 268.332 -69.4754 258.48 -59.2706 277.62C-54.3574 286.03 -49.5527 290.672 -49.0134 287.774C-48.3392 284.151 -38.1905 290.538 -27.2854 301.562C-15.5976 312.732 -5.96193 317.524 -5.15298 313.177C-4.34402 308.83 -0.160913 308.109 4.77861 312.027C11.0139 317.685 10.6094 319.858 3.1607 320.721C-4.28799 321.583 -4.31426 326.076 1.49024 338.4C6.26867 347.535 7.24222 359.71 3.81553 365.069C-1.71583 373.034 -4.0639 372.597 -13.2688 361.14ZM13.4094 108.993C13.222 118.703 9.55194 121.019 2.26435 116.664C-3.5927 113.325 -8.69331 114.625 -9.50227 118.972C-10.3112 123.319 -12.929 124.331 -15.5204 120.85C-18.8946 117.224 -14.5504 111.286 -6.69719 108.25C1.2908 104.489 7.98307 98.9884 9.57471 94.7871C10.2488 91.1646 15.754 87.6915 22.2851 87.4077C29.599 87.2696 29.4642 87.9941 23.1764 91.3215C17.9409 93.3456 13.1922 101.457 13.4094 108.993ZM-34.186 186.34C-37.856 188.655 -38.0994 185.611 -35.4554 180.107C-26.9137 199.598 16.0232 173.222 11.6229 166.407C2.95733 152.051 -33.6834 122.718 -21.8607 133.163C-14.0601 139.112 -23.3106 180.118 -34.186 186.34ZM-46.4026 243.284C-52.0425 247.482 -62.2438 250.081 -67.7226 249.061C-73.9841 247.896 -72.6621 245.144 -62.3261 241.82C-54.6077 239.508 -46.7283 231.98 -45.7845 226.908C-44.7059 221.112 -58.8158 226.518 -54.9024 227.246C-44.7274 229.14 -31.5875 233.298 -46.4026 243.284ZM-58.3636 211.824C-65.0296 212.832 -38.0901 207.042 -34.6634 201.683C-58.376 212.224 -54.3451 194.582 -48.5966 194.152C-41.9306 193.144 -39.3391 196.624 -42.7658 201.984C-45.275 206.764 -52.6151 211.395 -58.3636 211.824ZM-50.4876 182.556C-52.4312 179.946 -52.0005 173.28 -48.7086 168.645C-45.2819 163.286 -43.3383 165.896 -44.8214 173.866C-45.5218 181.981 -48.6789 185.891 -50.4876 182.556ZM-63.4607 234.862C-67.3742 234.134 -62.6896 231.852 -61.8807 227.505C-61.2065 223.883 -64.9473 221.093 -61.4383 223.995C-57.1467 227.042 -54.69 231.247 -55.0945 233.421C-55.3642 234.87 -58.7646 235.736 -63.4607 234.862Z" fill="#5A430B"/>
<path d="M930.448 193.779C935.242 133.204 933.756 119.435 918.102 116.522C909.492 114.92 903.257 109.262 904.201 104.19C906.628 91.1491 882.765 62.7214 851.293 40.3735C834.909 28.3294 809.107 19.0301 773.751 13.2002C648.386 -9.38001 565.891 50.9773 541.083 184.286C529.488 246.593 533.3 287.031 552.088 312.266C559.997 321.983 561.537 326.767 555.814 322.704C539.43 310.66 552.657 326.614 570.202 341.123C615.954 378.122 646.669 395.831 678.76 401.803C705.236 407.48 709.663 409.803 696.979 412.69C687.695 414.71 684.025 417.025 689.504 418.045C708.019 422.99 806.279 391.052 839.444 369.489C888.207 338.086 923.74 268.989 930.448 193.779ZM880.79 199.53C869.05 197.345 868.537 195.75 879.79 191.848C890.261 187.799 888.183 185.914 871.746 182.855C859.223 180.524 850.505 175.154 851.314 170.807C852.123 166.46 859.572 165.597 867.777 169.373C875.982 173.149 881.596 173.444 879.922 169.384C878.113 166.049 882.835 162.431 889.636 160.698C898.785 159.402 901.107 164.332 898.141 180.271C895.175 196.21 890.182 201.278 880.79 199.53ZM849.227 282.108C849.01 274.572 844.61 267.756 840.696 267.028C836 266.154 833.895 268.761 835.704 272.096C837.378 276.155 833.708 278.47 827.446 277.305C821.185 276.14 817.676 273.238 820.294 272.226C823.046 270.49 819.429 263.82 812.545 257.292C802.288 247.137 803.206 246.558 820.938 251.357C847.793 259.353 857.402 268.638 853.923 282.982C851.118 293.704 850.335 293.558 849.227 282.108ZM863.827 107.921C860.479 99.8017 857.078 100.668 851.656 112.402C845.18 125.439 842.698 125.727 834.006 115.864C827.905 109.481 824.044 99.7678 824.988 94.6963C827.28 82.3797 810.439 81.4945 796.137 93.0752C789.445 98.5762 784.614 98.4268 782.292 93.4971C779.97 88.5675 786.689 78.5738 796.916 71.482C812.784 60.1925 815.267 59.905 813.379 70.0481C812.166 76.5686 815.405 80.9194 819.723 79.4741C824.958 77.4501 826.82 71.7997 825.281 67.0157C823.094 61.3615 824.011 60.7827 827.385 64.409C830.625 68.7598 832.542 75.8629 831.733 80.2099C830.789 85.2815 837.024 90.9394 845.634 92.5416C871.058 99.5217 872.489 100.538 870.736 109.956C869.523 116.477 867.957 116.185 863.827 107.921ZM826.236 305.565C821.136 306.864 820.892 303.821 824.319 298.462C832.225 286.44 838.108 285.286 836.221 295.429C835.412 299.776 831.337 304.265 826.236 305.565ZM805.755 324.241C802.381 320.615 800.464 313.512 801.542 307.716C803.16 299.022 804.726 299.313 812.77 308.306C822.622 320.634 817.065 333.092 805.755 324.241ZM806.702 340.908C804.759 338.298 791.94 341.909 778.312 349.867C749.221 366.942 733.189 361.709 728.516 334.604C724.086 310.542 740.249 293.311 762.947 297.535C776.253 300.011 812.882 333.813 811.399 341.782C810.859 344.68 808.511 344.243 806.702 340.908ZM805.829 110.62C801.915 109.892 798.272 107.715 798.541 106.266C798.946 104.092 803.533 101.198 807.851 99.7527C812.952 98.4531 815.813 100.485 815.139 104.107C814.33 108.454 810.525 111.494 805.829 110.62ZM792.478 160.607C787.16 154.371 777.389 150.304 770.723 151.312C758.174 153.474 809.179 176.353 822.672 169.119C826.343 166.803 778.303 127.986 775.146 131.896C771.072 136.385 775.607 142.476 786.808 147.559C797.226 152.496 804.892 159.17 804.083 163.517C803.004 169.313 799.226 167.86 792.478 160.607ZM781.01 178.712C774.749 177.547 772.157 174.067 775.18 170.881C778.202 167.695 766.255 179.239 769.764 182.141C778.726 190.555 794.316 181.189 781.01 178.712ZM791.76 60.028C788.251 57.1263 782.611 61.3239 778.645 69.5809C772.304 81.8937 769.822 82.1813 760.347 72.1726C750.872 62.1639 752.06 60.136 765.418 53.6268C784.794 45.2391 801.5 46.8488 799.478 57.7164C798.804 61.3389 795.269 62.9298 791.76 60.028ZM695.702 362.979C691.384 364.424 688.793 360.943 689.871 355.147C690.95 349.351 694.62 347.036 698.129 349.938C700.855 352.694 703.447 356.174 703.177 357.623C702.908 359.072 699.237 361.388 695.702 362.979ZM701.787 104.002C676.741 99.3408 670.884 96.0021 675.498 88.6152C679.707 83.4017 682.756 75.7235 683.43 72.101C684.104 68.4785 692.47 67.037 702.51 69.655C718.947 72.7137 718.812 73.4383 702.862 76.4669C691.096 78.7747 689.126 80.6569 697.6 82.9836C703.592 85.5979 712.202 87.2001 715.468 87.0582C719.516 87.062 718.842 90.6845 714.902 94.4489C709.775 100.241 712.771 101.548 724.916 101.56C734.847 100.409 740.974 102.299 737.952 105.485C735.847 108.091 719.006 107.206 701.787 104.002ZM706.341 62.1224C703.993 61.6855 700.619 58.0592 699.08 53.2752C697.406 49.2157 699.646 45.8845 703.559 46.6128C708.255 47.4867 711.495 51.8375 710.82 55.46C710.011 59.807 707.907 62.4137 706.341 62.1224ZM634.731 338.14C628.766 331.033 621.1 324.359 616.538 322.761C600.641 316.804 585.74 296.79 580.771 275.626C575.072 245.332 578.525 235.48 588.729 254.62C593.643 263.03 598.447 267.672 598.987 264.774C599.661 261.151 609.809 267.538 620.715 278.562C632.402 289.732 642.038 294.524 642.847 290.177C643.656 285.83 647.839 285.109 652.779 289.027C659.014 294.685 658.609 296.858 651.161 297.721C643.712 298.583 643.686 303.076 649.49 315.4C654.269 324.535 655.242 336.71 651.816 342.069C646.284 350.034 643.936 349.597 634.731 338.14ZM661.409 85.9934C661.222 95.7032 657.552 98.0186 650.264 93.6641C644.407 90.3253 639.307 91.6249 638.498 95.972C637.689 100.319 635.071 101.331 632.48 97.8504C629.105 94.2241 633.45 88.2862 641.303 85.25C649.291 81.4894 655.983 75.9884 657.575 71.7871C658.249 68.1646 663.754 64.6915 670.285 64.4077C677.599 64.2696 677.464 64.9941 671.176 68.3215C665.941 70.3456 661.192 78.457 661.409 85.9934ZM613.814 163.34C610.144 165.655 609.901 162.611 612.545 157.107C621.086 176.598 664.023 150.222 659.623 143.407C650.957 129.051 614.317 99.7175 626.139 110.163C633.94 116.112 624.689 157.118 613.814 163.34ZM601.597 220.284C595.957 224.482 585.756 227.081 580.277 226.061C574.016 224.896 575.338 222.144 585.674 218.82C593.392 216.508 601.272 208.98 602.215 203.908C603.294 198.112 589.184 203.518 593.098 204.246C603.273 206.14 616.412 210.298 601.597 220.284ZM589.636 188.824C582.97 189.832 609.91 184.042 613.337 178.683C589.624 189.224 593.655 171.582 599.403 171.152C606.069 170.144 608.661 173.624 605.234 178.984C602.725 183.764 595.385 188.395 589.636 188.824ZM597.512 159.556C595.569 156.946 596 150.28 599.291 145.645C602.718 140.286 604.662 142.896 603.179 150.866C602.478 158.981 599.321 162.891 597.512 159.556ZM584.539 211.862C580.626 211.134 585.31 208.852 586.119 204.505C586.793 200.883 583.053 198.093 586.562 200.995C590.853 204.042 593.31 208.247 592.905 210.421C592.636 211.87 589.235 212.736 584.539 211.862Z" fill="#5A430B"/>
<path d="M1250.45 216.779C1255.24 156.204 1253.76 142.435 1238.1 139.522C1229.49 137.92 1223.26 132.262 1224.2 127.19C1226.63 114.149 1202.77 85.7214 1171.29 63.3735C1154.91 51.3294 1129.11 42.0301 1093.75 36.2002C968.386 13.62 885.891 73.9773 861.083 207.286C849.488 269.593 853.3 310.031 872.088 335.266C879.997 344.983 881.537 349.767 875.814 345.704C859.43 333.66 872.657 349.614 890.202 364.123C935.954 401.122 966.669 418.831 998.76 424.803C1025.24 430.48 1029.66 432.803 1016.98 435.69C1007.69 437.71 1004.02 440.025 1009.5 441.045C1028.02 445.99 1126.28 414.052 1159.44 392.489C1208.21 361.086 1243.74 291.989 1250.45 216.779ZM1200.79 222.53C1189.05 220.345 1188.54 218.75 1199.79 214.848C1210.26 210.799 1208.18 208.914 1191.75 205.855C1179.22 203.524 1170.51 198.154 1171.31 193.807C1172.12 189.46 1179.57 188.597 1187.78 192.373C1195.98 196.149 1201.6 196.444 1199.92 192.384C1198.11 189.049 1202.84 185.431 1209.64 183.698C1218.79 182.402 1221.11 187.332 1218.14 203.271C1215.17 219.21 1210.18 224.278 1200.79 222.53ZM1169.23 305.108C1169.01 297.572 1164.61 290.756 1160.7 290.028C1156 289.154 1153.9 291.761 1155.7 295.096C1157.38 299.155 1153.71 301.47 1147.45 300.305C1141.18 299.14 1137.68 296.238 1140.29 295.226C1143.05 293.49 1139.43 286.82 1132.55 280.292C1122.29 270.137 1123.21 269.558 1140.94 274.357C1167.79 282.353 1177.4 291.638 1173.92 305.982C1171.12 316.704 1170.34 316.558 1169.23 305.108ZM1183.83 130.921C1180.48 122.802 1177.08 123.668 1171.66 135.402C1165.18 148.439 1162.7 148.727 1154.01 138.864C1147.91 132.481 1144.04 122.768 1144.99 117.696C1147.28 105.38 1130.44 104.494 1116.14 116.075C1109.44 121.576 1104.61 121.427 1102.29 116.497C1099.97 111.567 1106.69 101.574 1116.92 94.482C1132.78 83.1925 1135.27 82.905 1133.38 93.0481C1132.17 99.5686 1135.4 103.919 1139.72 102.474C1144.96 100.45 1146.82 94.7997 1145.28 90.0157C1143.09 84.3615 1144.01 83.7827 1147.39 87.409C1150.62 91.7598 1152.54 98.8629 1151.73 103.21C1150.79 108.281 1157.02 113.939 1165.63 115.542C1191.06 122.522 1192.49 123.538 1190.74 132.956C1189.52 139.477 1187.96 139.185 1183.83 130.921ZM1146.24 328.565C1141.14 329.864 1140.89 326.821 1144.32 321.462C1152.22 309.44 1158.11 308.286 1156.22 318.429C1155.41 322.776 1151.34 327.265 1146.24 328.565ZM1125.76 347.241C1122.38 343.615 1120.46 336.512 1121.54 330.716C1123.16 322.022 1124.73 322.313 1132.77 331.306C1142.62 343.634 1137.06 356.092 1125.76 347.241ZM1126.7 363.908C1124.76 361.298 1111.94 364.909 1098.31 372.867C1069.22 389.942 1053.19 384.709 1048.52 357.604C1044.09 333.542 1060.25 316.311 1082.95 320.535C1096.25 323.011 1132.88 356.813 1131.4 364.782C1130.86 367.68 1128.51 367.243 1126.7 363.908ZM1125.83 133.62C1121.92 132.892 1118.27 130.715 1118.54 129.266C1118.95 127.092 1123.53 124.198 1127.85 122.753C1132.95 121.453 1135.81 123.485 1135.14 127.107C1134.33 131.454 1130.52 134.494 1125.83 133.62ZM1112.48 183.607C1107.16 177.371 1097.39 173.304 1090.72 174.312C1078.17 176.474 1129.18 199.353 1142.67 192.119C1146.34 189.803 1098.3 150.986 1095.15 154.896C1091.07 159.385 1095.61 165.476 1106.81 170.559C1117.23 175.496 1124.89 182.17 1124.08 186.517C1123 192.313 1119.23 190.86 1112.48 183.607ZM1101.01 201.712C1094.75 200.547 1092.16 197.067 1095.18 193.881C1098.2 190.695 1086.26 202.239 1089.76 205.141C1098.73 213.555 1114.32 204.189 1101.01 201.712ZM1111.76 83.028C1108.25 80.1263 1102.61 84.3239 1098.64 92.5809C1092.3 104.894 1089.82 105.181 1080.35 95.1726C1070.87 85.1639 1072.06 83.136 1085.42 76.6268C1104.79 68.2391 1121.5 69.8488 1119.48 80.7164C1118.8 84.3389 1115.27 85.9298 1111.76 83.028ZM1015.7 385.979C1011.38 387.424 1008.79 383.943 1009.87 378.147C1010.95 372.351 1014.62 370.036 1018.13 372.938C1020.86 375.694 1023.45 379.174 1023.18 380.623C1022.91 382.072 1019.24 384.388 1015.7 385.979ZM1021.79 127.002C996.741 122.341 990.884 119.002 995.498 111.615C999.707 106.402 1002.76 98.7235 1003.43 95.101C1004.1 91.4785 1012.47 90.037 1022.51 92.655C1038.95 95.7137 1038.81 96.4383 1022.86 99.4669C1011.1 101.775 1009.13 103.657 1017.6 105.984C1023.59 108.598 1032.2 110.2 1035.47 110.058C1039.52 110.062 1038.84 113.684 1034.9 117.449C1029.78 123.241 1032.77 124.548 1044.92 124.56C1054.85 123.409 1060.97 125.299 1057.95 128.485C1055.85 131.091 1039.01 130.206 1021.79 127.002ZM1026.34 85.1224C1023.99 84.6855 1020.62 81.0592 1019.08 76.2752C1017.41 72.2157 1019.65 68.8845 1023.56 69.6128C1028.26 70.4867 1031.49 74.8375 1030.82 78.46C1030.01 82.807 1027.91 85.4137 1026.34 85.1224ZM954.731 361.14C948.766 354.033 941.1 347.359 936.538 345.761C920.641 339.804 905.74 319.79 900.771 298.626C895.072 268.332 898.525 258.48 908.729 277.62C913.643 286.03 918.447 290.672 918.987 287.774C919.661 284.151 929.809 290.538 940.715 301.562C952.402 312.732 962.038 317.524 962.847 313.177C963.656 308.83 967.839 308.109 972.779 312.027C979.014 317.685 978.609 319.858 971.161 320.721C963.712 321.583 963.686 326.076 969.49 338.4C974.269 347.535 975.242 359.71 971.816 365.069C966.284 373.034 963.936 372.597 954.731 361.14ZM981.409 108.993C981.222 118.703 977.552 121.019 970.264 116.664C964.407 113.325 959.307 114.625 958.498 118.972C957.689 123.319 955.071 124.331 952.48 120.85C949.105 117.224 953.45 111.286 961.303 108.25C969.291 104.489 975.983 98.9884 977.575 94.7871C978.249 91.1646 983.754 87.6915 990.285 87.4077C997.599 87.2696 997.464 87.9941 991.176 91.3215C985.941 93.3456 981.192 101.457 981.409 108.993ZM933.814 186.34C930.144 188.655 929.901 185.611 932.545 180.107C941.086 199.598 984.023 173.222 979.623 166.407C970.957 152.051 934.317 122.718 946.139 133.163C953.94 139.112 944.689 180.118 933.814 186.34ZM921.597 243.284C915.957 247.482 905.756 250.081 900.277 249.061C894.016 247.896 895.338 245.144 905.674 241.82C913.392 239.508 921.272 231.98 922.215 226.908C923.294 221.112 909.184 226.518 913.098 227.246C923.273 229.14 936.412 233.298 921.597 243.284ZM909.636 211.824C902.97 212.832 929.91 207.042 933.337 201.683C909.624 212.224 913.655 194.582 919.403 194.152C926.069 193.144 928.661 196.624 925.234 201.984C922.725 206.764 915.385 211.395 909.636 211.824ZM917.512 182.556C915.569 179.946 916 173.28 919.291 168.645C922.718 163.286 924.662 165.896 923.179 173.866C922.478 181.981 919.321 185.891 917.512 182.556ZM904.539 234.862C900.626 234.134 905.31 231.852 906.119 227.505C906.793 223.883 903.053 221.093 906.562 223.995C910.853 227.042 913.31 231.247 912.905 233.421C912.636 234.87 909.235 235.736 904.539 234.862Z" fill="#5A430B"/>
<path d="M1462.45 263.779C1467.24 203.204 1465.76 189.435 1450.1 186.522C1441.49 184.92 1435.26 179.262 1436.2 174.19C1438.63 161.149 1414.77 132.721 1383.29 110.374C1366.91 98.3294 1341.11 89.0301 1305.75 83.2002C1180.39 60.62 1097.89 120.977 1073.08 254.286C1061.49 316.593 1065.3 357.031 1084.09 382.266C1092 391.983 1093.54 396.767 1087.81 392.704C1071.43 380.66 1084.66 396.614 1102.2 411.123C1147.95 448.122 1178.67 465.831 1210.76 471.803C1237.24 477.48 1241.66 479.803 1228.98 482.69C1219.69 484.71 1216.02 487.025 1221.5 488.045C1240.02 492.99 1338.28 461.052 1371.44 439.489C1420.21 408.086 1455.74 338.989 1462.45 263.779ZM1412.79 269.53C1401.05 267.345 1400.54 265.75 1411.79 261.848C1422.26 257.799 1420.18 255.914 1403.75 252.855C1391.22 250.524 1382.51 245.154 1383.31 240.807C1384.12 236.46 1391.57 235.597 1399.78 239.373C1407.98 243.149 1413.6 243.444 1411.92 239.384C1410.11 236.049 1414.84 232.431 1421.64 230.698C1430.79 229.402 1433.11 234.332 1430.14 250.271C1427.17 266.21 1422.18 271.278 1412.79 269.53ZM1381.23 352.108C1381.01 344.572 1376.61 337.756 1372.7 337.028C1368 336.154 1365.9 338.761 1367.7 342.096C1369.38 346.155 1365.71 348.47 1359.45 347.305C1353.18 346.14 1349.68 343.238 1352.29 342.226C1355.05 340.49 1351.43 333.82 1344.55 327.292C1334.29 317.137 1335.21 316.558 1352.94 321.357C1379.79 329.353 1389.4 338.638 1385.92 352.982C1383.12 363.704 1382.34 363.558 1381.23 352.108ZM1395.83 177.921C1392.48 169.802 1389.08 170.668 1383.66 182.402C1377.18 195.439 1374.7 195.727 1366.01 185.864C1359.91 179.481 1356.04 169.768 1356.99 164.696C1359.28 152.38 1342.44 151.494 1328.14 163.075C1321.44 168.576 1316.61 168.427 1314.29 163.497C1311.97 158.567 1318.69 148.574 1328.92 141.482C1344.78 130.193 1347.27 129.905 1345.38 140.048C1344.17 146.569 1347.4 150.919 1351.72 149.474C1356.96 147.45 1358.82 141.8 1357.28 137.016C1355.09 131.362 1356.01 130.783 1359.39 134.409C1362.62 138.76 1364.54 145.863 1363.73 150.21C1362.79 155.281 1369.02 160.939 1377.63 162.542C1403.06 169.522 1404.49 170.538 1402.74 179.956C1401.52 186.477 1399.96 186.185 1395.83 177.921ZM1358.24 375.565C1353.14 376.864 1352.89 373.821 1356.32 368.462C1364.22 356.44 1370.11 355.286 1368.22 365.429C1367.41 369.776 1363.34 374.265 1358.24 375.565ZM1337.76 394.241C1334.38 390.615 1332.46 383.512 1333.54 377.716C1335.16 369.022 1336.73 369.313 1344.77 378.306C1354.62 390.634 1349.06 403.092 1337.76 394.241ZM1338.7 410.908C1336.76 408.298 1323.94 411.909 1310.31 419.867C1281.22 436.942 1265.19 431.709 1260.52 404.604C1256.09 380.542 1272.25 363.311 1294.95 367.535C1308.25 370.011 1344.88 403.813 1343.4 411.782C1342.86 414.68 1340.51 414.243 1338.7 410.908ZM1337.83 180.62C1333.92 179.892 1330.27 177.715 1330.54 176.266C1330.95 174.092 1335.53 171.198 1339.85 169.753C1344.95 168.453 1347.81 170.485 1347.14 174.107C1346.33 178.454 1342.52 181.494 1337.83 180.62ZM1324.48 230.607C1319.16 224.371 1309.39 220.304 1302.72 221.312C1290.17 223.474 1341.18 246.353 1354.67 239.119C1358.34 236.803 1310.3 197.986 1307.15 201.896C1303.07 206.385 1307.61 212.476 1318.81 217.559C1329.23 222.496 1336.89 229.17 1336.08 233.517C1335 239.313 1331.23 237.86 1324.48 230.607ZM1313.01 248.712C1306.75 247.547 1304.16 244.067 1307.18 240.881C1310.2 237.695 1298.26 249.239 1301.76 252.141C1310.73 260.555 1326.32 251.189 1313.01 248.712ZM1323.76 130.028C1320.25 127.126 1314.61 131.324 1310.64 139.581C1304.3 151.894 1301.82 152.181 1292.35 142.173C1282.87 132.164 1284.06 130.136 1297.42 123.627C1316.79 115.239 1333.5 116.849 1331.48 127.716C1330.8 131.339 1327.27 132.93 1323.76 130.028ZM1227.7 432.979C1223.38 434.424 1220.79 430.943 1221.87 425.147C1222.95 419.351 1226.62 417.036 1230.13 419.938C1232.86 422.694 1235.45 426.174 1235.18 427.623C1234.91 429.072 1231.24 431.388 1227.7 432.979ZM1233.79 174.002C1208.74 169.341 1202.88 166.002 1207.5 158.615C1211.71 153.402 1214.76 145.724 1215.43 142.101C1216.1 138.478 1224.47 137.037 1234.51 139.655C1250.95 142.714 1250.81 143.438 1234.86 146.467C1223.1 148.775 1221.13 150.657 1229.6 152.984C1235.59 155.598 1244.2 157.2 1247.47 157.058C1251.52 157.062 1250.84 160.684 1246.9 164.449C1241.78 170.241 1244.77 171.548 1256.92 171.56C1266.85 170.409 1272.97 172.299 1269.95 175.485C1267.85 178.091 1251.01 177.206 1233.79 174.002ZM1238.34 132.122C1235.99 131.685 1232.62 128.059 1231.08 123.275C1229.41 119.216 1231.65 115.884 1235.56 116.613C1240.26 117.487 1243.49 121.837 1242.82 125.46C1242.01 129.807 1239.91 132.414 1238.34 132.122ZM1166.73 408.14C1160.77 401.033 1153.1 394.359 1148.54 392.761C1132.64 386.804 1117.74 366.79 1112.77 345.626C1107.07 315.332 1110.52 305.48 1120.73 324.62C1125.64 333.03 1130.45 337.672 1130.99 334.774C1131.66 331.151 1141.81 337.538 1152.71 348.562C1164.4 359.732 1174.04 364.524 1174.85 360.177C1175.66 355.83 1179.84 355.109 1184.78 359.027C1191.01 364.685 1190.61 366.858 1183.16 367.721C1175.71 368.583 1175.69 373.076 1181.49 385.4C1186.27 394.535 1187.24 406.71 1183.82 412.069C1178.28 420.034 1175.94 419.597 1166.73 408.14ZM1193.41 155.993C1193.22 165.703 1189.55 168.019 1182.26 163.664C1176.41 160.325 1171.31 161.625 1170.5 165.972C1169.69 170.319 1167.07 171.331 1164.48 167.85C1161.11 164.224 1165.45 158.286 1173.3 155.25C1181.29 151.489 1187.98 145.988 1189.57 141.787C1190.25 138.165 1195.75 134.691 1202.29 134.408C1209.6 134.27 1209.46 134.994 1203.18 138.322C1197.94 140.346 1193.19 148.457 1193.41 155.993ZM1145.81 233.34C1142.14 235.655 1141.9 232.611 1144.54 227.107C1153.09 246.598 1196.02 220.222 1191.62 213.407C1182.96 199.051 1146.32 169.718 1158.14 180.163C1165.94 186.112 1156.69 227.118 1145.81 233.34ZM1133.6 290.284C1127.96 294.482 1117.76 297.081 1112.28 296.061C1106.02 294.896 1107.34 292.144 1117.67 288.82C1125.39 286.508 1133.27 278.98 1134.22 273.908C1135.29 268.112 1121.18 273.518 1125.1 274.246C1135.27 276.14 1148.41 280.298 1133.6 290.284ZM1121.64 258.824C1114.97 259.832 1141.91 254.042 1145.34 248.683C1121.62 259.224 1125.65 241.582 1131.4 241.152C1138.07 240.144 1140.66 243.624 1137.23 248.984C1134.73 253.764 1127.38 258.395 1121.64 258.824ZM1129.51 229.556C1127.57 226.946 1128 220.28 1131.29 215.645C1134.72 210.286 1136.66 212.896 1135.18 220.866C1134.48 228.981 1131.32 232.891 1129.51 229.556ZM1116.54 281.862C1112.63 281.134 1117.31 278.852 1118.12 274.505C1118.79 270.883 1115.05 268.093 1118.56 270.995C1122.85 274.042 1125.31 278.247 1124.91 280.421C1124.64 281.87 1121.24 282.736 1116.54 281.862Z" fill="#5A430B"/>
<path d="M600.448 230.779C605.242 170.204 603.756 156.435 588.102 153.522C579.492 151.92 573.257 146.262 574.201 141.19C576.628 128.149 552.765 99.7214 521.293 77.3735C504.909 65.3294 479.107 56.0301 443.751 50.2002C318.386 27.62 235.891 87.9773 211.083 221.286C199.488 283.593 203.3 324.031 222.088 349.266C229.997 358.983 231.537 363.767 225.814 359.704C209.43 347.66 222.657 363.614 240.202 378.123C285.954 415.122 316.669 432.831 348.76 438.803C375.236 444.48 379.663 446.803 366.979 449.69C357.695 451.71 354.025 454.025 359.504 455.045C378.019 459.99 476.279 428.052 509.444 406.489C558.207 375.086 593.74 305.989 600.448 230.779ZM550.79 236.53C539.05 234.345 538.537 232.75 549.79 228.848C560.261 224.799 558.183 222.914 541.746 219.855C529.223 217.524 520.505 212.154 521.314 207.807C522.123 203.46 529.572 202.597 537.777 206.373C545.982 210.149 551.596 210.444 549.922 206.384C548.113 203.049 552.835 199.431 559.636 197.698C568.785 196.402 571.107 201.332 568.141 217.271C565.175 233.21 560.182 238.278 550.79 236.53ZM519.227 319.108C519.01 311.572 514.61 304.756 510.696 304.028C506 303.154 503.895 305.761 505.704 309.096C507.378 313.155 503.708 315.47 497.446 314.305C491.185 313.14 487.676 310.238 490.294 309.226C493.046 307.49 489.429 300.82 482.545 294.292C472.288 284.137 473.206 283.558 490.938 288.357C517.793 296.353 527.402 305.638 523.923 319.982C521.118 330.704 520.335 330.558 519.227 319.108ZM533.827 144.921C530.479 136.802 527.078 137.668 521.656 149.402C515.18 162.439 512.698 162.727 504.006 152.864C497.905 146.481 494.044 136.768 494.988 131.696C497.28 119.38 480.439 118.494 466.137 130.075C459.445 135.576 454.614 135.427 452.292 130.497C449.97 125.567 456.689 115.574 466.916 108.482C482.784 97.1925 485.267 96.905 483.379 107.048C482.166 113.569 485.405 117.919 489.723 116.474C494.958 114.45 496.82 108.8 495.281 104.016C493.094 98.3615 494.011 97.7827 497.385 101.409C500.625 105.76 502.542 112.863 501.733 117.21C500.789 122.281 507.024 127.939 515.634 129.542C541.058 136.522 542.489 137.538 540.736 146.956C539.523 153.477 537.957 153.185 533.827 144.921ZM496.236 342.565C491.136 343.864 490.892 340.821 494.319 335.462C502.225 323.44 508.108 322.286 506.221 332.429C505.412 336.776 501.337 341.265 496.236 342.565ZM475.755 361.241C472.381 357.615 470.464 350.512 471.542 344.716C473.16 336.022 474.726 336.313 482.77 345.306C492.622 357.634 487.065 370.092 475.755 361.241ZM476.702 377.908C474.759 375.298 461.94 378.909 448.312 386.867C419.221 403.942 403.189 398.709 398.516 371.604C394.086 347.542 410.249 330.311 432.947 334.535C446.253 337.011 482.882 370.813 481.399 378.782C480.859 381.68 478.511 381.243 476.702 377.908ZM475.829 147.62C471.915 146.892 468.272 144.715 468.541 143.266C468.946 141.092 473.533 138.198 477.851 136.753C482.952 135.453 485.813 137.485 485.139 141.107C484.33 145.454 480.525 148.494 475.829 147.62ZM462.478 197.607C457.16 191.371 447.389 187.304 440.723 188.312C428.174 190.474 479.179 213.353 492.672 206.119C496.343 203.803 448.303 164.986 445.146 168.896C441.072 173.385 445.607 179.476 456.808 184.559C467.226 189.496 474.892 196.17 474.083 200.517C473.004 206.313 469.226 204.86 462.478 197.607ZM451.01 215.712C444.749 214.547 442.157 211.067 445.18 207.881C448.202 204.695 436.255 216.239 439.764 219.141C448.726 227.555 464.316 218.189 451.01 215.712ZM461.76 97.028C458.251 94.1263 452.611 98.3239 448.645 106.581C442.304 118.894 439.822 119.181 430.347 109.173C420.872 99.1639 422.06 97.136 435.418 90.6268C454.794 82.2391 471.5 83.8488 469.478 94.7164C468.804 98.3389 465.269 99.9298 461.76 97.028ZM365.702 399.979C361.384 401.424 358.793 397.943 359.871 392.147C360.95 386.351 364.62 384.036 368.129 386.938C370.855 389.694 373.447 393.174 373.177 394.623C372.908 396.072 369.237 398.388 365.702 399.979ZM371.787 141.002C346.741 136.341 340.884 133.002 345.498 125.615C349.707 120.402 352.756 112.724 353.43 109.101C354.104 105.478 362.47 104.037 372.51 106.655C388.947 109.714 388.812 110.438 372.862 113.467C361.096 115.775 359.126 117.657 367.6 119.984C373.592 122.598 382.202 124.2 385.468 124.058C389.516 124.062 388.842 127.684 384.902 131.449C379.775 137.241 382.771 138.548 394.916 138.56C404.847 137.409 410.974 139.299 407.952 142.485C405.847 145.091 389.006 144.206 371.787 141.002ZM376.341 99.1224C373.993 98.6855 370.619 95.0592 369.08 90.2752C367.406 86.2157 369.646 82.8845 373.559 83.6128C378.255 84.4867 381.495 88.8375 380.82 92.46C380.011 96.807 377.907 99.4137 376.341 99.1224ZM304.731 375.14C298.766 368.033 291.1 361.359 286.538 359.761C270.641 353.804 255.74 333.79 250.771 312.626C245.072 282.332 248.525 272.48 258.729 291.62C263.643 300.03 268.447 304.672 268.987 301.774C269.661 298.151 279.809 304.538 290.715 315.562C302.402 326.732 312.038 331.524 312.847 327.177C313.656 322.83 317.839 322.109 322.779 326.027C329.014 331.685 328.609 333.858 321.161 334.721C313.712 335.583 313.686 340.076 319.49 352.4C324.269 361.535 325.242 373.71 321.816 379.069C316.284 387.034 313.936 386.597 304.731 375.14ZM331.409 122.993C331.222 132.703 327.552 135.019 320.264 130.664C314.407 127.325 309.307 128.625 308.498 132.972C307.689 137.319 305.071 138.331 302.48 134.85C299.105 131.224 303.45 125.286 311.303 122.25C319.291 118.489 325.983 112.988 327.575 108.787C328.249 105.165 333.754 101.691 340.285 101.408C347.599 101.27 347.464 101.994 341.176 105.322C335.941 107.346 331.192 115.457 331.409 122.993ZM283.814 200.34C280.144 202.655 279.901 199.611 282.545 194.107C291.086 213.598 334.023 187.222 329.623 180.407C320.957 166.051 284.317 136.718 296.139 147.163C303.94 153.112 294.689 194.118 283.814 200.34ZM271.597 257.284C265.957 261.482 255.756 264.081 250.277 263.061C244.016 261.896 245.338 259.144 255.674 255.82C263.392 253.508 271.272 245.98 272.215 240.908C273.294 235.112 259.184 240.518 263.098 241.246C273.273 243.14 286.412 247.298 271.597 257.284ZM259.636 225.824C252.97 226.832 279.91 221.042 283.337 215.683C259.624 226.224 263.655 208.582 269.403 208.152C276.069 207.144 278.661 210.624 275.234 215.984C272.725 220.764 265.385 225.395 259.636 225.824ZM267.512 196.556C265.569 193.946 266 187.28 269.291 182.645C272.718 177.286 274.662 179.896 273.179 187.866C272.478 195.981 269.321 199.891 267.512 196.556ZM254.539 248.862C250.626 248.134 255.31 245.852 256.119 241.505C256.793 237.883 253.053 235.093 256.562 237.995C260.853 241.042 263.31 245.247 262.905 247.421C262.636 248.87 259.235 249.736 254.539 248.862Z" fill="#5A430B"/>
<rect x="-16" y="185" width="1374" height="199" fill="#5A430B"/>
</svg>
