<svg width="430" height="574" viewBox="0 0 430 574" fill="none" xmlns="http://www.w3.org/2000/svg">
<rect y="419.207" width="430" height="160.985" fill="#5A430B"/>
<path d="M604.452 377.327C610.149 278.154 606.399 255.454 575.571 249.717C558.615 246.562 546.061 236.891 547.6 228.621C551.558 207.356 503.101 159.223 440.115 120.61C407.3 99.8351 356.211 82.9935 286.626 71.2666C39.7766 26.5515 -118.075 120.633 -158.529 338.017C-177.437 439.62 -167.51 506.252 -129.184 548.833C-113.105 565.271 -109.8 573.22 -121.252 566.199C-154.067 545.424 -127.195 572.427 -91.9574 597.32C-0.118681 660.86 61.1039 691.811 124.303 703.572C176.492 714.506 185.301 718.59 160.64 722.557C142.585 725.309 135.54 728.887 146.33 730.895C182.885 740.143 373.339 693.688 436.965 660.302C530.534 611.707 595.9 500.414 604.452 377.327ZM507.569 383.744C484.447 379.441 483.346 376.792 505.143 371.069C525.399 365.06 521.215 361.837 488.845 355.813C464.182 351.223 446.784 341.874 448.103 334.785C449.422 327.696 463.955 326.734 480.251 333.433C496.547 340.133 507.557 340.96 504.032 334.192C500.287 328.606 509.313 322.951 522.524 320.52C540.359 318.95 545.206 327.186 540.369 353.178C535.532 379.169 526.066 387.186 507.569 383.744ZM450.797 517.416C449.913 505.028 440.881 493.569 433.174 492.134C423.926 490.413 419.963 494.565 423.708 500.152C427.233 506.919 420.188 510.498 407.857 508.203C395.525 505.908 388.478 500.929 393.542 499.427C398.825 496.743 391.336 485.571 377.46 474.432C356.757 457.134 358.519 456.239 393.532 465.2C446.603 479.965 465.984 495.795 460.046 519.137C455.206 536.572 453.665 536.285 450.797 517.416ZM468.772 232.287C461.722 218.752 455.116 219.967 445.213 238.904C433.329 259.917 428.484 260.238 410.864 243.513C398.53 232.661 390.379 216.476 391.918 208.206C395.655 188.122 362.625 185.642 335.327 203.787C322.558 212.412 313.089 211.872 308.243 203.636C303.396 195.4 315.943 179.399 335.537 168.378C365.919 150.807 370.763 150.486 367.685 167.026C365.706 177.659 372.314 185 380.681 182.89C390.809 179.886 394.109 170.721 390.804 162.772C386.177 153.355 387.938 152.46 394.766 158.62C401.374 165.961 405.561 177.742 404.242 184.83C402.703 193.1 415.257 202.771 432.212 205.926C482.42 218.936 485.283 220.692 482.425 236.05C480.446 246.683 477.363 246.109 468.772 232.287ZM407.209 554.532C397.301 556.355 396.639 551.342 403.022 542.751C417.77 523.493 429.219 521.957 426.141 538.497C424.822 545.586 417.117 552.708 407.209 554.532ZM368.243 583.951C361.416 577.791 357.229 566.01 358.987 556.559C361.626 542.382 364.709 542.955 381.007 558.212C401.051 579.055 390.928 599.173 368.243 583.951ZM371.114 611.377C367.149 606.972 342.268 612.12 316.069 624.358C260.147 650.621 228.437 641.053 217.634 596.261C207.494 556.481 238.093 529.172 282.795 537.491C308.999 542.367 382.781 600.102 380.362 613.098C379.483 617.823 374.858 616.963 371.114 611.377ZM355.373 233.186C347.665 231.752 340.398 227.955 340.838 225.592C341.497 222.048 350.304 217.575 358.67 215.465C368.579 213.642 374.305 217.152 373.205 223.059C371.886 230.148 364.621 234.907 355.373 233.186ZM332.275 314.452C321.483 303.888 302.104 296.614 289.113 297.864C264.672 300.649 365.938 341.324 391.918 330.268C398.963 326.69 302.534 260.024 296.59 266.252C288.886 273.374 298.137 283.652 320.379 292.681C341.079 301.423 356.496 312.848 355.177 319.937C353.418 329.388 345.931 326.772 332.275 314.452ZM310.925 343.483C298.593 341.188 293.307 335.315 299.031 330.268C304.754 325.221 282.065 343.448 289.113 348.426C307.173 362.788 337.129 348.359 310.925 343.483ZM324.742 149.256C317.694 144.277 306.907 150.826 299.644 164.143C287.979 183.974 283.135 184.295 263.974 167.284C244.812 150.272 247.013 147.014 272.773 137.14C310.202 124.548 343.012 128.209 339.714 145.93C338.615 151.838 331.789 154.234 324.742 149.256ZM155.112 640.854C146.745 642.964 141.459 637.09 143.218 627.639C144.977 618.188 152.022 614.609 159.07 619.588C164.576 624.28 169.862 630.153 169.422 632.516C168.983 634.878 161.937 638.457 155.112 640.854ZM151.248 215.98C101.922 206.801 90.2504 200.961 98.8346 189.113C106.759 180.809 112.261 168.387 113.36 162.48C114.459 156.573 130.753 154.715 150.572 159.626C182.942 165.65 182.722 166.831 151.676 170.833C128.777 173.905 125.034 176.876 141.77 181.213C153.662 185.87 170.618 189.026 177.003 188.992C184.93 189.244 183.831 195.152 176.346 201.093C166.66 210.291 172.606 212.62 196.387 213.379C215.764 212.095 227.876 215.572 222.152 220.618C218.19 224.77 185.16 222.291 151.248 215.98ZM157.614 147.491C152.99 146.63 146.162 140.47 142.857 132.521C139.332 125.753 143.514 120.42 151.222 121.854C160.47 123.575 167.078 130.917 165.979 136.824C164.66 143.912 160.697 148.064 157.614 147.491ZM34.2132 596.353C22.0992 584.32 6.68236 572.894 -2.34639 569.992C-33.8371 559.242 -64.2334 525.471 -75.253 490.417C-88.2586 440.325 -82.0977 424.359 -60.9501 456.409C-50.8172 470.518 -41.1264 478.433 -40.247 473.707C-39.1477 467.8 -18.8867 478.904 3.13795 497.671C26.7041 516.725 45.8633 525.18 47.1824 518.091C48.5016 511.003 56.6485 510.074 66.5591 516.808C79.1129 526.478 78.4533 530.022 63.9208 530.985C49.3883 531.948 49.6106 539.323 61.7271 559.913C71.6401 575.204 74.2881 595.254 67.9049 603.845C57.5595 616.588 52.9352 615.727 34.2132 596.353ZM71.0888 183.95C71.3135 199.882 64.2683 203.46 49.7334 195.866C38.0615 190.027 28.1533 191.85 26.8341 198.939C25.515 206.027 20.451 207.53 15.1646 201.657C8.33689 195.497 16.4814 186.011 31.6734 181.504C47.0854 175.816 59.8541 167.191 62.7147 160.389C63.814 154.482 74.3818 149.114 87.153 149.046C101.466 149.265 101.246 150.447 89.1366 155.527C79.0085 158.532 70.2045 171.562 71.0888 183.95ZM-17.3938 308.054C-24.439 311.632 -25.101 306.619 -20.2593 297.742C-2.34639 330.268 80.12 289.574 71.0888 278.114C53.2463 254.014 -20.286 203.616 3.50001 221.488C19.1367 231.732 3.52185 298.5 -17.3938 308.054ZM-37.8455 400.813C-48.6331 407.362 -68.4495 411.008 -79.2396 409C-91.5711 406.706 -89.1502 402.267 -69.114 397.439C-54.1417 394.113 -39.172 382.231 -37.6329 373.961C-35.8741 364.51 -63.1729 372.527 -55.4658 373.961C-35.4271 377.69 -9.44494 385.318 -37.8455 400.813ZM-63.1826 348.426C-76.1737 349.676 -23.777 341.81 -17.3938 333.219C-63.1826 349.083 -56.3646 320.359 -45.1348 320.004C-32.1438 318.755 -26.8575 324.628 -33.2406 333.219C-37.8625 340.915 -51.9529 348.072 -63.1826 348.426ZM-49.5441 300.848C-53.5089 296.443 -53.0716 285.524 -46.9083 278.114C-40.5251 269.523 -36.5603 273.928 -38.9788 286.924C-39.8558 300.206 -45.7993 306.435 -49.5441 300.848ZM-71.7595 385.945C-79.4667 384.511 -70.4331 381.05 -69.114 373.961C-68.0147 368.054 -75.5093 363.245 -68.4617 368.224C-59.8726 373.489 -54.8062 380.544 -55.4658 384.088C-55.9055 386.451 -62.5109 387.667 -71.7595 385.945Z" fill="#5A430B"/>
</svg>
