<svg width="36" height="35" viewBox="0 0 36 35" fill="none" xmlns="http://www.w3.org/2000/svg">
<g clip-path="url(#clip0_37_30307)">
<path d="M18 0C13.1152 0 12.501 0.021875 10.5817 0.105C8.6625 0.1925 7.35525 0.485625 6.21 0.91875C5.00815 1.35696 3.91982 2.04618 3.02175 2.93781C2.10465 3.81093 1.39573 4.86903 0.945 6.0375C0.4995 7.14875 0.19575 8.42188 0.108 10.2812C0.0225 12.1516 0 12.7466 0 17.5022C0 22.2534 0.0225 22.8484 0.108 24.7144C0.198 26.5781 0.4995 27.8491 0.945 28.9625C1.40625 30.1131 2.0205 31.0887 3.02175 32.0622C4.02075 33.0356 5.02425 33.635 6.20775 34.0812C7.35525 34.5144 8.66025 34.8097 10.5773 34.895C12.4988 34.9781 13.1108 35 18 35C22.8892 35 23.499 34.9781 25.4205 34.895C27.3353 34.8075 28.647 34.5144 29.7922 34.0812C30.9933 33.6428 32.0808 32.9535 32.9782 32.0622C33.9795 31.0887 34.5938 30.1131 35.055 28.9625C35.4982 27.8491 35.802 26.5781 35.892 24.7144C35.9775 22.8484 36 22.2534 36 17.5C36 12.7466 35.9775 12.1516 35.892 10.2834C35.802 8.42188 35.4982 7.14875 35.055 6.0375C34.6043 4.86903 33.8954 3.81093 32.9782 2.93781C32.0802 2.04618 30.9918 1.35696 29.79 0.91875C28.6425 0.485625 27.333 0.190313 25.4182 0.105C23.4967 0.021875 22.887 0 17.9955 0H18ZM16.3867 3.15438H18.0023C22.8083 3.15438 23.3775 3.16969 25.2743 3.255C27.0292 3.33156 27.9832 3.61812 28.6178 3.85656C29.457 4.17375 30.0578 4.55438 30.6877 5.16687C31.3177 5.77938 31.707 6.36125 32.0333 7.17938C32.2808 7.79406 32.5732 8.72156 32.652 10.4278C32.7397 12.2719 32.7578 12.8253 32.7578 17.4956C32.7578 22.1659 32.7397 22.7216 32.652 24.5656C32.5732 26.2719 32.2785 27.1972 32.0333 27.8141C31.7426 28.5729 31.2823 29.2595 30.6855 29.8244C30.0555 30.4369 29.457 30.8153 28.6155 31.1325C27.9855 31.3731 27.0315 31.6575 25.2743 31.7362C23.3775 31.8194 22.8083 31.8391 18.0023 31.8391C13.1963 31.8391 12.6248 31.8194 10.728 31.7362C8.973 31.6575 8.02125 31.3731 7.38675 31.1325C6.60562 30.8509 5.8986 30.4041 5.31675 29.8244C4.71887 29.2591 4.25774 28.5717 3.96675 27.8119C3.7215 27.1972 3.42675 26.2697 3.348 24.5634C3.2625 22.7194 3.2445 22.1659 3.2445 17.4912C3.2445 12.8166 3.2625 12.2675 3.348 10.4234C3.429 8.71719 3.7215 7.78969 3.969 7.17281C4.29525 6.35687 4.68675 5.77281 5.31675 5.16031C5.94675 4.54781 6.54525 4.16937 7.38675 3.85219C8.02125 3.61156 8.973 3.32719 10.728 3.24844C12.3885 3.17406 13.032 3.15219 16.3867 3.15V3.15438ZM27.6097 6.05937C27.3261 6.05937 27.0452 6.11369 26.7832 6.21923C26.5211 6.32476 26.283 6.47945 26.0824 6.67445C25.8818 6.86945 25.7227 7.10096 25.6142 7.35574C25.5056 7.61052 25.4497 7.8836 25.4497 8.15938C25.4497 8.43515 25.5056 8.70823 25.6142 8.96301C25.7227 9.21779 25.8818 9.4493 26.0824 9.6443C26.283 9.8393 26.5211 9.99399 26.7832 10.0995C27.0452 10.2051 27.3261 10.2594 27.6097 10.2594C28.1826 10.2594 28.732 10.0381 29.1371 9.6443C29.5422 9.25047 29.7698 8.71633 29.7698 8.15938C29.7698 7.60242 29.5422 7.06828 29.1371 6.67445C28.732 6.28062 28.1826 6.05937 27.6097 6.05937ZM18.0023 8.51375C16.7762 8.49515 15.5585 8.71387 14.4202 9.15718C13.2819 9.60049 12.2457 10.2595 11.3718 11.0959C10.498 11.9323 9.80407 12.9294 9.33039 14.029C8.85672 15.1286 8.61278 16.3089 8.61278 17.5011C8.61278 18.6933 8.85672 19.8735 9.33039 20.9732C9.80407 22.0728 10.498 23.0699 11.3718 23.9063C12.2457 24.7427 13.2819 25.4017 14.4202 25.845C15.5585 26.2883 16.7762 26.507 18.0023 26.4884C20.429 26.4516 22.7435 25.4886 24.4462 23.8071C26.1489 22.1257 27.1033 19.8607 27.1033 17.5011C27.1033 15.1415 26.1489 12.8765 24.4462 11.1951C22.7435 9.51363 20.429 8.55056 18.0023 8.51375ZM18.0023 11.6659C18.7903 11.6659 19.5706 11.8168 20.2986 12.11C21.0267 12.4032 21.6882 12.833 22.2454 13.3747C22.8026 13.9164 23.2447 14.5596 23.5462 15.2674C23.8478 15.9752 24.003 16.7339 24.003 17.5C24.003 18.2661 23.8478 19.0248 23.5462 19.7326C23.2447 20.4404 22.8026 21.0836 22.2454 21.6253C21.6882 22.167 21.0267 22.5968 20.2986 22.89C19.5706 23.1832 18.7903 23.3341 18.0023 23.3341C16.4108 23.3341 14.8844 22.7194 13.7591 21.6253C12.6337 20.5312 12.0015 19.0473 12.0015 17.5C12.0015 15.9527 12.6337 14.4688 13.7591 13.3747C14.8844 12.2806 16.4108 11.6659 18.0023 11.6659Z" fill="white"/>
</g>
<defs>
<clipPath id="clip0_37_30307">
<rect width="36" height="35" fill="white"/>
</clipPath>
</defs>
</svg>
