<svg width="28" height="28" viewBox="0 0 28 28" fill="none" xmlns="http://www.w3.org/2000/svg">
<g clip-path="url(#clip0_220_27650)">
<path d="M2.625 26.25C2.39294 26.25 2.17038 26.3422 2.00628 26.5063C1.84219 26.6704 1.75 26.8929 1.75 27.125C1.75 27.3571 1.84219 27.5796 2.00628 27.7437C2.17038 27.9078 2.39294 28 2.625 28H25.375C25.6071 28 25.8296 27.9078 25.9937 27.7437C26.1578 27.5796 26.25 27.3571 26.25 27.125C26.25 26.8929 26.1578 26.6704 25.9937 26.5063C25.8296 26.3422 25.6071 26.25 25.375 26.25H22.75V4.37499C22.75 3.6788 22.4734 3.01112 21.9812 2.51883C21.4889 2.02655 20.8212 1.74999 20.125 1.74999H19.25V0.87499C19.25 0.749744 19.2231 0.625961 19.1711 0.512009C19.1191 0.398057 19.0433 0.29659 18.9487 0.214468C18.8542 0.132346 18.7431 0.071482 18.623 0.03599C18.5028 0.000497967 18.3765 -0.00879488 18.2525 0.00873957L6.0025 1.75874C5.79376 1.78825 5.60269 1.89214 5.46443 2.0513C5.32618 2.21045 5.25003 2.41417 5.25 2.62499V26.25H2.625ZM19.25 3.49999H20.125C20.3571 3.49999 20.5796 3.59218 20.7437 3.75627C20.9078 3.92037 21 4.14292 21 4.37499V26.25H19.25V3.49999ZM14.875 17.5C14.392 17.5 14 16.716 14 15.75C14 14.784 14.392 14 14.875 14C15.358 14 15.75 14.784 15.75 15.75C15.75 16.716 15.358 17.5 14.875 17.5Z" fill="white"/>
</g>
<defs>
<clipPath id="clip0_220_27650">
<rect width="28" height="28" fill="white"/>
</clipPath>
</defs>
</svg>
