<svg width="28" height="28" viewBox="0 0 28 28" fill="none" xmlns="http://www.w3.org/2000/svg">
<g clip-path="url(#clip0_559_2923)">
<path d="M12.25 4.375C12.25 4.14294 12.3422 3.92038 12.5063 3.75628C12.6704 3.59219 12.8929 3.5 13.125 3.5H25.375C25.6071 3.5 25.8296 3.59219 25.9937 3.75628C26.1578 3.92038 26.25 4.14294 26.25 4.375V6.125C26.25 6.35706 26.1578 6.57962 25.9937 6.74372C25.8296 6.90781 25.6071 7 25.375 7H13.125C12.8929 7 12.6704 6.90781 12.5063 6.74372C12.3422 6.57962 12.25 6.35706 12.25 6.125V4.375ZM3.5 1.75C2.57174 1.75 1.6815 2.11875 1.02513 2.77513C0.368749 3.4315 0 4.32174 0 5.25L0 8.75C0 9.67826 0.368749 10.5685 1.02513 11.2249C1.6815 11.8813 2.57174 12.25 3.5 12.25H7C7.92826 12.25 8.8185 11.8813 9.47487 11.2249C10.1313 10.5685 10.5 9.67826 10.5 8.75V5.25C10.5 4.32174 10.1313 3.4315 9.47487 2.77513C8.8185 2.11875 7.92826 1.75 7 1.75H3.5ZM3.5 15.75C2.57174 15.75 1.6815 16.1187 1.02513 16.7751C0.368749 17.4315 0 18.3217 0 19.25L0 22.75C0 23.6783 0.368749 24.5685 1.02513 25.2249C1.6815 25.8813 2.57174 26.25 3.5 26.25H7C7.92826 26.25 8.8185 25.8813 9.47487 25.2249C10.1313 24.5685 10.5 23.6783 10.5 22.75V19.25C10.5 18.3217 10.1313 17.4315 9.47487 16.7751C8.8185 16.1187 7.92826 15.75 7 15.75H3.5ZM4.9945 9.3695C4.91322 9.45099 4.81666 9.51564 4.71036 9.55975C4.60405 9.60386 4.49009 9.62656 4.375 9.62656C4.25991 9.62656 4.14595 9.60386 4.03964 9.55975C3.93334 9.51564 3.83678 9.45099 3.7555 9.3695L2.0055 7.6195C1.92415 7.53815 1.85961 7.44157 1.81558 7.33527C1.77156 7.22898 1.74889 7.11505 1.74889 7C1.74889 6.88495 1.77156 6.77102 1.81558 6.66473C1.85961 6.55843 1.92415 6.46185 2.0055 6.3805C2.08685 6.29915 2.18343 6.23461 2.28973 6.19058C2.39602 6.14656 2.50995 6.12389 2.625 6.12389C2.74005 6.12389 2.85398 6.14656 2.96027 6.19058C3.06657 6.23461 3.16315 6.29915 3.2445 6.3805L4.375 7.51275L7.2555 4.6305C7.33685 4.54915 7.43343 4.48461 7.53973 4.44058C7.64602 4.39656 7.75995 4.37389 7.875 4.37389C7.99005 4.37389 8.10398 4.39656 8.21027 4.44058C8.31657 4.48461 8.41315 4.54915 8.4945 4.6305C8.57585 4.71185 8.64039 4.80843 8.68442 4.91473C8.72844 5.02102 8.75111 5.13495 8.75111 5.25C8.75111 5.36505 8.72844 5.47898 8.68442 5.58527C8.64039 5.69157 8.57585 5.78815 8.4945 5.8695L4.9945 9.3695ZM4.9945 23.3695C4.91322 23.451 4.81666 23.5156 4.71036 23.5597C4.60405 23.6039 4.49009 23.6266 4.375 23.6266C4.25991 23.6266 4.14595 23.6039 4.03964 23.5597C3.93334 23.5156 3.83678 23.451 3.7555 23.3695L2.0055 21.6195C1.8412 21.4552 1.74889 21.2324 1.74889 21C1.74889 20.7676 1.8412 20.5448 2.0055 20.3805C2.1698 20.2162 2.39264 20.1239 2.625 20.1239C2.85736 20.1239 3.0802 20.2162 3.2445 20.3805L4.375 21.5128L7.2555 18.6305C7.4198 18.4662 7.64264 18.3739 7.875 18.3739C8.10736 18.3739 8.3302 18.4662 8.4945 18.6305C8.6588 18.7948 8.75111 19.0176 8.75111 19.25C8.75111 19.4824 8.6588 19.7052 8.4945 19.8695L4.9945 23.3695ZM12.25 18.375C12.25 18.1429 12.3422 17.9204 12.5063 17.7563C12.6704 17.5922 12.8929 17.5 13.125 17.5H25.375C25.6071 17.5 25.8296 17.5922 25.9937 17.7563C26.1578 17.9204 26.25 18.1429 26.25 18.375V20.125C26.25 20.3571 26.1578 20.5796 25.9937 20.7437C25.8296 20.9078 25.6071 21 25.375 21H13.125C12.8929 21 12.6704 20.9078 12.5063 20.7437C12.3422 20.5796 12.25 20.3571 12.25 20.125V18.375ZM12.25 9.625C12.25 9.39294 12.3422 9.17038 12.5063 9.00628C12.6704 8.84219 12.8929 8.75 13.125 8.75H21.875C22.1071 8.75 22.3296 8.84219 22.4937 9.00628C22.6578 9.17038 22.75 9.39294 22.75 9.625C22.75 9.85706 22.6578 10.0796 22.4937 10.2437C22.3296 10.4078 22.1071 10.5 21.875 10.5H13.125C12.8929 10.5 12.6704 10.4078 12.5063 10.2437C12.3422 10.0796 12.25 9.85706 12.25 9.625ZM12.25 23.625C12.25 23.3929 12.3422 23.1704 12.5063 23.0063C12.6704 22.8422 12.8929 22.75 13.125 22.75H21.875C22.1071 22.75 22.3296 22.8422 22.4937 23.0063C22.6578 23.1704 22.75 23.3929 22.75 23.625C22.75 23.8571 22.6578 24.0796 22.4937 24.2437C22.3296 24.4078 22.1071 24.5 21.875 24.5H13.125C12.8929 24.5 12.6704 24.4078 12.5063 24.2437C12.3422 24.0796 12.25 23.8571 12.25 23.625Z" fill="white"/>
</g>
<defs>
<clipPath id="clip0_559_2923">
<rect width="28" height="28" fill="white"/>
</clipPath>
</defs>
</svg>
