<svg width="28" height="28" viewBox="0 0 28 28" fill="none" xmlns="http://www.w3.org/2000/svg">
<g clip-path="url(#clip0_220_27641)">
<path d="M3.5 17.5H8.75C9.21413 17.5 9.65925 17.6844 9.98744 18.0126C10.3156 18.3408 10.5 18.7859 10.5 19.25V24.5C10.5 24.9641 10.3156 25.4092 9.98744 25.7374C9.65925 26.0656 9.21413 26.25 8.75 26.25H3.5C3.03587 26.25 2.59075 26.0656 2.26256 25.7374C1.93437 25.4092 1.75 24.9641 1.75 24.5V19.25C1.75 18.7859 1.93437 18.3408 2.26256 18.0126C2.59075 17.6844 3.03587 17.5 3.5 17.5ZM19.25 1.75H24.5C24.9641 1.75 25.4092 1.93437 25.7374 2.26256C26.0656 2.59075 26.25 3.03587 26.25 3.5V8.75C26.25 9.21413 26.0656 9.65925 25.7374 9.98744C25.4092 10.3156 24.9641 10.5 24.5 10.5H19.25C18.7859 10.5 18.3408 10.3156 18.0126 9.98744C17.6844 9.65925 17.5 9.21413 17.5 8.75V3.5C17.5 3.03587 17.6844 2.59075 18.0126 2.26256C18.3408 1.93437 18.7859 1.75 19.25 1.75ZM19.25 17.5C18.7859 17.5 18.3408 17.6844 18.0126 18.0126C17.6844 18.3408 17.5 18.7859 17.5 19.25V24.5C17.5 24.9641 17.6844 25.4092 18.0126 25.7374C18.3408 26.0656 18.7859 26.25 19.25 26.25H24.5C24.9641 26.25 25.4092 26.0656 25.7374 25.7374C26.0656 25.4092 26.25 24.9641 26.25 24.5V19.25C26.25 18.7859 26.0656 18.3408 25.7374 18.0126C25.4092 17.6844 24.9641 17.5 24.5 17.5H19.25ZM19.25 0C18.3217 0 17.4315 0.368749 16.7751 1.02513C16.1187 1.6815 15.75 2.57174 15.75 3.5V8.75C15.75 9.67826 16.1187 10.5685 16.7751 11.2249C17.4315 11.8813 18.3217 12.25 19.25 12.25H24.5C25.4283 12.25 26.3185 11.8813 26.9749 11.2249C27.6313 10.5685 28 9.67826 28 8.75V3.5C28 2.57174 27.6313 1.6815 26.9749 1.02513C26.3185 0.368749 25.4283 0 24.5 0L19.25 0ZM3.5 15.75C2.57174 15.75 1.6815 16.1187 1.02513 16.7751C0.368749 17.4315 0 18.3217 0 19.25L0 24.5C0 25.4283 0.368749 26.3185 1.02513 26.9749C1.6815 27.6313 2.57174 28 3.5 28H8.75C9.67826 28 10.5685 27.6313 11.2249 26.9749C11.8813 26.3185 12.25 25.4283 12.25 24.5V19.25C12.25 18.3217 11.8813 17.4315 11.2249 16.7751C10.5685 16.1187 9.67826 15.75 8.75 15.75H3.5ZM15.75 19.25C15.75 18.3217 16.1187 17.4315 16.7751 16.7751C17.4315 16.1187 18.3217 15.75 19.25 15.75H24.5C25.4283 15.75 26.3185 16.1187 26.9749 16.7751C27.6313 17.4315 28 18.3217 28 19.25V24.5C28 25.4283 27.6313 26.3185 26.9749 26.9749C26.3185 27.6313 25.4283 28 24.5 28H19.25C18.3217 28 17.4315 27.6313 16.7751 26.9749C16.1187 26.3185 15.75 25.4283 15.75 24.5V19.25ZM0 3.5C0 2.57174 0.368749 1.6815 1.02513 1.02513C1.6815 0.368749 2.57174 0 3.5 0L8.75 0C9.67826 0 10.5685 0.368749 11.2249 1.02513C11.8813 1.6815 12.25 2.57174 12.25 3.5V8.75C12.25 9.67826 11.8813 10.5685 11.2249 11.2249C10.5685 11.8813 9.67826 12.25 8.75 12.25H3.5C2.57174 12.25 1.6815 11.8813 1.02513 11.2249C0.368749 10.5685 0 9.67826 0 8.75V3.5ZM9.3695 4.9945C9.45085 4.91315 9.51539 4.81657 9.55942 4.71027C9.60344 4.60398 9.62611 4.49005 9.62611 4.375C9.62611 4.25995 9.60344 4.14602 9.55942 4.03973C9.51539 3.93343 9.45085 3.83685 9.3695 3.7555C9.28815 3.67415 9.19157 3.60961 9.08527 3.56558C8.97898 3.52156 8.86505 3.49889 8.75 3.49889C8.63495 3.49889 8.52102 3.52156 8.41473 3.56558C8.30843 3.60961 8.21185 3.67415 8.1305 3.7555L5.25 6.63775L4.1195 5.5055C4.03815 5.42415 3.94157 5.35961 3.83527 5.31558C3.72898 5.27156 3.61505 5.24889 3.5 5.24889C3.38495 5.24889 3.27102 5.27156 3.16473 5.31558C3.05843 5.35961 2.96185 5.42415 2.8805 5.5055C2.79915 5.58685 2.73461 5.68343 2.69058 5.78973C2.64656 5.89602 2.62389 6.00995 2.62389 6.125C2.62389 6.24005 2.64656 6.35398 2.69058 6.46027C2.73461 6.56657 2.79915 6.66315 2.8805 6.7445L4.6305 8.4945C4.71178 8.57599 4.80834 8.64064 4.91464 8.68475C5.02095 8.72886 5.13491 8.75156 5.25 8.75156C5.36509 8.75156 5.47905 8.72886 5.58536 8.68475C5.69166 8.64064 5.78822 8.57599 5.8695 8.4945L9.3695 4.9945Z" fill="white"/>
</g>
<defs>
<clipPath id="clip0_220_27641">
<rect width="28" height="28" fill="white"/>
</clipPath>
</defs>
</svg>
