<svg width="41" height="38" viewBox="0 0 41 38" fill="none" xmlns="http://www.w3.org/2000/svg">
<path d="M0 1.75C0 1.41848 0.141573 1.10054 0.393575 0.866116C0.645577 0.631696 0.987365 0.5 1.34375 0.5H5.375C5.67474 0.500077 5.96585 0.593377 6.20203 0.765062C6.43821 0.936747 6.6059 1.17696 6.67844 1.4475L7.76687 5.5H38.9687C39.1661 5.50017 39.3609 5.54076 39.5394 5.61888C39.718 5.697 39.8758 5.81074 40.0018 5.95201C40.1278 6.09328 40.2187 6.25863 40.2682 6.43629C40.3178 6.61396 40.3246 6.79959 40.2883 6.98L36.2571 26.98C36.1994 27.2664 36.036 27.5252 35.7951 27.7114C35.5541 27.8976 35.2508 27.9997 34.9375 28H10.75C10.4367 27.9997 10.1334 27.8976 9.89245 27.7114C9.6515 27.5252 9.48808 27.2664 9.43044 26.98L5.40187 7.0175L4.32687 3H1.34375C0.987365 3 0.645577 2.8683 0.393575 2.63388C0.141573 2.39946 0 2.08152 0 1.75ZM13.4375 28C12.012 28 10.6448 28.5268 9.6368 29.4645C8.62879 30.4021 8.0625 31.6739 8.0625 33C8.0625 34.3261 8.62879 35.5979 9.6368 36.5355C10.6448 37.4732 12.012 38 13.4375 38C14.863 38 16.2302 37.4732 17.2382 36.5355C18.2462 35.5979 18.8125 34.3261 18.8125 33C18.8125 31.6739 18.2462 30.4021 17.2382 29.4645C16.2302 28.5268 14.863 28 13.4375 28ZM32.25 28C30.8245 28 29.4573 28.5268 28.4493 29.4645C27.4413 30.4021 26.875 31.6739 26.875 33C26.875 34.3261 27.4413 35.5979 28.4493 36.5355C29.4573 37.4732 30.8245 38 32.25 38C33.6755 38 35.0427 37.4732 36.0507 36.5355C37.0587 35.5979 37.625 34.3261 37.625 33C37.625 31.6739 37.0587 30.4021 36.0507 29.4645C35.0427 28.5268 33.6755 28 32.25 28ZM13.4375 30.5C14.1503 30.5 14.8338 30.7634 15.3378 31.2322C15.8419 31.7011 16.125 32.337 16.125 33C16.125 33.663 15.8419 34.2989 15.3378 34.7678C14.8338 35.2366 14.1503 35.5 13.4375 35.5C12.7247 35.5 12.0412 35.2366 11.5372 34.7678C11.0331 34.2989 10.75 33.663 10.75 33C10.75 32.337 11.0331 31.7011 11.5372 31.2322C12.0412 30.7634 12.7247 30.5 13.4375 30.5ZM32.25 30.5C32.9628 30.5 33.6463 30.7634 34.1503 31.2322C34.6544 31.7011 34.9375 32.337 34.9375 33C34.9375 33.663 34.6544 34.2989 34.1503 34.7678C33.6463 35.2366 32.9628 35.5 32.25 35.5C31.5372 35.5 30.8537 35.2366 30.3496 34.7678C29.8456 34.2989 29.5625 33.663 29.5625 33C29.5625 32.337 29.8456 31.7011 30.3496 31.2322C30.8537 30.7634 31.5372 30.5 32.25 30.5Z" fill="white"/>
</svg>
