<svg width="53" height="52" viewBox="0 0 53 52" fill="none" xmlns="http://www.w3.org/2000/svg">
<path d="M53 26C53 32.8956 50.208 39.5088 45.2383 44.3848C40.2686 49.2607 33.5282 52 26.5 52C19.4718 52 12.7314 49.2607 7.76167 44.3848C2.79196 39.5088 0 32.8956 0 26C0 19.1044 2.79196 12.4912 7.76167 7.61522C12.7314 2.73928 19.4718 0 26.5 0C33.5282 0 40.2686 2.73928 45.2383 7.61522C50.208 12.4912 53 19.1044 53 26ZM28.1562 14.625C28.1562 14.194 27.9818 13.7807 27.6711 13.476C27.3605 13.1712 26.9393 13 26.5 13C26.0607 13 25.6395 13.1712 25.3289 13.476C25.0182 13.7807 24.8438 14.194 24.8438 14.625V33.4523L17.7351 26.4745C17.4241 26.1694 17.0023 25.9979 16.5625 25.9979C16.1227 25.9979 15.7009 26.1694 15.3899 26.4745C15.0789 26.7796 14.9042 27.1935 14.9042 27.625C14.9042 28.0565 15.0789 28.4704 15.3899 28.7755L25.3274 38.5255C25.4812 38.6768 25.664 38.7969 25.8652 38.8788C26.0664 38.9607 26.2821 39.0029 26.5 39.0029C26.7179 39.0029 26.9336 38.9607 27.1348 38.8788C27.336 38.7969 27.5188 38.6768 27.6726 38.5255L37.6101 28.7755C37.9211 28.4704 38.0958 28.0565 38.0958 27.625C38.0958 27.1935 37.9211 26.7796 37.6101 26.4745C37.2991 26.1694 36.8773 25.9979 36.4375 25.9979C35.9977 25.9979 35.5759 26.1694 35.2649 26.4745L28.1562 33.4523V14.625Z" fill="#D9D9D9"/>
</svg>
