<svg width="430" height="514" viewBox="0 0 430 514" fill="none" xmlns="http://www.w3.org/2000/svg">
<path d="M604.452 317.327C610.149 218.154 606.399 195.454 575.571 189.717C558.615 186.562 546.061 176.891 547.6 168.621C551.558 147.356 503.101 99.223 440.115 60.6099C407.3 39.8351 356.211 22.9935 286.626 11.2666C39.7766 -33.4485 -118.075 60.6332 -158.529 278.017C-177.437 379.62 -167.51 446.252 -129.184 488.833C-113.105 505.271 -109.8 513.22 -121.252 506.199C-154.067 485.424 -127.195 512.427 -91.9574 537.32C-0.118681 600.86 61.1039 631.811 124.303 643.572C176.492 654.506 185.301 658.59 160.64 662.557C142.585 665.309 135.54 668.887 146.33 670.895C182.885 680.143 373.339 633.688 436.965 600.302C530.534 551.707 595.9 440.414 604.452 317.327ZM507.569 323.744C484.447 319.441 483.346 316.792 505.143 311.069C525.399 305.06 521.215 301.837 488.845 295.813C464.182 291.223 446.784 281.874 448.103 274.785C449.422 267.696 463.955 266.734 480.251 273.433C496.547 280.133 507.557 280.96 504.032 274.192C500.287 268.606 509.313 262.951 522.524 260.52C540.359 258.95 545.206 267.186 540.369 293.178C535.532 319.169 526.066 327.186 507.569 323.744ZM450.797 457.416C449.913 445.028 440.881 433.569 433.174 432.134C423.926 430.413 419.963 434.565 423.708 440.152C427.233 446.919 420.188 450.498 407.857 448.203C395.525 445.908 388.478 440.929 393.542 439.427C398.825 436.743 391.336 425.571 377.46 414.432C356.757 397.134 358.519 396.239 393.532 405.2C446.603 419.965 465.984 435.795 460.046 459.137C455.206 476.572 453.665 476.285 450.797 457.416ZM468.772 172.287C461.722 158.752 455.116 159.967 445.213 178.904C433.329 199.917 428.484 200.238 410.864 183.513C398.53 172.661 390.379 156.476 391.918 148.206C395.655 128.122 362.625 125.642 335.327 143.787C322.558 152.412 313.089 151.872 308.243 143.636C303.396 135.4 315.943 119.399 335.537 108.378C365.919 90.8069 370.763 90.486 367.685 107.026C365.706 117.659 372.314 125 380.681 122.89C390.809 119.886 394.109 110.721 390.804 102.772C386.177 93.3545 387.938 92.4599 394.766 98.6199C401.374 105.961 405.561 117.742 404.242 124.83C402.703 133.1 415.257 142.771 432.212 145.926C482.42 158.936 485.283 160.692 482.425 176.05C480.446 186.683 477.363 186.109 468.772 172.287ZM407.209 494.532C397.301 496.355 396.639 491.342 403.022 482.751C417.77 463.493 429.219 461.957 426.141 478.497C424.822 485.586 417.117 492.708 407.209 494.532ZM368.243 523.951C361.416 517.791 357.229 506.01 358.987 496.559C361.626 482.382 364.709 482.955 381.007 498.212C401.051 519.055 390.928 539.173 368.243 523.951ZM371.114 551.377C367.149 546.972 342.268 552.12 316.069 564.358C260.147 590.621 228.437 581.053 217.634 536.261C207.494 496.481 238.093 469.172 282.795 477.491C308.999 482.367 382.781 540.102 380.362 553.098C379.483 557.823 374.858 556.963 371.114 551.377ZM355.373 173.186C347.665 171.752 340.398 167.955 340.838 165.592C341.497 162.048 350.304 157.575 358.67 155.465C368.579 153.642 374.305 157.152 373.205 163.059C371.886 170.148 364.621 174.907 355.373 173.186ZM332.275 254.452C321.483 243.888 302.104 236.614 289.113 237.864C264.672 240.649 365.938 281.324 391.918 270.268C398.963 266.69 302.534 200.024 296.59 206.252C288.886 213.374 298.137 223.652 320.379 232.681C341.079 241.423 356.496 252.848 355.177 259.937C353.418 269.388 345.931 266.772 332.275 254.452ZM310.925 283.483C298.593 281.188 293.307 275.315 299.031 270.268C304.754 265.221 282.065 283.448 289.113 288.426C307.173 302.788 337.129 288.359 310.925 283.483ZM324.742 89.2559C317.694 84.2773 306.907 90.8262 299.644 104.143C287.979 123.974 283.135 124.295 263.974 107.284C244.812 90.2718 247.013 87.0144 272.773 77.14C310.202 64.5478 343.012 68.2089 339.714 85.9304C338.615 91.8375 331.789 94.2344 324.742 89.2559ZM155.112 580.854C146.745 582.964 141.459 577.09 143.218 567.639C144.977 558.188 152.022 554.609 159.07 559.588C164.576 564.28 169.862 570.153 169.422 572.516C168.983 574.878 161.937 578.457 155.112 580.854ZM151.248 155.98C101.922 146.801 90.2504 140.961 98.8346 129.113C106.759 120.809 112.261 108.387 113.36 102.48C114.459 96.5726 130.753 94.7154 150.572 99.6259C182.942 105.65 182.722 106.831 151.676 110.833C128.777 113.905 125.034 116.876 141.77 121.213C153.662 125.87 170.618 129.026 177.003 128.992C184.93 129.244 183.831 135.152 176.346 141.093C166.66 150.291 172.606 152.62 196.387 153.379C215.764 152.095 227.876 155.572 222.152 160.618C218.19 164.77 185.16 162.291 151.248 155.98ZM157.614 87.4907C152.99 86.6301 146.162 80.4701 142.857 72.521C139.332 65.7533 143.514 60.4198 151.222 61.8541C160.47 63.5752 167.078 70.9166 165.979 76.8238C164.66 83.9124 160.697 88.0644 157.614 87.4907ZM34.2132 536.353C22.0992 524.32 6.68236 512.894 -2.34639 509.992C-33.8371 499.242 -64.2334 465.471 -75.253 430.417C-88.2586 380.325 -82.0977 364.359 -60.9501 396.409C-50.8172 410.518 -41.1264 418.433 -40.247 413.707C-39.1477 407.8 -18.8867 418.904 3.13795 437.671C26.7041 456.725 45.8633 465.18 47.1824 458.091C48.5016 451.003 56.6485 450.074 66.5591 456.808C79.1129 466.478 78.4533 470.022 63.9208 470.985C49.3883 471.948 49.6106 479.323 61.7271 499.913C71.6401 515.204 74.2881 535.254 67.9049 543.845C57.5595 556.588 52.9352 555.727 34.2132 536.353ZM71.0888 123.95C71.3135 139.882 64.2683 143.46 49.7334 135.866C38.0615 130.027 28.1533 131.85 26.8341 138.939C25.515 146.027 20.451 147.53 15.1646 141.657C8.33689 135.497 16.4814 126.011 31.6734 121.504C47.0854 115.816 59.8541 107.191 62.7147 100.389C63.814 94.4819 74.3818 89.1144 87.153 89.0464C101.466 89.2652 101.246 90.4466 89.1366 95.5272C79.0085 98.5319 70.2045 111.562 71.0888 123.95ZM-17.3938 248.054C-24.439 251.632 -25.101 246.619 -20.2593 237.742C-2.34639 270.268 80.12 229.574 71.0888 218.114C53.2463 194.014 -20.286 143.616 3.50001 161.488C19.1367 171.732 3.52185 238.5 -17.3938 248.054ZM-37.8455 340.813C-48.6331 347.362 -68.4495 351.008 -79.2396 349C-91.5711 346.706 -89.1502 342.267 -69.114 337.439C-54.1417 334.113 -39.172 322.231 -37.6329 313.961C-35.8741 304.51 -63.1729 312.527 -55.4658 313.961C-35.4271 317.69 -9.44494 325.318 -37.8455 340.813ZM-63.1826 288.426C-76.1737 289.676 -23.777 281.81 -17.3938 273.219C-63.1826 289.083 -56.3646 260.359 -45.1348 260.004C-32.1438 258.755 -26.8575 264.628 -33.2406 273.219C-37.8625 280.915 -51.9529 288.072 -63.1826 288.426ZM-49.5441 240.848C-53.5089 236.443 -53.0716 225.524 -46.9083 218.114C-40.5251 209.523 -36.5603 213.928 -38.9788 226.924C-39.8558 240.206 -45.7993 246.435 -49.5441 240.848ZM-71.7595 325.945C-79.4667 324.511 -70.4331 321.05 -69.114 313.961C-68.0147 308.054 -75.5093 303.245 -68.4617 308.224C-59.8726 313.489 -54.8062 320.544 -55.4658 324.088C-55.9055 326.451 -62.5109 327.667 -71.7595 325.945Z" fill="#5A430B"/>
</svg>
