<svg width="699" height="697" viewBox="0 0 699 697" fill="none" xmlns="http://www.w3.org/2000/svg">
<path d="M665.846 547.5C667.054 532.264 666.649 523.509 664.278 508.556C662.815 498.926 662.605 494.954 663.873 493.969C666.123 492.082 665.096 489.586 662.081 489.025C660.77 488.781 658.999 487.366 658.039 485.967C655.978 482.464 643.655 448.842 643.948 447.269C644.07 446.613 641.631 442.227 638.455 437.431C635.303 432.505 631.773 426.694 630.566 424.435C629.359 422.176 627.661 420.368 626.694 420.46C625.835 420.707 623.933 419.268 622.39 417.353C620.159 414.768 620.241 415.055 622.622 419.024C624.436 421.667 625.249 423.853 624.463 423.706C622.628 423.365 610.311 437.076 610.936 438.82C612.399 442.618 616.64 440.966 622.2 434.406L627.965 427.477L633.178 435.907L638.284 444.18L634.159 446.668C631.9 447.875 629.044 449.378 627.742 449.814C624.721 450.743 625.144 455.026 628.159 455.587C629.339 455.807 632.647 454.795 635.479 453.423C638.335 451.921 640.807 451.024 641.021 451.335C641.234 451.646 642.905 457.246 644.797 463.837C646.69 470.428 649.814 479.147 651.753 483.305C654.661 489.542 654.941 490.951 653.067 491.551C647.86 493.295 643.924 496.224 644.598 497.706C645.494 500.178 650.917 500.916 653.322 498.922C654.435 498.045 655.785 497.347 656.441 497.469C657.752 497.712 660.385 518.546 659.884 524.149C659.439 527.999 658.997 528.188 650.824 529.108C645.55 529.754 641.956 530.849 641.737 532.028C641.127 535.305 643.806 536.211 651.479 535.062C655.525 534.459 659.186 534.462 659.637 534.953C660.679 536.638 655.66 567.983 652.919 576.152L650.276 583.798L642.877 582.014C637.159 580.679 635.381 580.755 635.113 582.197C634.747 584.163 636.198 585.111 643.926 588.041C647.605 589.404 648.532 590.254 647.69 591.861C647.209 592.992 645.306 597.385 643.715 601.564C641.992 605.719 640.343 609.481 639.983 609.956C639.648 610.301 636.517 608.904 633.091 606.91C629.689 604.785 626.451 603.234 626.116 603.578C624.095 604.965 626.442 608.386 631.344 611.196C635.901 613.672 636.541 614.605 635.742 617.44C634.7 621.586 619.813 642.549 618.24 642.257C617.584 642.135 615.1 640.181 612.82 637.857C608.473 633.522 604.187 631.775 603.748 634.135C603.602 634.921 606.177 637.842 609.302 640.729C612.558 643.64 615.002 646.537 614.856 647.323C614.514 649.158 604.292 661.089 602.524 661.845C601.796 662.117 599.287 660.294 597.055 657.708C590.919 650.599 590.099 649.904 589.166 650.544C587.301 651.824 589.346 656.138 594.144 660.964C599.18 665.97 599.18 665.97 596.506 669.405C594.912 671.414 593.284 672.874 592.759 672.777C592.235 672.679 589.132 667.491 585.831 661.18C577.241 644.663 568.675 633.847 546.359 611.656C530.349 595.657 511.431 573.42 511.788 570.774C511.705 570.488 508.913 565.086 505.326 558.858C501.738 552.629 496.169 541.014 492.767 533.058C489.365 525.101 484.126 514.632 480.998 509.575C473.438 497.725 452.122 470.16 441.828 459.158C437.423 454.405 431.098 446.853 427.873 442.32C424.647 437.787 423.032 436.266 424.477 438.705C425.897 441.275 424.224 439.336 420.761 434.623C414.18 425.532 412.43 421.816 418.469 429.449C420.307 431.961 418.566 428.925 414.454 422.599C410.342 416.273 403.298 403.841 398.838 395.01C394.379 386.178 388.361 376.243 385.465 372.856C374.842 360.707 370.968 354.561 372.718 352.446C374.288 350.568 387.314 346.889 394.185 346.405C397.502 346.073 397.478 346.204 393.704 347.536C387.326 349.74 388.826 350.426 395.572 348.426C398.88 347.414 405.955 346.561 411.132 346.439C422.926 346.464 422.664 346.415 422.225 348.775C421.566 352.314 424.02 361.722 425.971 362.899C429.242 364.999 429.535 363.426 427.508 354.64L425.563 346.141L433.916 344.983C441.565 343.965 442.113 343.932 441.699 346.16C440.845 350.748 442.786 362.908 444.606 364.061C447.664 365.85 448.063 364.433 447.033 353.934C446.491 346.645 446.634 343.688 447.936 343.252C450.719 342.143 472.318 341.958 473.065 343.046C473.36 343.644 473.342 348.116 472.832 353.039C472.122 360.502 472.353 362.172 474.378 362.956C476.639 363.919 476.892 363.288 477.838 353.835L478.774 343.702L484.542 344.775C487.688 345.361 493.776 346.9 498.159 348.123L505.985 350.529L504.838 356.689C503.765 362.457 504.685 364.798 508.093 365.433C508.356 365.481 509.179 362.515 509.886 358.714L511.13 352.029L524.33 355.434C539.365 359.182 560.533 367.868 576.5 376.807C587.542 383.066 605.679 397.833 605.216 400.324C605.07 401.11 602.625 404.046 599.917 406.933C594.372 412.682 593.034 416.23 595.829 417.971C598.042 419.196 600.423 417.334 606.154 409.856C608.313 407.003 610.218 404.781 610.48 404.83C610.874 404.903 612.867 407.308 615.181 410.18C617.388 412.896 619.003 414.417 618.494 413.509C618.165 412.363 618.549 411.756 619.598 411.951C621.72 412.21 613.63 401.754 605.067 393.108C595.84 383.66 587.707 377.807 571.846 369.024C543.231 352.984 511.445 342.322 475.333 336.687C453.476 333.162 452.403 333.098 431.536 335.182C419.784 336.386 405.861 337.592 400.53 337.821C383.543 338.728 364.664 344.709 363.761 349.559C363.298 352.049 380.649 378.334 383.008 378.773C383.532 378.871 390.092 390.263 397.393 404.234C413.783 434.951 417.73 440.704 434.341 458.578C441.452 466.276 451.338 478.016 456.237 484.488C461.242 491.116 468.003 499.969 471.277 504.24C474.551 508.511 477.169 512.66 477.047 513.315C476.901 514.102 475.343 512.998 473.718 510.797C471.938 508.703 473.407 511.01 476.821 515.986C480.26 520.83 482.64 524.799 482.116 524.701C481.592 524.604 482.668 526.838 484.457 529.613C486.14 532.231 489.417 538.673 491.602 543.691C493.657 548.684 495.915 553.309 496.629 553.849C497.342 554.388 499.305 558.415 500.933 562.787C505.608 574.1 514.454 586.325 526.617 598.217C532.473 603.918 538.731 610.372 540.463 612.729C542.219 614.954 543.276 615.829 542.947 614.683C542.618 613.537 544.054 615.296 546.27 618.692C548.355 622.063 549.684 623.667 548.986 622.316C546.883 617.585 550.105 619.948 557.488 628.374C566.413 638.715 572.781 647.495 572.168 648.601C571.915 649.232 574.698 653.955 578.301 659.372C581.904 664.789 586.821 672.621 589.308 676.746C594.521 685.175 600.423 688.443 601.349 683.462C601.789 681.102 601.551 680.923 600.209 682.3C598.713 683.785 598.581 683.761 598.899 682.057C599.094 681.008 600.091 679.295 600.941 678.368C602.438 676.883 602.569 676.908 602.383 678.636C602.188 679.685 603.014 678.889 604.109 676.652C605.203 674.414 610.551 667.543 615.931 661.221C633.93 640.294 644.327 623.784 651.918 604.854C654.22 599.043 656.473 593.495 657.061 592.52C659.055 589.093 665.074 558.207 665.846 547.5ZM577.503 656.375C577.24 656.326 575.96 654.461 574.491 652.153L572.028 647.897L575.113 651.726C577.829 655.351 578.551 656.57 577.503 656.375ZM480.751 520.379C480.488 520.33 479.422 518.775 478.272 516.934L476.343 513.455L478.894 516.507C481.208 519.379 481.799 520.574 480.751 520.379Z" fill="#5A430B"/>
<path d="M629.298 546.395C626.881 545.539 626.222 543.246 624.854 530.921C623.038 514.444 622.554 501.741 623.554 496.367C623.944 494.269 623.722 493.279 623.051 493.967C622.356 494.787 620.853 491.931 619.241 486.748C617.818 482.008 617.107 477.807 617.729 477.38C618.376 476.823 618.113 476.774 617.254 477.021C616.394 477.268 612.977 470.122 609.13 460.184C605.497 450.556 602.013 442.313 601.431 441.798C600.873 441.152 600.559 439.195 600.925 437.228C601.209 434.976 601.02 434.534 600.382 435.771C599.468 437.771 598.968 437.542 595.596 433.796C593.578 431.521 588.134 427.253 583.781 424.409C579.321 421.409 576.541 418.857 577.532 418.635C578.654 418.437 577.809 417.873 575.581 417.458C573.508 416.937 569.131 414.223 565.851 411.443C562.702 408.687 557.888 404.672 555.297 402.562C552.706 400.452 550.295 398.105 550.024 397.376C549.752 396.648 549.194 396.002 548.908 396.084C548.597 396.297 543.811 394.322 538.263 392.069C528.846 388.011 492.174 379.559 494.823 382.086C495.536 382.625 486.51 382.302 475.017 381.384C463.369 380.572 453.784 379.602 453.571 379.292C453.489 379.005 455.214 377.02 457.513 374.871C459.812 372.722 462.494 369.967 463.418 368.647C464.497 367.22 464.055 367.409 462.247 369.107C451.867 378.974 451.425 379.163 437.588 376.995C425.717 375.193 425.038 375.202 428.415 377.458C434.433 381.562 451.376 385.257 470.822 386.435C525.786 389.882 539.199 393.599 558.208 410.97C562.842 415.223 571.639 421.878 577.788 426.006C591.905 435.414 597.392 440.911 597.858 446.422C598.099 448.773 598.583 449.812 598.778 448.764C599.105 447.739 600.409 449.474 601.577 452.675C604.174 459.126 604.177 461.296 602.085 459.415C601.265 458.72 602.21 460.93 604.32 464.171C612.733 477.264 618.533 496.382 616.85 505.426C616.191 508.966 616.341 510.35 617.322 509.447C618.197 508.389 618.536 510.216 618.279 514.508C618.014 518.12 618.44 524.574 619.102 529.037C619.788 533.369 619.751 536.481 619.169 535.966C618.611 535.32 618.818 537.121 619.821 539.749C621.918 545.971 621.652 555.415 619.027 558.589C617.637 560.229 617.54 560.753 618.686 560.424C621.756 559.232 614.844 583.985 611.228 587.381C610.557 588.07 607.82 592.578 605.164 597.374C601.545 604.431 600.387 607.741 600.271 612.738C600.136 616.374 600.557 618.487 600.965 617.749C601.529 616.905 602.987 616.362 604.429 616.631C605.739 616.875 607.065 616.308 607.261 615.259C607.431 614.341 610.511 607.998 614.056 601.334C620.029 590.375 621.007 587.302 624.343 570.835C626.499 559.979 628.92 551.343 629.999 549.916C631.904 547.694 631.716 547.252 629.298 546.395ZM627.591 549.739C626.862 550.011 626.256 549.626 626.378 548.971C626.524 548.185 627.301 547.651 627.957 547.773C628.743 547.919 629.219 548.279 629.17 548.541C629.097 548.935 628.451 549.492 627.591 549.739Z" fill="#5A430B"/>
<path d="M574 381.495C572.851 379.654 571.074 379.73 570.732 381.565C570.561 382.483 568.845 385.147 566.891 387.631C562.672 392.814 561.604 397.09 564.357 397.603C568.29 398.335 576.478 384.94 574 381.495Z" fill="#5A430B"/>
<path d="M539.142 364.022C537.033 360.782 535.021 362.849 532.722 370.829C530.594 377.893 530.432 379.49 532.13 381.298C533.959 383.13 533.755 383.499 529.661 384.364C527.262 384.867 525.362 385.599 525.707 385.934C525.92 386.245 527.984 386.087 530.432 385.322C534.026 384.227 534.901 383.17 536.679 377.262C539.517 368.568 540.127 365.291 539.142 364.022Z" fill="#5A430B"/>
<path d="M406.085 568.871C407.037 557.927 406.821 555.445 404.199 554.957C402.757 554.689 401.724 553.683 401.895 552.766C402.334 550.406 398.395 545.333 393.164 541.376C390.442 539.242 386.132 537.626 380.209 536.659C359.211 532.888 345.212 543.98 340.723 568.1C338.626 579.373 339.168 586.662 342.262 591.17C343.566 592.905 343.813 593.765 342.862 593.045C340.14 590.911 342.323 593.759 345.234 596.335C352.827 602.901 357.942 606.023 363.317 607.023C367.749 607.984 368.487 608.392 366.35 608.944C364.786 609.331 364.164 609.758 365.082 609.929C368.179 610.776 384.757 604.775 390.378 600.803C398.643 595.017 404.777 582.461 406.085 568.871ZM397.733 570.029C395.766 569.663 395.684 569.376 397.583 568.645C399.351 567.889 399.007 567.553 396.254 567.041C394.157 566.651 392.706 565.703 392.852 564.916C392.999 564.13 394.252 563.956 395.62 564.618C396.989 565.279 397.931 565.319 397.66 564.59C397.364 563.993 398.166 563.328 399.312 562.999C400.852 562.743 401.23 563.627 400.693 566.511C400.156 569.395 399.306 570.322 397.733 570.029ZM392.233 585.009C392.214 583.649 391.492 582.43 390.836 582.308C390.05 582.161 389.69 582.637 389.986 583.234C390.257 583.963 389.635 584.39 388.587 584.195C387.538 583.999 386.956 583.484 387.398 583.295C387.864 582.975 387.273 581.78 386.133 580.619C384.435 578.811 384.59 578.704 387.556 579.527C392.047 580.905 393.638 582.558 393.019 585.155C392.522 587.097 392.391 587.073 392.233 585.009ZM395.106 553.536C394.563 552.079 393.99 552.244 393.051 554.375C391.932 556.743 391.514 556.801 390.079 555.042C389.07 553.905 388.445 552.161 388.616 551.244C389.03 549.015 386.204 548.896 383.775 551.021C382.637 552.03 381.827 552.015 381.449 551.131C381.071 550.247 382.223 548.427 383.958 547.122C386.65 545.046 387.067 544.988 386.726 546.823C386.506 548.003 387.04 548.78 387.768 548.509C388.652 548.131 388.979 547.107 388.732 546.247C388.378 545.232 388.534 545.125 389.091 545.772C389.625 546.549 389.93 547.826 389.783 548.613C389.612 549.531 390.646 550.537 392.088 550.805C396.34 552.003 396.578 552.183 396.261 553.887C396.041 555.067 395.779 555.018 395.106 553.536ZM388.315 589.298C387.455 589.545 387.422 588.996 388.01 588.02C389.367 585.832 390.358 585.609 390.016 587.444C389.87 588.231 389.175 589.051 388.315 589.298ZM384.83 592.718C384.273 592.072 383.968 590.794 384.163 589.746C384.456 588.173 384.718 588.221 386.047 589.825C387.672 592.026 386.708 594.288 384.83 592.718ZM384.949 595.724C384.629 595.257 382.468 595.94 380.16 597.409C375.234 600.561 372.554 599.656 371.835 594.775C371.149 590.443 373.905 587.294 377.706 588.002C379.935 588.416 386.004 594.428 385.736 595.87C385.638 596.394 385.245 596.321 384.949 595.724ZM385.36 554.164C384.704 554.042 384.098 553.658 384.146 553.396C384.22 553.002 384.997 552.469 385.726 552.198C386.585 551.951 387.061 552.311 386.939 552.966C386.792 553.753 386.146 554.31 385.36 554.164ZM382.997 563.218C382.119 562.105 380.488 561.395 379.366 561.593C377.253 562.013 377.683 558.974 379.967 557.636C380.589 557.209 380.695 557.365 380.156 558.078C379.461 558.898 380.207 559.986 382.076 560.877C383.814 561.742 385.085 562.928 384.939 563.715C384.743 564.763 384.112 564.51 382.997 563.218ZM381.027 566.513C379.979 566.318 379.552 565.696 380.067 565.114C380.582 564.532 381.524 564.571 382.106 565.086C383.591 566.583 383.256 566.928 381.027 566.513ZM383.119 545.067C382.537 544.552 381.58 545.323 380.894 546.823C379.799 549.061 379.382 549.119 377.815 547.335C376.248 545.552 376.452 545.183 378.711 543.976C381.986 542.415 384.787 542.665 384.421 544.631C384.299 545.287 383.702 545.582 383.119 545.067ZM366.256 599.975C365.527 600.247 365.1 599.625 365.296 598.576C365.491 597.527 366.113 597.101 366.695 597.616C367.146 598.107 367.573 598.729 367.524 598.991C367.475 599.253 366.853 599.68 366.256 599.975ZM367.904 553.221C363.71 552.441 362.734 551.852 363.527 550.508C364.246 549.557 364.777 548.164 364.899 547.508C365.021 546.853 366.429 546.572 368.109 547.021C370.861 547.533 370.837 547.664 368.151 548.249C366.17 548.694 365.834 549.039 367.252 549.438C368.252 549.895 369.694 550.164 370.243 550.13C370.922 550.121 370.8 550.776 370.13 551.465C369.255 552.523 369.755 552.752 371.794 552.724C373.465 552.493 374.489 552.819 373.974 553.401C373.614 553.877 370.788 553.758 367.904 553.221ZM368.77 545.652C368.377 545.579 367.819 544.932 367.572 544.073C367.301 543.344 367.685 542.738 368.341 542.859C369.127 543.006 369.661 543.783 369.539 544.439C369.392 545.225 369.032 545.701 368.77 545.652ZM356.077 595.64C355.093 594.372 353.821 593.186 353.059 592.908C350.404 591.872 347.95 588.296 347.167 584.488C346.283 579.035 346.887 577.248 348.554 580.678C349.359 582.184 350.155 583.01 350.252 582.486C350.374 581.83 352.063 582.958 353.868 584.922C355.803 586.909 357.41 587.751 357.556 586.964C357.702 586.178 358.407 586.037 359.227 586.733C360.26 587.739 360.187 588.132 358.934 588.306C357.681 588.479 357.666 589.29 358.611 591.5C359.391 593.137 359.525 595.332 358.937 596.308C357.989 597.759 357.595 597.686 356.077 595.64ZM361.167 550.069C361.112 551.822 360.49 552.248 359.277 551.48C358.302 550.892 357.442 551.139 357.296 551.925C357.149 552.712 356.707 552.901 356.28 552.279C355.723 551.632 356.466 550.55 357.793 549.983C359.143 549.285 360.28 548.276 360.558 547.514C360.68 546.859 361.612 546.219 362.71 546.152C363.938 546.109 363.914 546.24 362.85 546.856C361.966 547.234 361.149 548.709 361.167 550.069ZM352.988 564.143C352.366 564.57 352.332 564.021 352.789 563.021C353.378 562.046 353.195 560.113 352.473 558.894C351.052 556.324 353.226 552.66 355.186 554.516C356.481 555.571 354.829 562.994 352.988 564.143ZM350.798 574.45C349.841 575.221 348.122 575.715 347.204 575.544C346.155 575.349 346.384 574.849 348.128 574.224C349.43 573.788 350.771 572.411 350.942 571.493C351.137 570.444 351.963 569.649 352.618 569.771C354.322 570.088 353.31 572.612 350.798 574.45ZM348.866 568.801C347.744 568.999 347.317 568.377 347.906 567.402C348.339 566.533 349.582 565.679 350.549 565.588C351.671 565.39 352.097 566.012 351.509 566.987C351.076 567.856 349.832 568.71 348.866 568.801ZM350.259 563.5C349.939 563.033 350.028 561.829 350.592 560.985C351.18 560.009 351.5 560.476 351.232 561.918C351.094 563.384 350.555 564.097 350.259 563.5ZM347.954 572.971C347.299 572.849 346.765 572.072 346.912 571.285C347.034 570.63 347.738 570.49 348.32 571.005C349.033 571.545 349.436 572.298 349.363 572.691C349.314 572.953 348.741 573.118 347.954 572.971Z" fill="#5A430B"/>
<path d="M308.605 427.314C310.206 400.487 307.525 374.084 300.42 347.401C292.822 318.998 281.723 294.826 264.964 269.737C251.085 248.845 248.903 245.997 246.543 245.558C245.233 245.314 244.306 244.464 244.477 243.546C244.647 242.629 243.998 241.016 243.12 239.903C241.816 238.169 241.816 238.169 242.867 240.534C244.879 244.299 243.01 243.409 237.31 237.601C229.198 229.446 206.415 213.407 194.621 207.551C181.351 200.877 163.74 194.209 155.351 192.648C151.943 192.014 149.026 190.928 148.754 190.2C147.751 187.572 107.588 184.031 86.703 184.755C66.0801 185.529 35.5008 188.789 33.9795 190.405C33.3088 191.094 32.0315 191.398 31.0316 190.941C27.3766 189.447 28.812 197.038 33.5064 203.879C36.1736 207.766 40.0417 215.402 42.1541 220.814C44.3975 226.249 51.5789 243.046 58.111 258.231C64.6188 273.547 72.6963 292.817 75.8694 301.273C82.6179 318.939 91.8264 338.691 96.0604 344.361C97.6852 346.562 98.1698 347.602 97.1364 346.596C95.6519 345.099 95.6031 345.361 97.0236 347.931C97.8039 349.568 100.8 354.601 103.477 359.168C106.153 363.735 111.173 375.383 114.676 384.986C118.153 394.72 124.612 410.298 128.974 419.654C133.336 429.01 139.539 443.048 142.859 450.718C151.659 471.207 167.049 501.467 171.249 506.589C174.999 511.22 176.184 515.78 172.6 511.723C170.819 509.628 170.664 509.735 172.002 512.018C172.676 513.5 173.865 514.399 174.569 514.259C175.166 513.963 176.34 515.674 177.081 518.253C177.952 520.856 177.971 522.216 177.151 521.521C176.117 520.514 176.02 521.039 176.678 523.331C177.327 524.944 178.263 526.474 179.049 526.621C179.836 526.767 179.845 527.447 179.33 528.029C178.79 528.742 178.955 529.315 179.741 529.462C180.528 529.608 180.668 530.312 180.153 530.895C179.613 531.608 179.778 532.181 180.564 532.327C181.351 532.474 181.646 533.071 180.976 533.76C179.61 535.269 183.798 549.204 185.764 549.57C186.551 549.716 186.74 550.158 186.249 550.609C185.651 550.905 186.087 552.207 187.203 553.499C188.401 555.079 188.483 555.365 187.27 554.597C186.319 553.877 186.459 554.582 187.575 555.874C188.797 557.322 189.282 558.362 188.757 558.264C188.102 558.142 188.465 559.837 189.385 562.178C190.33 564.389 193.134 572.641 195.618 580.427C198.926 591.078 199.66 595.148 198.367 596.264C197.124 597.117 198.066 597.157 201.062 596.358C204.788 595.289 205.992 595.377 207.558 597.16C208.567 598.298 209.15 598.813 208.854 598.215C208.558 597.618 211.192 595.124 214.793 592.539C224.816 585.318 254.653 553.981 265.519 539.322C277.128 523.58 288.24 503.948 294.844 487.411C300.509 473.004 307.65 441.919 308.605 427.314ZM292.533 437.885C284.143 436.324 281.089 436.705 280.625 439.195C280.357 440.637 282.512 441.445 289.329 442.714L298.504 444.421L295.483 457.014C293.797 463.889 292.101 470.083 291.455 470.641C290.94 471.223 287.245 470.671 283.148 469.366C275.323 466.961 272.326 467.759 274.551 471.835C275.356 473.341 278.249 474.557 282.837 475.411C286.769 476.143 289.842 477.122 289.72 477.777C289.281 480.137 278.074 502.463 276.986 503.21C276.208 503.743 274.053 502.935 272.044 501.341C270.035 499.747 267.453 498.317 266.273 498.097C262.472 497.39 264.246 500.975 269.502 504.801C275.363 509.011 275.617 508.38 263.934 524.515C256.748 534.706 255.791 535.477 253.651 533.858C252.356 532.803 250.774 531.831 249.987 531.684C247.496 531.221 247.755 534.931 250.273 537.434C252.816 539.806 252.685 539.781 243.819 549.524C233.048 561.488 218.153 575.941 216.973 575.721C216.58 575.648 214.62 573.791 212.864 571.566C206.563 563.883 204.036 566.532 210.181 574.321C213.348 578.437 213.784 579.739 212.205 580.937C211.092 581.815 208.824 582.342 207.251 582.049C205.547 581.732 203.828 582.226 203.264 583.07C202.855 583.808 200.965 579.388 199.286 573.108C188.661 535.462 180.117 510.68 174.124 500.614C164.33 484.009 149.562 453.322 138.485 426.849C132.971 413.481 126.701 398.345 124.433 393.04C122.297 387.76 117.325 375.85 113.487 366.591C109.519 357.309 103.679 344.965 100.435 339.072C90.7968 322.36 86.6726 313.184 80.4241 295.747C77.3242 286.897 72.624 275.715 70.283 270.804C65.7991 262.103 56.9747 241.745 48.1321 220.027C45.5108 213.708 41.9048 206.12 39.9844 203.321C36.2747 197.749 36.0187 196.209 38.6403 196.697C39.689 196.892 49.4349 196.265 60.5893 195.357C71.6126 194.424 80.8343 193.699 81.2275 193.772C81.4897 193.821 81.9926 196.22 82.2424 199.251C82.9707 204.811 85.3026 209.042 86.9793 207.32C87.4946 206.738 87.5557 203.494 87.1412 199.891L86.4526 193.389L91.6777 193.005C94.5524 192.862 99.7287 192.74 103.21 192.981C109.411 193.185 109.411 193.185 108.679 197.118C107.971 200.919 109.352 204.431 111.712 204.87C112.367 204.992 113.117 202.419 113.465 199.094C113.898 192.393 113.038 192.64 129.872 194.009L137.466 194.744L135.98 204.911C134.788 213.505 134.864 215.282 136.757 216.041C138.65 216.8 139.132 215.669 140.888 206.231L142.864 195.614L150.976 197.937C155.36 199.159 161.268 200.937 164.209 201.891L169.462 203.547L166.422 208.949C163.13 214.981 163.151 218.511 166.166 219.073C168.263 219.463 170.641 215.43 172.099 209.056C173.083 204.492 174.656 204.785 187.606 210.992L197.187 215.623L193.888 223.147C190.614 230.539 190.693 234.487 193.97 235.097C195.543 235.389 199.961 225.497 200.217 221.205L200.351 217.568L207.68 221.916C216.828 227.416 229.536 237.104 230.399 239.028C230.646 239.887 228.414 243.134 225.503 246.39C220.375 252.081 219.079 256.858 222.814 256.468C223.673 256.221 226.774 253.407 229.423 250.103C232.228 246.692 235.148 244.116 235.935 244.262C237.901 244.628 256.038 265.227 255.77 266.669C255.673 267.194 253.112 269.294 250.158 271.321C244.765 274.793 242.42 279.375 245.435 279.936C246.353 280.107 249.938 278.333 253.514 275.879L259.864 271.636L267.317 283.33C271.511 289.942 274.779 295.704 274.657 296.359C274.535 297.015 272.014 298.173 268.993 299.103C261.1 301.431 258.646 303.687 260.78 306.797C262.274 308.973 263.24 308.882 270.337 305.727L278.007 302.408L280.372 307.188C283.731 313.916 290.193 331.664 289.571 332.091C289.261 332.304 286.239 333.234 282.932 334.246C273.32 337.068 274.792 341.547 284.675 339.453C287.492 338.892 290.416 338.487 291.071 338.609C291.858 338.755 293.034 342.636 293.802 347.254C294.57 351.873 295.615 355.729 296.271 355.851C296.926 355.973 296.756 356.891 296.118 358.128C295.195 359.448 295.384 359.89 296.71 359.323C298.167 358.781 298.2 359.329 297.13 361.436C296.264 363.173 296.249 363.984 297.133 363.606C298.435 363.171 299.676 365.978 299.188 368.6C299.066 369.255 296.749 370.045 294.112 370.368C288.969 371.038 288.454 371.62 289.752 374.846C290.508 376.614 291.533 376.94 295.554 376.468C301.09 375.871 301.032 375.453 302.006 393.536C302.308 398.475 302.61 403.414 302.783 404.666C302.99 406.468 301.713 406.773 296.897 406.419C293.546 406.202 290.254 406.403 289.788 406.724C287.766 408.111 290.988 410.473 296.863 411.702L302.975 413.111L302.499 418.583C302.2 421.646 301.389 427.463 300.739 431.682L299.611 439.202L292.533 437.885ZM250.015 250.951C249.753 250.902 248.9 249.659 248.202 248.308C246.888 245.894 247.043 245.787 248.824 247.881C250.604 249.976 251.064 251.146 250.015 250.951Z" fill="#5A430B"/>
<path d="M265.802 416.092C266.126 389.571 258.943 353.108 248.67 328.14C238.916 304.761 224.135 282.888 208.44 268.846C198.328 259.776 195.213 257.569 184.04 251.285C180.959 249.627 177.639 247.788 176.663 247.2C174.237 245.664 174.868 245.917 163.199 241.575C152.898 237.895 152.66 237.715 155.483 235.664C156.931 234.441 160.23 232.75 162.571 231.829C165.068 230.802 166.312 229.948 165.394 229.778C164.608 229.631 161.071 231.143 157.437 233.179L151.078 236.743L136.043 232.995C127.727 231.041 120.057 228.529 118.737 227.605C117.335 226.395 116.811 226.297 117.164 227.312C117.518 228.327 113.595 228.275 105.812 227.098C94.4656 225.394 93.9656 225.165 95.0845 222.796C95.926 221.19 95.3285 221.486 93.5785 223.601C92.0329 225.348 90.1672 226.628 89.3807 226.482C88.5942 226.335 88.2588 226.68 88.5789 227.146C89.0057 227.768 90.2586 227.594 91.6091 226.896C93.1151 226.092 93.7949 226.083 93.5997 227.131C93.429 228.049 97.1328 229.281 104.867 230.72C134.491 236.233 164.302 245.849 181.531 255.294C199.105 265.074 218.795 282.436 221.017 290.173C221.593 292.179 222.282 292.85 222.87 291.874C223.916 289.899 236.066 310.605 241.9 324.439C249.92 343.291 258.149 377.779 259.215 396.829C259.392 400.252 259.081 400.466 256.532 399.584C254.877 399.005 254.221 398.883 254.959 399.292C255.697 399.7 253.66 401.898 250.264 404.114C246.999 406.355 244.185 409.086 244.015 410.003C243.82 411.052 245.194 410.223 246.92 408.239C250.011 404.745 255.953 401.24 258.05 401.63C259.492 401.898 259.766 410.629 258.875 424.161C257.96 437.824 254.978 455.307 253.667 455.063C253.143 454.966 251.018 452.536 248.811 449.82L245.028 444.64L249.034 450.81C253.097 457.398 253.283 461.502 249.335 467.412C248.182 469.232 247.194 471.625 247.179 472.436C247.158 474.738 243.597 482.212 234.691 498.729C228.466 510.319 227.381 513.236 228.048 516.208C228.789 518.787 229.953 519.818 232.968 520.379C236.245 520.989 236.998 520.586 237.51 517.833C237.852 515.998 240.105 510.45 242.523 505.475C245.047 500.656 249.742 490.002 252.983 482.06C260.715 463.834 265.578 438.428 265.802 416.092Z" fill="#5A430B"/>
<path d="M171.009 45.8336C171.625 41.0658 171.064 38.249 169.439 36.048L167.067 32.7586L165.68 42.4008C164.805 49.2903 164.055 51.8632 162.875 51.6436C161.957 51.4728 161.393 52.3172 161.698 53.5946C162.012 55.5517 161.857 55.6584 160.421 53.8994C158.641 51.805 158.522 48.7992 160.269 50.3448C160.851 50.8601 161.866 50.5065 162.479 49.3999C164.424 46.2357 164.714 42.4922 163.01 42.1751C161.699 41.9311 161.747 41.669 163.074 41.102C164.089 40.7484 164.57 39.6175 164.11 38.4469C163.626 37.4073 164.138 34.6546 165.126 32.2616C166.113 29.8686 166.562 28.1889 165.964 28.4846C165.391 28.6491 164.553 26.5944 164.099 23.9331C163.529 20.4365 161.715 17.7934 157.271 13.9826C146.028 4.43123 129.704 3.97016 115.988 12.8101C101.364 22.159 94.8003 37.7547 96.1406 59.7037C96.9874 74.1016 100.225 81.4852 108.522 87.9117C118.566 95.8839 134.303 97.3205 147.326 91.4711C152.655 89.0722 161.734 79.6407 162.441 75.8393C162.636 74.7906 160.984 76.3818 158.932 79.3906C154.493 85.7525 148.463 90.4621 142.445 92.1903C139.007 93.1778 139.653 92.62 145.308 89.1968C152.182 85.0512 163.002 72.8243 163.856 68.2364C164.197 66.4013 164.459 66.4501 165.322 68.3737C165.971 69.9864 166.273 69.0932 166.301 65.3009C166.353 61.3775 166.679 60.3532 167.737 61.2282C168.77 62.2342 169.252 61.1033 169.673 57.3842C169.923 54.5827 170.612 49.4216 171.009 45.8336ZM160.1 59.2646C159.445 59.1427 158.912 58.3653 159.082 57.4477C159.229 56.6612 158.884 56.3259 158.418 56.6459C157.796 57.0727 157.97 58.3256 158.561 59.5206C159.39 60.8955 159.219 61.8131 158.335 62.1911C157.582 62.5934 156.82 62.316 156.656 61.7429C156.055 59.868 157.058 56.6642 158.287 56.6215C160.399 56.2009 161.899 56.8869 161.655 58.1977C161.509 58.9842 160.887 59.411 160.1 59.2646ZM156.922 46.467C156.266 46.3451 155.48 46.1987 155.086 46.1255C154.693 46.0523 154.504 45.6103 154.708 45.2414C154.806 44.7171 154.297 43.8086 153.608 43.138C152.812 42.3118 153.779 42.2204 156.138 42.6595C158.604 43.254 159.662 44.129 159.074 45.1045C158.51 45.9489 157.577 46.589 156.922 46.467ZM150.305 71.8178C147.985 70.4367 146.799 71.7079 147.729 74.7289C148.412 76.8903 147.357 78.1859 142.071 81.8133C133.879 87.2057 128.197 88.5894 120.07 87.077C115.22 86.1744 113.269 84.9976 110.635 81.6594C108.797 79.1474 107.953 78.5834 108.757 80.0894C110.153 82.7904 110.129 82.9215 107.538 80.8118C104.578 78.4979 101.435 68.4195 102.371 64.1182C102.762 62.0208 103.082 62.4873 104.332 65.9748C105.286 68.8648 106.746 70.4927 108.081 70.6056C109.441 70.5873 110.785 71.38 111.187 72.133C111.541 73.1481 111.123 73.206 110.065 72.3311C108.688 70.9897 108.639 71.2519 109.87 73.3797C110.568 74.7302 111.946 76.0716 112.864 76.2424C113.781 76.4131 115.052 77.5991 115.775 78.8185C117.195 81.3884 119.701 81.041 119.14 78.2242C118.918 77.2334 119.842 75.9135 121.061 75.1911C123.034 74.0663 123.271 74.2461 122.308 76.508C121.753 78.0323 121.665 79.2364 122.164 79.4651C125.131 80.2883 127.868 81.6114 128.377 82.5199C128.828 83.0107 127.124 82.6936 124.707 81.8369C119.134 79.7149 120.792 82.4647 126.447 84.8732C129.865 86.1873 130.544 86.1782 130.182 84.4832C130.032 83.0992 131.063 81.9347 132.807 81.3099C134.526 80.8161 135.974 79.5937 136.169 78.5451C136.364 77.4964 137.453 76.7496 138.501 76.9447C139.55 77.1399 140.297 78.2282 140.077 79.408C139.882 80.4566 140.284 81.2096 141.013 80.9383C141.611 80.6427 142.345 78.8807 142.556 77.0211C142.635 75.1372 143.297 73.7685 143.952 73.8904C144.739 74.0368 144.934 72.9881 144.416 71.3999C143.626 69.083 143.806 68.8452 146.175 69.9641C148.174 70.8787 148.616 70.6898 148.098 69.1015C147.58 67.5132 147.711 67.5376 148.802 68.9613C149.574 69.9185 151.073 70.6045 152.326 70.4308C153.759 70.0193 154.079 70.4858 153.229 71.4125C152.403 72.2081 151.15 72.3818 150.305 71.8178ZM155.215 26.4843C154.764 25.9934 154.722 24.7649 155.31 23.7894C156.029 22.8383 156.938 22.3293 157.52 22.8445C157.971 23.3353 158.014 24.5639 157.426 25.5393C156.706 26.4904 155.798 26.9995 155.215 26.4843ZM150.408 32.6419C145.835 30.9773 140.357 31.9921 141.146 34.309C141.475 35.4553 141.296 35.693 140.762 34.9156C140.229 34.1383 139.924 32.8609 140.07 32.0744C140.11 31.1325 139.421 30.4618 138.455 30.5532C137.357 30.6202 137.086 29.8916 137.674 28.9161C138.287 27.8096 137.729 27.1633 135.87 26.9528C134.403 26.8156 132.897 27.6203 132.391 28.8823C131.788 30.6687 132.025 30.8486 133.842 29.8305C135.037 29.2391 135.873 29.1233 135.751 29.7787C135.409 31.6139 133.208 33.2386 131.038 33.2416C129.94 33.3086 129.465 32.9489 130.062 32.6532C130.684 32.2264 130.846 30.629 130.303 29.1719C129.727 27.1659 129.98 26.5349 131.184 26.6234C132.495 26.8673 132.544 26.6051 131.462 25.8613C130.593 25.4283 130.05 23.9712 130.27 22.7914C130.791 20.7185 130.791 20.7185 131.581 23.0353C132.773 26.1052 136.54 26.2639 138.485 23.0997C140.095 20.2799 139.601 18.5606 136.428 15.9357C134.55 14.3656 134.468 14.0791 136.556 13.7896C138.251 13.4269 138.596 13.7622 137.745 14.6889C136.895 15.6156 137.263 15.8199 138.803 15.5639C140.056 15.3902 140.973 15.5609 140.876 16.0853C139.464 20.0269 140.44 20.6153 144.433 18.1035C147.985 15.7808 149.213 15.7381 152.689 17.4698C154.795 18.5399 156.615 19.6923 156.542 20.0856C156.469 20.4788 155.658 20.4636 154.944 19.924C154.076 19.491 152.192 19.4117 150.628 19.7988C148.884 20.4236 148.36 20.326 149.055 19.506C151.116 17.1771 148.125 16.485 145.409 18.6919C142.692 20.8989 142.824 20.9233 147.747 21.4326C150.548 21.6827 152.941 22.6705 152.95 23.3503C153.554 27.3957 154.999 29.8345 156.325 29.2676C157.34 28.914 157.194 29.7005 155.828 31.2094C154.389 33.1116 152.956 33.5231 150.408 32.6419ZM141.176 44.3507C133.525 43.198 132.196 41.5944 136.951 39.3601L140.381 37.6928L137.375 37.8115C135.598 37.8877 134.336 37.3816 134.458 36.7261C134.799 34.891 139.052 36.0892 141.652 38.8787C143.03 40.2201 144.505 41.0371 144.972 40.7171C145.929 39.9459 149.358 44.1102 148.426 44.7504C148.09 45.0948 144.74 44.8782 141.176 44.3507ZM127.832 78.8922C124.872 76.5783 124.896 76.4472 130.557 77.3651C134.907 78.039 135.145 78.2188 132.755 79.4015C130.831 80.2642 129.365 80.1269 127.832 78.8922ZM134.279 19.4688C132.239 19.4961 131.371 19.0632 132.041 18.3743C132.712 17.6853 132.236 17.3256 130.828 17.606C129.575 17.7797 128.313 17.2736 127.959 16.2584C127.606 15.2433 127.655 14.9811 128.213 15.6274C128.639 16.2493 129.974 16.3622 131.17 15.7708C132.569 14.8106 133.069 15.0393 132.874 16.088C132.727 16.8745 133.785 17.7494 135.227 18.0177C138.897 18.7008 138.333 19.5452 134.279 19.4688ZM129.772 42.2284C127.617 41.4205 126.361 39.4237 128.327 39.7896C129.245 39.9603 129.605 39.4848 129.358 38.6251C129.086 37.8965 129.602 37.3143 130.544 37.3539C131.461 37.5247 131.165 36.9272 129.846 36.0034C128.026 34.851 127.968 34.4334 129.541 34.7261C132.318 35.1073 132.72 35.8603 132.037 39.5306C131.696 41.3658 130.796 42.5546 129.772 42.2284ZM126.441 20.0446C124.597 19.0232 117.308 25.3972 118.039 27.2965C118.311 28.0251 117.649 29.3938 116.381 30.3784C115.244 31.3874 114.344 32.5762 114.533 33.0183C114.722 33.4603 114.1 33.8871 113.003 33.9541C111.905 34.0211 111.823 33.7345 112.732 33.2255C113.616 32.8475 114.637 31.0032 115.241 29.2169C116.643 24.5955 124.365 17.3527 126.423 18.6849C128.505 19.8861 128.523 21.2458 126.441 20.0446ZM114.277 43.1422C113.957 42.6758 113.865 41.7094 113.987 41.054C114.109 40.3986 113.682 39.7767 112.896 39.6303C112.216 39.6394 111.472 40.7216 111.49 42.0812C111.484 43.5719 110.871 44.6785 110.347 44.5809C108.643 44.2638 109.537 38.7339 111.475 37.0604C113.701 35.3046 116.359 38.5117 115.487 41.74C115.136 42.8953 114.597 43.6087 114.277 43.1422ZM112.011 51.6717C109.728 53.0099 109.716 55.9913 112.188 55.0952C114.84 53.9613 112.855 58.0674 109.819 59.808C106.03 61.9509 105.505 61.8533 106.542 59.1981C107.048 57.9361 107.505 56.9362 107.768 56.985C107.899 57.0094 108.405 55.7474 108.853 54.0677C109.481 52.1502 109.103 51.2661 107.981 51.4642C106.024 51.7781 106.61 48.6322 108.737 47.4007C109.359 46.9739 109.442 47.2605 108.747 48.0805C108.076 48.7694 108.061 49.5803 108.716 49.7023C109.502 49.8486 110.46 49.0774 111.179 48.1263C111.768 47.1508 112.856 46.404 113.642 46.5504C115.609 46.9163 114.581 50.2513 112.011 51.6717ZM108.544 68.115C107.413 67.6333 106.691 66.4139 106.648 65.1853C106.85 62.646 106.85 62.646 109.432 64.0758C111.596 65.5636 110.986 68.8406 108.544 68.115ZM106.735 38.4838C106.211 38.3862 105.906 37.1089 106.174 35.667C106.443 34.2251 107.186 33.1429 107.842 33.2649C108.628 33.4113 108.802 34.6642 108.403 36.0817C108.003 37.4992 107.259 38.5814 106.735 38.4838Z" fill="#5A430B"/>
<path d="M59.9374 517.338C62.7858 491.828 60.2475 468.3 51.7617 443.937C39.3043 408.12 18.9878 375.18 -5.01774 351.861C-15.696 341.465 -18.9578 340.045 -18.8026 345.77C-18.6169 349.873 -23.8454 359.75 -35.4274 377.531C-39.2687 383.597 -46.1497 395.065 -50.5368 403.335C-63.5518 427.36 -76.7952 446.052 -94.4619 464.464C-103.721 474.134 -111.437 485.717 -126.921 512.808C-136.759 529.965 -138.409 533.726 -139.839 542.14L-141.62 551.709L-125.907 524.118C-106.337 489.65 -95.636 474.417 -81.8289 460.712C-70.2137 449.311 -55.6777 429.503 -44.9249 410.347C-41.428 403.945 -33.9496 392.182 -28.6692 384.213C-23.2578 376.269 -17.1361 366.694 -15.0934 363.006C-13.0508 359.317 -11.2124 355.998 -10.9015 355.784C-10.5905 355.571 -8.58165 357.165 -6.25271 359.226C-2.54594 362.628 -2.16797 363.512 -3.51552 366.381C-6.46369 372.749 -7.03091 377.255 -4.76899 378.218C-3.37587 378.749 -1.95219 377.657 -0.318074 374.707C0.956303 372.231 2.52635 370.353 3.05068 370.451C3.70609 370.573 6.28191 373.494 8.89124 376.963C11.5006 380.432 12.921 383.002 11.8968 382.676C9.63484 381.712 -1.15417 392.317 -1.1665 395.299C-1.12389 396.527 -0.270369 397.771 0.860587 398.253C2.51587 398.832 4.9456 396.708 13.1068 387.105C14.8567 384.99 15.6767 385.685 22.2762 396.135C29.1957 407.052 40.1844 428.898 40.8945 433.099C41.1749 434.507 38.8183 436.239 33.9803 438.186C28.9624 440.372 26.7614 441.997 27.0418 443.405C27.7092 446.377 29.1999 446.383 36.4524 443.122C39.9887 441.61 43.214 440.312 43.6073 440.385C44.5248 440.555 48.8774 455.063 48.1488 455.335C47.8622 455.417 44.8655 456.215 41.3445 456.916C33.1563 458.648 31.7814 459.477 33.3817 461.809C34.2352 463.053 36.3813 463.181 41.9083 461.904C46.0024 461.038 49.688 460.91 49.9837 461.508C51.1328 463.349 52.9827 474.543 52.5924 476.641C52.3241 478.082 50.5225 478.29 45.1481 477.29C37.5453 475.875 34.9174 476.877 36.9536 480.511C37.865 482.173 40.0447 482.85 45.8032 483.243L53.5524 483.872L53.6191 490.801C53.6524 497.181 53.4237 497.681 50.8111 497.873C49.165 497.974 46.3391 497.855 44.3728 497.489C39.5227 496.586 36.5261 497.385 36.1114 499.613C35.8186 501.186 37.4739 501.765 44.7567 502.714L53.6124 503.955L53.4323 510.024C52.8401 526.324 44.7784 560.9 37.9277 576.578C35.5192 582.232 35.2326 582.315 32.3062 580.55C30.7241 579.577 28.6511 579.056 27.9225 579.327C26.0477 579.927 29.3398 585.558 31.6993 585.997C33.0101 586.241 32.9704 587.183 31.1564 590.372C27.8882 596.273 27.3395 596.307 21.4287 592.359C15.1978 587.944 13.0182 587.268 12.5791 589.627C12.384 590.676 15.0086 593.334 18.2307 595.697C21.5839 598.084 24.053 600.849 23.8823 601.767C23.7115 602.684 21.047 606.799 18.1446 610.735L12.6174 617.844L8.26141 612.829C5.79228 610.064 3.63412 607.085 3.36283 606.357C2.5002 604.433 -2.26757 603.817 -2.58469 605.521C-2.9262 607.356 4.45062 617.273 7.40147 618.907C8.63912 619.544 9.54141 620.526 9.44384 621.05C9.02914 623.279 -6.45472 638.706 -7.02168 637.38C-7.94222 635.039 -21.0317 622.296 -22.7358 621.979C-26.0129 621.369 -23.7633 625.314 -16.5449 633.167L-9.35089 641.151L-14.2835 645.794C-16.9419 648.418 -22.2434 652.857 -26.048 655.81L-33.0354 661.291L-37.3088 650.731C-41.3933 640.613 -43.8136 637.586 -44.5454 641.518C-44.9601 643.747 -40.9459 656.429 -38.3275 660.578C-36.3491 663.794 -36.3735 663.925 -45.0893 669.22L-53.9362 674.49L-56.3625 667.122C-59.1179 658.607 -60.5963 655.62 -62.1693 655.327C-64.1355 654.961 -63.9924 657.836 -61.3833 667.137C-59.2436 674.587 -59.1919 676.496 -60.8198 677.956C-62.5789 679.392 -61.9722 679.776 -56.2046 680.849C-49.6505 682.069 -49.5194 682.093 -35.0844 672.302C-6.83646 653.147 20.0889 625.066 35.4025 598.892C37.8537 594.466 40.6006 590.637 41.3292 590.366C42.0822 589.964 42.5151 589.095 42.2438 588.366C41.9725 587.638 43.3018 583.41 45.0732 578.992C48.2165 571.576 50.5886 563.202 56.3147 539.72C57.3819 535.443 58.9737 525.432 59.9374 517.338Z" fill="#5A430B"/>
<path d="M48.2433 524.791C45.3169 523.026 37.4031 521.825 37.1592 523.135C36.8664 524.708 40.0551 526.522 44.5119 527.352C48.8376 528.157 51.1698 526.556 48.2433 524.791Z" fill="#5A430B"/>
<path d="M44.9617 545.338C44.1661 544.512 40.1666 542.682 36.0695 541.377C29.1618 539.143 28.482 539.152 28.5916 541.478C28.6037 544.328 32.3989 546.526 40.3706 548.145C45.8517 549.301 47.3821 548.365 44.9617 545.338Z" fill="#5A430B"/>
<path d="M21.6817 531.24C21.0262 531.118 19.3557 531.35 17.8985 531.892C15.5816 532.682 15.2859 532.084 15.6795 526.326C15.7894 522.82 16.4847 516.168 17.1007 511.4C17.7168 506.633 17.7749 501.219 17.461 499.261C16.0011 491.802 14.4566 470.222 15.1152 466.682C15.6519 463.799 15.4629 463.357 14.1215 464.734C12.7801 466.112 12.518 466.063 12.7863 464.622C13.4205 461.213 7.08701 435.487 1.09152 417.419C-2.18206 407.316 -4.66003 398.039 -4.54718 396.704C-4.27884 395.262 -4.59891 394.796 -5.00744 395.533C-5.57145 396.378 -7.08654 396.503 -8.32419 395.865C-11.6927 394.289 -12.1226 397.329 -9.54709 406.081C-8.37057 409.962 -7.63608 414.031 -7.85563 415.211C-8.05078 416.26 -7.6972 417.275 -6.9107 417.421C-6.25529 417.543 -4.61233 421.104 -3.48459 425.247L-1.21383 432.722L-3.87195 429.515C-5.30769 427.756 -5.0852 428.746 -3.18919 431.676C3.0658 441.791 10.344 475.559 11.1629 499.581C11.7475 513.93 6.21923 544.366 0.389919 558.2C-14.5828 594.201 -34.7797 613.092 -88.3731 641.635C-110.21 653.304 -125.379 659.025 -141.323 661.618L-150.953 663.081L-141.277 665.017C-132.101 666.725 -130.849 666.551 -117.331 662.421C-109.414 659.962 -100.36 656.493 -97.4307 654.597C-93.4371 652.085 -91.7177 651.591 -91.1752 653.048C-90.6082 654.375 -90.2972 654.161 -90.0289 652.719C-89.4923 649.835 -64.5704 636.164 -59.0588 635.698C-56.7084 635.457 -55.7999 634.948 -56.9797 634.729C-58.6593 634.281 -31.8045 614.595 -29.192 614.403C-28.6432 614.369 -26.1159 611.72 -23.4911 608.547C-20.8662 605.374 -17.2353 601.167 -15.4274 599.469C-10.4216 594.433 -3.86693 583.99 1.52329 572.515C4.19399 566.909 6.87383 561.983 7.36466 561.532C7.96217 561.236 9.1604 556.984 10.0386 552.265C12.5999 538.501 14.6335 534.133 18.9563 532.767C20.9866 532.06 22.1816 531.469 21.6817 531.24Z" fill="#5A430B"/>
<path d="M29.5887 412.957C27.2659 409.406 14.8889 414.697 14.7149 419.276C14.5318 423.175 17.3577 423.294 23.9792 419.78C29.5366 416.881 31.1067 415.003 29.5887 412.957Z" fill="#5A430B"/>
</svg>
