<svg width="318" height="598" viewBox="0 0 318 598" fill="none" xmlns="http://www.w3.org/2000/svg">
<path d="M400.816 374.637L397.435 377.201L388.68 371.464C374.131 361.87 332.98 336.437 304.57 319.516C265.899 296.439 259.55 291.888 249.248 280.634C238.639 268.945 234.823 261.693 225.481 236.221C214.484 206.094 211.744 200.367 203.608 191.485C193.863 180.925 190.117 178.859 138.223 155.552C109.681 142.744 103.61 140.436 103.103 142.493C103.066 142.856 109.847 146.075 118.226 149.756C141.83 160.287 162.338 171.383 181.12 184.01C192.426 191.603 194.723 193.652 195.898 196.886C197.737 201.847 194.555 209.5 190.352 210.346C189.688 210.515 185.545 207.747 181.069 204.23C170.775 196.315 161.386 190.836 140.045 180.595C124.517 173.082 98.4931 160.372 97.6825 159.872C97.4949 159.791 97.4311 159.839 97.5512 160.194C97.6413 160.46 106.01 164.818 116.16 169.942C153.487 188.575 184.112 206.827 186.799 211.925C190.252 218.338 186.999 226.491 181.277 225.925C178.541 225.658 160.397 216.338 145.304 207.268C132.144 199.409 108.803 186.337 99.5904 181.616C84.8503 174.063 87.9912 176.475 111.321 190.225C121.239 196.083 135.934 204.451 143.987 208.824C171.862 223.922 179.855 231.909 176.61 241.506C175.417 245.086 174.49 245.901 171.559 246.005C170.362 246.02 150.428 234.49 126.641 219.861C103.101 205.49 83.6097 193.846 83.2908 194.088C82.9718 194.33 82.8368 194.878 83.017 195.411C83.5574 197.008 95.5095 205.56 119.436 221.31C132.582 230.073 149.056 241.328 156.024 246.524C172.172 258.474 185.644 266.543 185.962 264.405C186.03 264.131 185.872 262.244 185.621 260.316C185.373 258.163 185.624 256.3 186.266 255.59C187.23 254.413 187.414 254.719 188.138 258.518C189.614 266.431 190.102 267.399 191.918 266.133C193.002 265.311 193.693 265.456 194.023 266.432C195.194 269.892 195.749 266.795 194.747 262.65C193.891 259.173 193.85 257.867 194.746 256.964C195.774 255.738 195.988 256.133 197.587 262.279C199.25 268.377 200.995 271.402 200.439 266.918C199.959 263.603 201.951 263.095 203.288 266.096L204.534 268.83L204.072 264.386C203.891 261.959 203.936 259.249 204.266 258.329C205.099 255.579 206.593 258.572 207.066 264.234C207.366 267.017 207.836 269.114 208.091 268.92C208.41 268.678 208.586 267.541 208.447 266.42C208.263 264.218 209.55 262.573 210.698 263.598C211.04 263.896 211.303 265.147 211.314 266.364C211.224 267.994 211.528 268.655 212.406 268.881C213.408 269.236 213.611 268.414 213.261 264.776C213.055 262.034 213.344 259.808 213.955 259.01C215.077 257.824 214.957 257.47 216.714 267.398L217.232 270.35L217.783 267.479C218.413 263.656 220.271 263.697 220.774 267.553C221.146 269.835 221.795 270.569 224.545 271.828C227.671 273.249 235.492 280.251 274.572 316.62C281.984 323.599 305.592 345.277 326.904 364.906C350.14 386.196 365.579 401.024 365.316 401.67C365.024 402.226 363.778 403.282 362.506 404.024C360.217 405.314 359.999 405.144 318.555 367C295.723 345.96 275.279 327.234 273.294 325.395C271.245 323.604 259.923 313.124 248.169 302.079C236.352 291.083 225.867 281.418 224.715 280.619C222.039 278.635 214.125 277.277 204.271 277.057C187.712 276.681 177.708 272.226 154.907 255.065C144.456 247.158 141.029 244.851 108.322 223.049C83.9934 206.823 79.175 203.007 77.6737 198.571C76.4126 194.844 77.6355 189.457 80.1232 187.57C84.2056 184.475 81.5826 183.119 143.936 221.462C158.714 230.548 170.97 237.867 171.318 237.714C172.212 237.036 165.851 231.268 159.685 227.024C156.259 224.716 148.056 219.899 141.406 216.356C134.82 212.766 121.217 205.019 111.269 199.072C101.321 193.125 91.433 187.356 89.3729 186.242C85.0349 183.846 83.605 180.805 84.6628 175.877C84.9778 173.966 86.0884 171.563 87.0827 170.474C88.591 168.773 89.5066 168.636 92.2948 169.532C96.8991 171.058 120.435 183.759 140.271 195.475C166.784 211.049 190.368 222.71 180.195 215.15C169.369 207.081 143.72 192.637 113.485 177.434C103.335 172.31 94.4372 167.573 93.6304 166.847C91.5514 164.967 90.1777 160.434 90.9768 157.821C91.3782 156.402 92.7627 154.571 94.4211 153.314C96.9089 151.427 97.6331 151.435 101.979 153.38C107.075 155.648 138.817 171.045 153.749 178.454C165.119 184.102 177.184 191.566 184.58 197.553C187.969 200.223 190.588 201.805 190.536 201.176C190.325 198.659 166.74 183.208 146.795 172.354C141.02 169.264 128.366 163.139 118.674 158.894C109.014 154.511 100.485 150.388 99.678 149.662C97.4789 147.427 96.9571 144.701 98.0037 140.451C100.093 132.176 105.617 131.444 118.364 137.609C122.582 139.651 139.679 147.536 156.404 155.033C188.912 169.85 197.491 174.829 206.189 183.953C214.888 193.077 220.476 203.668 227.563 224.607C235.52 248.12 241.734 260.8 250.133 270.932C259.737 282.492 268.48 288.907 299.728 307.578C331.569 326.581 352.771 339.491 375.024 353.612C385.621 360.293 396.466 367.232 399.273 368.894L404.29 372.114L400.816 374.637Z" fill="#7F5B01"/>
<path d="M392.778 380.982C392.358 381.635 391.692 382.029 391.22 382.053C390.781 381.94 381.383 375.923 370.434 368.632C336.061 345.8 311.503 330.451 289.972 318.375C285.33 315.769 284.157 314.431 284.973 312.587C285.591 311.339 288.959 313.017 307.8 324.237C329.413 337.03 392.826 378.05 393.306 379.468C393.396 379.734 393.133 380.378 392.778 380.982Z" fill="#7F5B01"/>
<path d="M223.721 247.253C222.871 249.849 221.847 248.099 219.363 239.993C217.707 234.589 217.487 232.918 218.312 232.292C219.756 231.197 224.639 244.604 223.721 247.253Z" fill="#7F5B01"/>
<path d="M217.548 229.399C216.508 230.188 215.911 229.63 214.406 226.391C211.764 220.757 208.577 215.199 205.272 210.742C201.875 206.017 201.024 203.743 202.259 202.806C203.884 201.574 211.883 213.142 216.79 224.021C218.632 228.016 218.718 228.512 217.548 229.399Z" fill="#7F5B01"/>
<path d="M118.234 353.701C118.263 353.786 122.575 354.717 127.796 355.874C162.528 363.359 209.162 384.541 224.053 399.684C232.316 408.032 234.775 414.484 235.42 429.694C235.941 441.088 236.882 445.843 239.727 451.63C243.383 459.162 250.804 466.002 285.386 493.903C303.365 508.327 323.828 524.845 330.873 530.575L343.677 540.86L342.571 544.157C341.644 546.998 341.378 547.36 340.558 546.906C340.061 546.584 319.1 529.745 293.96 509.411C245.784 470.532 238.568 463.967 234.622 455.581C231.431 448.77 230.464 443.445 230.134 429.658C229.946 421.549 226.535 412.118 222.1 407.208C208.181 391.655 163.513 370.546 126.614 362.068C112.447 358.755 85.9187 354.842 82.8305 355.56C78.507 356.566 76.4852 360.768 78.074 365.303C79.0566 368.046 79.8158 368.813 99.4023 384.544C112.469 395.114 112.644 395.303 114.092 393.838C116.309 391.526 117.538 392.207 116.054 394.878C114.897 396.875 114.954 397.207 116.414 398.571C117.349 399.367 118.373 400.096 118.667 400.143C118.96 400.19 120.881 398.154 122.893 395.567C125.024 392.837 126.886 390.953 127.414 391.037C128.646 391.234 127.903 392.812 124.263 397.482C122.517 399.707 121.066 401.657 121.007 401.809C120.857 402.189 124.188 405.145 124.454 404.945C124.572 404.802 125.578 403.67 126.642 402.386C127.677 401.178 129.005 400.178 129.475 400.253C130.414 400.403 130.056 401.315 127.448 405.261C126.559 406.574 126.732 407.086 128.457 408.573L130.473 410.269L132.895 408.07C138.918 402.569 139.45 402.169 139.825 403.279C140.114 404.133 139.403 405.151 136.33 408.215L132.577 412.059L133.746 413.054C135.588 414.56 136.323 414.435 138.008 412.522C139.605 410.677 140.988 410.332 141.097 411.804C141.152 412.297 140.382 413.467 139.495 414.456C137.782 416.122 137.811 416.207 139.885 418.073C141.083 419.153 142.106 420.044 142.223 420.063C142.34 420.081 144.202 418.197 146.418 415.885C150.083 411.946 151.793 410.927 151.959 412.569C151.986 412.977 150.27 415.127 148.231 417.306C146.162 419.561 144.505 421.558 144.563 421.729C144.562 421.89 145.38 422.667 146.285 423.539C147.951 425.017 148.01 425.026 150.136 422.942C151.348 421.762 152.615 420.914 153.085 420.989C153.496 421.055 154.263 420.37 154.739 419.476C155.868 417.233 158.072 417.019 157.207 419.224C156.879 420.06 156.111 420.907 155.552 421.06C154.963 421.289 154.314 421.832 154.105 422.364C153.926 422.82 152.98 423.8 152.037 424.457C149.648 426.096 149.616 426.495 151.779 428.294L153.708 429.895L157.932 425.803C160.266 423.51 162.656 421.71 163.184 421.794C164.769 422.047 163.909 423.445 159.478 427.746L155.431 431.705L156.776 432.728C157.507 433.248 158.384 434.035 158.851 434.432C159.406 434.925 160.35 434.268 162.538 431.87C165.494 428.626 167.584 427.748 166.63 430.181C166.332 430.941 165.178 432.454 164.025 433.643C161.425 436.298 161.395 436.374 162.738 437.719C164.665 439.643 165.343 439.347 169.451 434.913C173.235 430.832 175.592 429.592 174.548 432.253C174.25 433.014 172.327 435.373 170.317 437.475C167.717 440.13 166.77 441.433 167.208 441.746C167.56 441.963 168.202 442.551 168.611 442.939C169.166 443.593 169.784 443.288 171.291 441.67C172.297 440.538 173.653 439.624 174.24 439.718C175.531 439.924 175.053 441.302 173.104 443.091C171.037 445.023 171.006 445.26 173.081 446.965L174.893 448.547L180.684 442.686C186.062 437.243 188.862 435.509 187.789 438.246C187.52 438.93 184.948 441.832 182.082 444.686C179.187 447.617 176.911 450.081 176.969 450.252C176.997 450.337 177.524 450.745 178.05 451.152C178.811 451.597 179.665 451.167 181.497 449.359C184.067 446.781 185.862 446.34 185.057 448.393C184.788 449.077 183.664 450.513 182.571 451.551L180.562 453.492L182.491 455.093C183.573 455.992 184.656 456.569 184.922 456.369C185.246 456.179 187.285 454 189.414 451.593C193.169 447.426 196.086 445.711 195.103 448.22C194.864 448.828 192.853 451.254 190.635 453.727C186.734 457.951 186.674 458.103 187.371 459.346C187.982 460.494 188.276 460.379 190.489 458.551C194.387 455.134 195.463 456.841 191.829 460.543C190.322 462.16 190.38 462.169 204.229 474.722C222.225 491.168 254.706 521.885 273.161 540.182C291.266 558.1 323.705 590.991 323.965 591.76C324.109 592.187 321.816 597.557 321.374 597.89C321.197 598.023 315.649 592.452 308.934 585.562C236.267 510.7 161.037 442.376 78.714 376.393C72.3407 371.336 70.8451 365.926 73.7373 358.552C74.8405 355.739 75.8486 354.122 77.2954 352.818C81.075 349.382 83.1916 349.074 94.2295 350.029C102.302 350.753 117.884 353.16 118.234 353.701Z" fill="#7F5B01"/>
<path d="M117.801 366.165C121.914 367.153 125.31 368.193 125.397 368.456C125.484 368.719 125.178 369.499 124.664 370.164C123.998 371.053 123.37 371.201 122.18 370.68C121.347 370.215 115.773 368.91 109.81 367.626C99.763 365.441 98.989 365.151 99.5095 363.824C99.9993 362.575 100.597 362.505 105.22 363.326C108.113 363.871 113.778 365.107 117.801 366.165Z" fill="#7F5B01"/>
<path d="M141.319 373.022C164.371 381.328 182.012 390.556 200.004 403.816C209.264 410.57 212.21 413.231 211.791 414.3C211.102 416.057 209.432 415.547 206.017 412.648C188.245 397.556 160.133 382.437 134.847 374.422C127.551 372.04 127.375 372.012 127.974 370.485C128.573 368.957 131.653 369.53 141.319 373.022Z" fill="#7F5B01"/>
<path d="M218.375 420.236C220.899 424.198 222.863 430.984 222.71 435.41C222.656 437.1 222.064 440.161 221.46 442.168C220.405 445.478 220.168 445.926 219.371 445.475C218.744 445.213 218.644 444.226 219.097 442.761C221.034 436.113 219.752 427.899 215.766 421.923C213.83 418.944 213.74 417.311 215.41 416.931C215.814 416.833 217.112 418.335 218.375 420.236Z" fill="#7F5B01"/>
<path d="M254.952 489.212C260.398 493.698 261.667 495.134 261.212 496.294C260.878 497.145 260.463 497.737 260.176 497.691C259.946 497.654 256.567 495.059 252.68 491.89C247.404 487.595 245.796 485.777 246.245 484.944C246.603 484.344 247.133 483.771 247.538 483.671C247.856 483.639 251.208 486.148 254.952 489.212Z" fill="#7F5B01"/>
<path d="M302.241 526.921C333.37 551.36 338.338 555.518 337.865 556.724C337.452 557.62 336.893 558.091 336.484 557.866C335.869 557.527 323.359 547.838 274.72 509.788C267.091 503.843 262.942 500.136 263.208 499.457C263.445 498.854 264.179 498.41 264.853 498.438C265.527 498.466 282.335 511.324 302.241 526.921Z" fill="#7F5B01"/>
</svg>
