<svg width="224" height="228" viewBox="0 0 224 228" fill="none" xmlns="http://www.w3.org/2000/svg">
<path d="M218.071 180.275C219.023 169.331 218.807 166.85 216.185 166.362C214.743 166.093 213.71 165.087 213.88 164.17C214.32 161.81 210.381 156.737 205.15 152.78C202.428 150.646 198.118 149.03 192.194 148.064C171.197 144.292 157.198 155.385 152.709 179.504C150.611 190.777 151.154 198.066 154.248 202.575C155.552 204.309 155.799 205.169 154.848 204.449C152.126 202.315 154.308 205.163 157.22 207.739C164.813 214.306 169.928 217.428 175.303 218.428C179.735 219.388 180.473 219.797 178.336 220.348C176.772 220.735 176.15 221.162 177.068 221.333C180.165 222.181 196.743 216.179 202.364 212.207C210.629 206.421 216.763 193.865 218.071 180.275ZM209.718 181.433C207.752 181.067 207.67 180.781 209.569 180.049C211.337 179.293 210.993 178.958 208.24 178.446C206.143 178.055 204.692 177.107 204.838 176.321C204.984 175.534 206.237 175.36 207.606 176.022C208.975 176.684 209.917 176.723 209.646 175.995C209.35 175.397 210.152 174.733 211.298 174.403C212.837 174.147 213.215 175.031 212.679 177.915C212.142 180.799 211.291 181.726 209.718 181.433ZM204.218 196.413C204.2 195.053 203.478 193.834 202.822 193.712C202.036 193.566 201.676 194.041 201.972 194.639C202.243 195.367 201.621 195.794 200.572 195.599C199.524 195.404 198.942 194.889 199.384 194.7C199.85 194.379 199.259 193.184 198.119 192.023C196.421 190.215 196.576 190.108 199.542 190.932C204.033 192.31 205.624 193.962 205.005 196.559C204.508 198.501 204.377 198.477 204.218 196.413ZM207.091 164.941C206.549 163.484 205.976 163.648 205.037 165.779C203.918 168.148 203.5 168.205 202.064 166.446C201.055 165.309 200.431 163.566 200.601 162.648C201.016 160.42 198.19 160.301 195.76 162.425C194.623 163.434 193.812 163.419 193.434 162.535C193.056 161.651 194.209 159.831 195.944 158.526C198.635 156.45 199.053 156.392 198.712 158.228C198.492 159.407 199.025 160.185 199.754 159.913C200.638 159.536 200.964 158.511 200.717 157.652C200.364 156.636 200.519 156.53 201.077 157.176C201.611 157.953 201.915 159.231 201.769 160.017C201.598 160.935 202.632 161.941 204.074 162.209C208.326 163.407 208.564 163.587 208.247 165.291C208.027 166.471 207.765 166.422 207.091 164.941ZM200.301 200.702C199.441 200.949 199.408 200.4 199.996 199.425C201.353 197.236 202.344 197.013 202.002 198.849C201.856 199.635 201.161 200.455 200.301 200.702ZM196.816 204.122C196.258 203.476 195.954 202.199 196.149 201.15C196.442 199.577 196.704 199.626 198.033 201.229C199.658 203.43 198.694 205.692 196.816 204.122ZM196.935 207.128C196.615 206.662 194.454 207.344 192.146 208.814C187.219 211.965 184.54 211.06 183.821 206.179C183.135 201.847 185.891 198.698 189.692 199.406C191.921 199.821 197.99 205.832 197.722 207.274C197.624 207.799 197.231 207.726 196.935 207.128ZM197.346 165.568C196.69 165.446 196.083 165.062 196.132 164.8C196.205 164.407 196.983 163.873 197.711 163.602C198.571 163.355 199.047 163.715 198.925 164.37C198.778 165.157 198.132 165.715 197.346 165.568ZM194.983 174.622C194.105 173.509 192.474 172.799 191.352 172.997C189.239 173.418 189.669 170.378 191.953 169.04C192.575 168.613 192.681 168.769 192.142 169.482C191.446 170.302 192.193 171.391 194.062 172.281C195.8 173.147 197.071 174.333 196.924 175.119C196.729 176.168 196.098 175.915 194.983 174.622ZM193.013 177.917C191.964 177.722 191.538 177.1 192.053 176.518C192.568 175.936 193.51 175.976 194.092 176.491C195.577 177.988 195.241 178.332 193.013 177.917ZM195.105 156.472C194.523 155.956 193.566 156.728 192.88 158.227C191.785 160.465 191.368 160.523 189.801 158.739C188.234 156.956 188.438 156.587 190.697 155.38C193.971 153.819 196.773 154.069 196.407 156.036C196.285 156.691 195.688 156.987 195.105 156.472ZM178.242 211.38C177.513 211.651 177.086 211.029 177.281 209.98C177.477 208.932 178.099 208.505 178.681 209.02C179.132 209.511 179.559 210.133 179.51 210.395C179.461 210.657 178.839 211.084 178.242 211.38ZM179.89 164.626C175.695 163.845 174.72 163.257 175.513 161.912C176.232 160.961 176.763 159.568 176.885 158.913C177.006 158.257 178.415 157.977 180.095 158.425C182.847 158.937 182.823 159.068 180.137 159.653C178.156 160.098 177.82 160.443 179.238 160.842C180.238 161.3 181.68 161.568 182.228 161.534C182.908 161.525 182.786 162.181 182.115 162.87C181.241 163.927 181.74 164.156 183.78 164.129C185.45 163.897 186.475 164.223 185.96 164.806C185.6 165.281 182.774 165.162 179.89 164.626ZM180.756 157.056C180.363 156.983 179.805 156.337 179.558 155.477C179.287 154.748 179.671 154.142 180.326 154.264C181.113 154.41 181.646 155.188 181.524 155.843C181.378 156.629 181.018 157.105 180.756 157.056ZM168.063 207.044C167.078 205.776 165.807 204.59 165.045 204.313C162.39 203.276 159.936 199.7 159.153 195.893C158.269 190.439 158.873 188.653 160.54 192.082C161.345 193.588 162.14 194.414 162.238 193.89C162.36 193.235 164.049 194.363 165.853 196.326C167.789 198.314 169.396 199.155 169.542 198.368C169.688 197.582 170.393 197.442 171.213 198.137C172.246 199.143 172.173 199.536 170.92 199.71C169.667 199.884 169.652 200.694 170.597 202.905C171.377 204.542 171.511 206.737 170.922 207.712C169.974 209.163 169.581 209.09 168.063 207.044ZM173.153 161.473C173.098 163.226 172.476 163.653 171.263 162.884C170.287 162.296 169.428 162.543 169.281 163.329C169.135 164.116 168.693 164.305 168.266 163.683C167.708 163.037 168.452 161.955 169.778 161.388C171.129 160.69 172.266 159.681 172.543 158.918C172.665 158.263 173.598 157.623 174.696 157.556C175.924 157.513 175.9 157.644 174.836 158.26C173.952 158.638 173.135 160.113 173.153 161.473ZM164.973 175.547C164.351 175.974 164.318 175.425 164.775 174.426C165.364 173.45 165.181 171.517 164.458 170.298C163.038 167.728 165.212 164.064 167.172 165.921C168.467 166.975 166.815 174.398 164.973 175.547ZM162.784 185.854C161.827 186.625 160.107 187.119 159.19 186.948C158.141 186.753 158.37 186.253 160.114 185.629C161.415 185.193 162.757 183.815 162.928 182.897C163.123 181.849 163.949 181.053 164.604 181.175C166.308 181.492 165.296 184.016 162.784 185.854ZM160.852 180.205C159.73 180.403 159.303 179.782 159.891 178.806C160.324 177.937 161.568 177.084 162.535 176.992C163.656 176.794 164.083 177.416 163.495 178.392C163.062 179.26 161.818 180.114 160.852 180.205ZM162.245 174.904C161.925 174.438 162.013 173.234 162.577 172.389C163.166 171.414 163.486 171.88 163.218 173.322C163.08 174.788 162.541 175.502 162.245 174.904ZM159.94 184.376C159.285 184.254 158.751 183.476 158.897 182.69C159.019 182.034 159.724 181.894 160.306 182.409C161.019 182.949 161.422 183.702 161.348 184.095C161.3 184.357 160.726 184.522 159.94 184.376Z" fill="#5A430B"/>
<path d="M20.2958 169.446C20.9907 161.569 20.8411 159.783 18.9782 159.437C17.9536 159.246 17.2206 158.524 17.3436 157.863C17.6597 156.164 14.8684 152.52 11.1563 149.681C9.22473 148.15 6.16312 146.995 1.95395 146.309C-12.9671 143.63 -22.9378 151.636 -26.1693 169.001C-27.6797 177.118 -27.3065 182.362 -25.1146 185.602C-24.19 186.848 -24.0159 187.466 -24.6908 186.95C-26.6225 185.419 -25.0757 187.464 -23.0104 189.313C-17.6233 194.026 -13.9921 196.264 -10.1731 196.975C-7.02368 197.659 -6.49993 197.951 -8.02007 198.352C-9.13249 198.633 -9.57533 198.941 -8.92331 199.063C-6.72291 199.667 5.07251 195.32 9.0756 192.452C14.9608 188.275 19.3427 179.228 20.2958 169.446ZM14.3557 170.294C12.9585 170.034 12.9005 169.828 14.2519 169.298C15.5102 168.751 15.2658 168.51 13.3098 168.146C11.8194 167.869 10.7895 167.189 10.8948 166.623C11.0002 166.056 11.8912 165.929 12.8632 166.403C13.8351 166.877 14.5047 166.904 14.313 166.38C14.1039 165.951 14.675 165.471 15.4904 165.232C16.5853 165.045 16.8525 165.681 16.4661 167.757C16.0797 169.833 15.4735 170.502 14.3557 170.294ZM10.4204 181.083C10.4097 180.105 9.89819 179.228 9.43246 179.142C8.87358 179.038 8.61704 179.381 8.82623 179.81C9.01785 180.334 8.57502 180.642 7.82984 180.503C7.08467 180.365 6.67162 179.995 6.98619 179.858C7.31832 179.627 6.89994 178.768 6.09141 177.934C4.8874 176.636 4.99811 176.559 7.10536 177.146C10.2952 178.131 11.4237 179.317 10.9793 181.187C10.6227 182.586 10.5295 182.568 10.4204 181.083ZM12.5159 158.429C12.1327 157.382 11.725 157.501 11.0538 159.036C10.2544 160.743 9.9574 160.785 8.93968 159.521C8.2243 158.705 7.78303 157.451 7.90596 156.79C8.20453 155.186 6.19576 155.105 4.46487 156.638C3.65478 157.366 3.07834 157.357 2.81113 156.721C2.54392 156.085 3.36624 154.774 4.6016 153.832C6.51879 152.334 6.81579 152.291 6.56991 153.612C6.41185 154.462 6.78977 155.02 7.30819 154.824C7.93732 154.55 8.17097 153.813 7.9969 153.195C7.74725 152.465 7.85796 152.388 8.25345 152.852C8.63137 153.41 8.84589 154.329 8.74051 154.895C8.61758 155.556 9.35052 156.278 10.3751 156.469C13.3963 157.324 13.565 157.453 13.3367 158.68C13.1786 159.529 12.9923 159.495 12.5159 158.429ZM7.6282 184.176C7.01663 184.356 6.99373 183.961 7.41367 183.258C8.38183 181.68 9.08654 181.519 8.84066 182.84C8.73529 183.406 8.23976 183.997 7.6282 184.176ZM5.14524 186.644C4.74975 186.179 4.53523 185.261 4.67573 184.506C4.88648 183.373 5.07278 183.408 6.01491 184.56C7.16623 186.141 6.47752 187.77 5.14524 186.644ZM5.22459 188.807C4.99784 188.471 3.46014 188.966 1.81706 190.028C-1.69051 192.304 -3.5939 191.657 -4.09697 188.146C-4.57714 185.03 -2.61261 182.759 0.0886479 183.262C1.67214 183.556 5.97666 187.872 5.78347 188.911C5.71322 189.288 5.43378 189.236 5.22459 188.807ZM5.5864 158.897C5.12067 158.811 4.69006 158.535 4.72519 158.347C4.77787 158.063 5.33142 157.678 5.84984 157.482C6.46141 157.303 6.79887 157.561 6.71106 158.033C6.60568 158.599 6.14528 159.001 5.5864 158.897ZM3.89128 165.417C3.26905 164.618 2.11083 164.109 1.31297 164.254C-0.189607 164.56 0.121187 162.372 1.7467 161.405C2.18954 161.097 2.26512 161.209 1.88031 161.723C1.38478 162.314 1.91387 163.096 3.24082 163.734C4.47462 164.354 5.3763 165.205 5.27092 165.771C5.13042 166.526 4.68225 166.345 3.89128 165.417ZM2.48563 167.792C1.74045 167.653 1.43812 167.206 1.80537 166.786C2.17262 166.367 2.84221 166.393 3.25526 166.763C4.3081 167.838 4.06912 168.086 2.48563 167.792ZM4.00916 152.355C3.59611 151.985 2.91429 152.542 2.4241 153.622C1.64224 155.234 1.34524 155.277 0.234376 153.996C-0.876488 152.715 -0.730653 152.449 0.877298 151.577C3.20753 150.448 5.19873 150.623 4.93529 152.039C4.84748 152.511 4.4222 152.725 4.00916 152.355ZM-8.07184 191.898C-8.59026 192.094 -8.8926 191.647 -8.7521 190.892C-8.61159 190.137 -8.16876 189.829 -7.75571 190.199C-7.43581 190.552 -7.13348 190.998 -7.1686 191.187C-7.20373 191.376 -7.64657 191.684 -8.07184 191.898ZM-6.82123 158.248C-9.80192 157.694 -10.4944 157.272 -9.92863 156.303C-9.41554 155.617 -9.03606 154.614 -8.94825 154.142C-8.86043 153.67 -7.85872 153.466 -6.66537 153.786C-4.70929 154.15 -4.72686 154.244 -6.63714 154.67C-8.04657 154.993 -8.28555 155.242 -7.2785 155.527C-6.56846 155.854 -5.54384 156.045 -5.15369 156.02C-4.6704 156.012 -4.75821 156.484 -5.23617 156.981C-5.85997 157.744 -5.50495 157.907 -4.05506 157.884C-2.86705 157.715 -2.13944 157.948 -2.50669 158.368C-2.76323 158.711 -4.772 158.63 -6.82123 158.248ZM-6.19274 152.8C-6.47218 152.748 -6.86767 152.284 -7.04173 151.665C-7.23336 151.141 -6.95925 150.704 -6.49352 150.791C-5.93464 150.895 -5.55672 151.453 -5.64453 151.925C-5.74991 152.492 -6.00645 152.834 -6.19274 152.8ZM-15.3006 188.795C-15.9984 187.884 -16.9001 187.033 -17.4414 186.834C-19.3272 186.093 -21.0657 183.523 -21.6161 180.785C-22.2352 176.861 -21.803 175.575 -20.6235 178.04C-20.0539 179.123 -19.4897 179.716 -19.4195 179.338C-19.3316 178.866 -18.133 179.675 -16.8534 181.085C-15.4806 182.512 -14.34 183.115 -14.2346 182.549C-14.1292 181.983 -13.6284 181.881 -13.0466 182.379C-12.3136 183.102 -12.3663 183.385 -13.2573 183.512C-14.1484 183.639 -14.1606 184.223 -13.4926 185.812C-12.9406 186.988 -12.849 188.568 -13.2689 189.271C-13.9454 190.317 -14.2249 190.265 -15.3006 188.795ZM-11.6053 155.991C-11.6473 157.253 -12.0901 157.561 -12.9513 157.01C-13.6438 156.588 -14.2554 156.767 -14.3608 157.334C-14.4661 157.9 -14.7807 158.037 -15.0831 157.59C-15.4785 157.126 -14.9479 156.345 -14.0042 155.935C-13.0429 155.431 -12.2328 154.703 -12.0343 154.154C-11.9465 153.682 -11.2822 153.22 -10.5019 153.169C-9.6285 153.137 -9.64607 153.231 -10.4035 153.676C-11.0326 153.95 -11.6159 155.013 -11.6053 155.991ZM-17.444 166.133C-17.8868 166.442 -17.9097 166.047 -17.5829 165.326C-17.163 164.623 -17.2897 163.233 -17.8012 162.357C-18.8067 160.51 -17.2552 157.869 -15.8649 159.202C-14.9457 159.959 -16.133 165.303 -17.444 166.133ZM-19.0177 173.554C-19.6995 174.111 -20.9227 174.469 -21.5747 174.348C-22.3199 174.209 -22.1565 173.849 -20.9158 173.397C-19.9897 173.081 -19.0337 172.087 -18.9108 171.426C-18.7703 170.671 -18.1816 170.097 -17.7159 170.184C-16.505 170.409 -17.2288 172.227 -19.0177 173.554ZM-20.382 169.492C-21.1799 169.637 -21.4822 169.19 -21.0623 168.487C-20.753 167.861 -19.8674 167.245 -19.1802 167.177C-18.3824 167.033 -18.08 167.48 -18.5 168.183C-18.8092 168.809 -19.6949 169.425 -20.382 169.492ZM-19.3825 165.675C-19.6093 165.34 -19.5443 164.473 -19.142 163.865C-18.722 163.162 -18.4953 163.497 -18.6885 164.535C-18.7885 165.59 -19.1733 166.105 -19.3825 165.675ZM-21.0372 172.495C-21.5029 172.408 -21.8808 171.85 -21.7754 171.284C-21.6876 170.812 -21.1868 170.71 -20.7737 171.08C-20.2675 171.467 -19.9828 172.008 -20.0354 172.291C-20.0706 172.48 -20.4783 172.599 -21.0372 172.495Z" fill="#5A430B" fill-opacity="0.62"/>
<path d="M160.699 99.853C161.151 94.9543 161.071 93.8455 159.962 93.6392C159.352 93.5258 158.919 93.0805 158.996 92.6694C159.192 91.6122 157.547 89.3613 155.348 87.6153C154.204 86.6733 152.385 85.9701 149.88 85.5646C140.999 83.9728 135.017 88.9971 133.006 99.804C132.066 104.855 132.263 108.112 133.554 110.115C134.099 110.885 134.199 111.268 133.8 110.951C132.656 110.008 133.568 111.272 134.79 112.411C137.977 115.313 140.131 116.686 142.403 117.109C144.277 117.519 144.588 117.698 143.68 117.954C143.016 118.135 142.75 118.328 143.138 118.401C144.447 118.766 151.498 116.006 153.898 114.205C157.426 111.58 160.083 105.937 160.699 99.853ZM157.154 100.409C156.322 100.254 156.289 100.126 157.097 99.7904C157.85 99.4443 157.705 99.2959 156.541 99.0793C155.654 98.9142 155.044 98.4968 155.109 98.1444C155.175 97.792 155.706 97.7086 156.283 97.9983C156.86 98.288 157.259 98.3014 157.148 97.9768C157.025 97.711 157.368 97.4101 157.855 97.2577C158.508 97.1363 158.665 97.5299 158.424 98.8221C158.184 100.114 157.819 100.532 157.154 100.409ZM154.756 107.133C154.754 106.525 154.453 105.983 154.176 105.931C153.844 105.869 153.689 106.084 153.812 106.35C153.923 106.674 153.658 106.868 153.214 106.785C152.771 106.703 152.526 106.475 152.715 106.389C152.914 106.243 152.669 105.711 152.191 105.197C151.479 104.396 151.546 104.348 152.799 104.703C154.695 105.299 155.362 106.03 155.088 107.195C154.869 108.065 154.813 108.055 154.756 107.133ZM156.115 93.0449C155.892 92.3957 155.649 92.4719 155.241 93.4291C154.756 94.4934 154.579 94.5212 153.979 93.741C153.556 93.2371 153.299 92.4601 153.376 92.0489C153.562 91.0505 152.365 91.01 151.326 91.9712C150.839 92.4276 150.496 92.4245 150.339 92.0308C150.183 91.6371 150.68 90.818 151.421 90.2267C152.571 89.2861 152.748 89.2583 152.595 90.0806C152.497 90.6092 152.719 90.9545 153.029 90.8298C153.405 90.6568 153.548 90.1972 153.448 89.8139C153.302 89.3615 153.369 89.3131 153.602 89.5996C153.825 89.9448 153.948 90.5147 153.882 90.8671C153.806 91.2782 154.239 91.7235 154.849 91.837C156.646 92.3536 156.746 92.4329 156.603 93.1965C156.505 93.7251 156.394 93.7044 156.115 93.0449ZM153.076 109.069C152.711 109.183 152.699 108.938 152.953 108.499C153.538 107.514 153.958 107.41 153.805 108.232C153.74 108.585 153.442 108.954 153.076 109.069ZM151.584 110.614C151.351 110.328 151.227 109.758 151.315 109.288C151.446 108.583 151.557 108.604 152.113 109.315C152.791 110.292 152.373 111.308 151.584 110.614ZM151.621 111.958C151.487 111.751 150.568 112.066 149.584 112.733C147.482 114.165 146.351 113.772 146.068 111.593C145.797 109.659 146.979 108.238 148.587 108.537C149.529 108.713 152.074 111.374 151.953 112.02C151.91 112.255 151.743 112.224 151.621 111.958ZM151.983 93.3697C151.706 93.3181 151.45 93.1491 151.472 93.0316C151.505 92.8554 151.837 92.6133 152.147 92.4887C152.512 92.3744 152.712 92.5331 152.658 92.8268C152.592 93.1792 152.316 93.4316 151.983 93.3697ZM150.941 97.4294C150.574 96.9358 149.886 96.6255 149.41 96.7191C148.513 96.9168 148.709 95.5556 149.682 94.9468C149.948 94.7532 149.992 94.8222 149.76 95.1437C149.462 95.5135 149.773 95.9969 150.561 96.3865C151.294 96.7659 151.827 97.2905 151.761 97.6429C151.674 98.1128 151.408 98.0025 150.941 97.4294ZM150.091 98.9121C149.648 98.8295 149.47 98.5533 149.691 98.2906C149.912 98.0279 150.311 98.0414 150.555 98.2692C151.177 98.9319 151.034 99.0874 150.091 98.9121ZM151.075 89.3116C150.831 89.0838 150.421 89.433 150.124 90.1069C149.65 91.1125 149.473 91.1403 148.817 90.3498C148.161 89.5593 148.249 89.3934 149.212 88.8434C150.606 88.1306 151.792 88.2298 151.628 89.1108C151.574 89.4044 151.319 89.5394 151.075 89.3116ZM143.681 113.944C143.371 114.069 143.193 113.792 143.28 113.323C143.368 112.853 143.633 112.659 143.877 112.887C144.066 113.104 144.244 113.38 144.223 113.498C144.201 113.615 143.935 113.809 143.681 113.944ZM144.591 93.0271C142.817 92.697 142.406 92.4383 142.748 91.8335C143.057 91.4048 143.289 90.7794 143.343 90.4857C143.398 90.1921 143.996 90.0603 144.706 90.2531C145.87 90.4698 145.859 90.5285 144.718 90.8024C143.876 91.0104 143.733 91.1659 144.332 91.3381C144.753 91.5381 145.363 91.6516 145.596 91.6341C145.884 91.627 145.829 91.9206 145.542 92.2318C145.166 92.7088 145.377 92.8088 146.241 92.7873C146.95 92.6762 147.383 92.8174 147.162 93.0802C147.007 93.2945 145.81 93.254 144.591 93.0271ZM144.992 89.638C144.826 89.6071 144.592 89.3206 144.492 88.9372C144.38 88.6126 144.546 88.3396 144.823 88.3912C145.155 88.453 145.378 88.7983 145.323 89.092C145.258 89.4444 145.103 89.6587 144.992 89.638ZM139.387 112.051C138.976 111.488 138.443 110.964 138.121 110.843C137.001 110.392 135.977 108.804 135.662 107.104C135.313 104.669 135.576 103.868 136.267 105.394C136.602 106.064 136.935 106.43 136.979 106.195C137.033 105.901 137.744 106.398 138.5 107.268C139.311 108.148 139.988 108.517 140.053 108.164C140.119 107.812 140.418 107.746 140.762 108.053C141.196 108.499 141.163 108.675 140.631 108.758C140.099 108.841 140.089 109.204 140.48 110.188C140.803 110.917 140.85 111.898 140.596 112.337C140.188 112.99 140.021 112.959 139.387 112.051ZM141.75 91.6478C141.719 92.4319 141.454 92.6256 140.943 92.2875C140.533 92.0288 140.167 92.1431 140.102 92.4955C140.036 92.8479 139.848 92.9344 139.67 92.6582C139.436 92.3717 139.756 91.8844 140.321 91.6248C140.896 91.3065 141.383 90.8501 141.504 90.508C141.558 90.2144 141.957 89.9239 142.422 89.8889C142.943 89.8643 142.932 89.923 142.478 90.2032C142.102 90.3763 141.749 91.0398 141.75 91.6478ZM138.221 97.9791C137.955 98.1728 137.944 97.9276 138.142 97.4783C138.396 97.0394 138.327 96.1759 138.026 95.6338C137.436 94.4909 138.374 92.8424 139.196 93.6638C139.74 94.1297 139.006 97.4569 138.221 97.9791ZM137.246 102.598C136.837 102.948 136.107 103.176 135.719 103.104C135.275 103.022 135.374 102.797 136.116 102.51C136.669 102.309 137.244 101.686 137.321 101.275C137.408 100.805 137.762 100.446 138.039 100.498C138.759 100.632 138.319 101.765 137.246 102.598ZM136.453 100.081C135.977 100.175 135.799 99.8984 136.053 99.4595C136.24 99.069 136.771 98.6816 137.181 98.6364C137.657 98.5427 137.835 98.8189 137.581 99.2578C137.394 99.6483 136.863 100.036 136.453 100.081ZM137.068 97.7038C136.934 97.4966 136.977 96.9577 137.22 96.5775C137.474 96.1386 137.607 96.3458 137.487 96.9918C137.422 97.6482 137.19 97.9697 137.068 97.7038ZM136.048 101.95C135.771 101.898 135.548 101.553 135.614 101.201C135.669 100.907 135.968 100.841 136.212 101.069C136.512 101.307 136.679 101.642 136.646 101.818C136.624 101.936 136.381 102.012 136.048 101.95Z" fill="#5A430B" fill-opacity="0.62"/>
<path d="M117.543 45.8336C118.159 41.0658 117.598 38.249 115.973 36.048L113.602 32.7586L112.214 42.4008C111.339 49.2903 110.589 51.8632 109.409 51.6436C108.492 51.4728 107.928 52.3172 108.232 53.5946C108.546 55.5517 108.391 55.6584 106.955 53.8994C105.175 51.805 105.056 48.7992 106.803 50.3448C107.385 50.8601 108.4 50.5065 109.013 49.3999C110.958 46.2357 111.248 42.4922 109.544 42.1751C108.233 41.9311 108.282 41.669 109.608 41.102C110.623 40.7484 111.105 39.6175 110.644 38.4469C110.16 37.4073 110.672 34.6546 111.66 32.2616C112.648 29.8686 113.096 28.1889 112.498 28.4846C111.925 28.6491 111.087 26.5944 110.633 23.9331C110.063 20.4365 108.249 17.7934 103.805 13.9826C92.5625 4.43123 76.2379 3.97016 62.5225 12.8101C47.8986 22.159 41.3345 37.7547 42.6748 59.7037C43.5216 74.1016 46.7587 81.4852 55.0563 87.9117C65.1007 95.8839 80.8368 97.3205 93.8601 91.4711C99.1889 89.0722 108.268 79.6407 108.975 75.8393C109.17 74.7906 107.518 76.3818 105.466 79.3906C101.027 85.7525 94.9972 90.4621 88.9795 92.1903C85.5408 93.1778 86.1871 92.62 91.8421 89.1968C98.7166 85.0512 109.536 72.8243 110.39 68.2364C110.731 66.4013 110.994 66.4501 111.856 68.3737C112.506 69.9864 112.807 69.0932 112.835 65.3009C112.887 61.3775 113.213 60.3532 114.271 61.2282C115.304 62.2342 115.786 61.1033 116.207 57.3842C116.457 54.5827 117.146 49.4216 117.543 45.8336ZM106.635 59.2646C105.979 59.1427 105.446 58.3653 105.617 57.4477C105.763 56.6612 105.418 56.3259 104.952 56.6459C104.33 57.0727 104.504 58.3256 105.095 59.5206C105.924 60.8955 105.754 61.8131 104.869 62.1911C104.116 62.5934 103.354 62.316 103.19 61.7429C102.589 59.868 103.592 56.6642 104.821 56.6215C106.934 56.2009 108.433 56.8869 108.189 58.1977C108.043 58.9842 107.421 59.411 106.635 59.2646ZM103.456 46.467C102.8 46.3451 102.014 46.1987 101.621 46.1255C101.227 46.0523 101.038 45.6103 101.243 45.2414C101.34 44.7171 100.831 43.8086 100.142 43.138C99.3466 42.3118 100.313 42.2204 102.672 42.6595C105.139 43.254 106.196 44.129 105.608 45.1045C105.044 45.9489 104.111 46.589 103.456 46.467ZM96.8394 71.8178C94.5195 70.4367 93.3336 71.7079 94.2633 74.7289C94.946 76.8903 93.8912 78.1859 88.605 81.8133C80.4135 87.2057 74.7311 88.5894 66.604 87.077C61.7539 86.1744 59.8029 84.9976 57.1692 81.6594C55.3311 79.1474 54.4867 78.5834 55.2914 80.0894C56.6875 82.7904 56.6631 82.9215 54.072 80.8118C51.1121 78.4979 47.9696 68.4195 48.9056 64.1182C49.2959 62.0208 49.616 62.4873 50.8657 65.9748C51.8198 68.8648 53.2799 70.4927 54.6151 70.6056C55.9747 70.5873 57.3191 71.38 57.7214 72.133C58.075 73.1481 57.6574 73.206 56.5996 72.3311C55.2217 70.9897 55.173 71.2519 56.4044 73.3797C57.1025 74.7302 58.4803 76.0716 59.3979 76.2424C60.3155 76.4131 61.5866 77.5991 62.3091 78.8185C63.7295 81.3884 66.2354 81.041 65.6746 78.2242C65.4521 77.2334 66.3759 75.9135 67.5953 75.1911C69.5677 74.0663 69.8055 74.2461 68.842 76.508C68.2871 78.0323 68.1987 79.2364 68.6986 79.4651C71.6647 80.2883 74.4022 81.6114 74.9113 82.5199C75.3624 83.0107 73.6583 82.6936 71.2409 81.8369C65.6684 79.7149 67.3267 82.4647 72.9815 84.8732C76.3987 86.1873 77.0785 86.1782 76.7159 84.4832C76.5665 83.0992 77.597 81.9347 79.3407 81.3099C81.0601 80.8161 82.5082 79.5937 82.7033 78.5451C82.8985 77.4964 83.9868 76.7496 85.0355 76.9447C86.0841 77.1399 86.831 78.2282 86.6114 79.408C86.4163 80.4566 86.8186 81.2096 87.5472 80.9383C88.1447 80.6427 88.8795 78.8807 89.0899 77.0211C89.1693 75.1372 89.8309 73.7685 90.4863 73.8904C91.2728 74.0368 91.4679 72.9881 90.9497 71.3999C90.1603 69.083 90.3402 68.8452 92.7088 69.9641C94.7085 70.8787 95.1506 70.6898 94.6324 69.1015C94.1142 67.5132 94.2453 67.5376 95.3366 68.9613C96.1078 69.9185 97.6076 70.6045 98.8606 70.4308C100.293 70.0193 100.613 70.4858 99.7629 71.4125C98.9367 72.2081 97.6838 72.3818 96.8394 71.8178ZM101.75 26.4843C101.298 25.9934 101.256 24.7649 101.844 23.7894C102.564 22.8383 103.472 22.3293 104.054 22.8445C104.505 23.3353 104.548 24.5639 103.96 25.5393C103.24 26.4904 102.332 26.9995 101.75 26.4843ZM96.9418 32.6419C92.3692 30.9773 86.891 31.9921 87.6805 34.309C88.0096 35.4553 87.8298 35.693 87.2963 34.9156C86.7629 34.1383 86.4581 32.8609 86.6045 32.0744C86.6441 31.1325 85.9552 30.4618 84.9888 30.5532C83.8914 30.6202 83.6201 29.8916 84.2085 28.9161C84.8213 27.8096 84.2635 27.1633 82.4039 26.9528C80.9376 26.8156 79.4316 27.6203 78.9255 28.8823C78.3218 30.6687 78.5596 30.8486 80.3766 29.8305C81.5716 29.2391 82.4069 29.1233 82.2849 29.7787C81.9434 31.6139 79.7423 33.2386 77.5718 33.2416C76.4744 33.3086 75.9988 32.9489 76.5963 32.6532C77.2182 32.2264 77.3799 30.629 76.8373 29.1719C76.2612 27.1659 76.5143 26.5349 77.7184 26.6234C79.0293 26.8673 79.0781 26.6051 77.9959 25.8613C77.1271 25.4283 76.5845 23.9712 76.8041 22.7914C77.3255 20.7185 77.3255 20.7185 78.1149 23.0353C79.3067 26.1052 83.0746 26.2639 85.0197 23.0997C86.6294 20.2799 86.1356 18.5606 82.9623 15.9357C81.0845 14.3656 81.0022 14.0791 83.0904 13.7896C84.7854 13.4269 85.1299 13.7622 84.2793 14.6889C83.4287 15.6156 83.7976 15.8199 85.3371 15.5639C86.59 15.3902 87.5076 15.5609 87.41 16.0853C85.9984 20.0269 86.9739 20.6153 90.9675 18.1035C94.519 15.7808 95.7476 15.7381 99.2227 17.4698C101.329 18.5399 103.149 19.6923 103.076 20.0856C103.003 20.4788 102.192 20.4636 101.478 19.924C100.61 19.491 98.7258 19.4117 97.1619 19.7988C95.4181 20.4236 94.8938 20.326 95.5889 19.506C97.6497 17.1771 94.6592 16.485 91.9429 18.6919C89.2267 20.8989 89.3577 20.9233 94.281 21.4326C97.0825 21.6827 99.4755 22.6705 99.4846 23.3503C100.088 27.3957 101.533 29.8345 102.859 29.2676C103.874 28.914 103.728 29.7005 102.362 31.2094C100.923 33.1116 99.4903 33.5231 96.9418 32.6419ZM87.7105 44.3507C80.0589 43.198 78.7298 41.5944 83.4855 39.3601L86.9151 37.6928L83.9094 37.8115C82.1321 37.8877 80.8701 37.3816 80.992 36.7261C81.3335 34.891 85.5861 36.0892 88.1863 38.8787C89.5641 40.2201 91.0396 41.0371 91.506 40.7171C92.4632 39.9459 95.8926 44.1102 94.9597 44.7504C94.6244 45.0948 91.2741 44.8782 87.7105 44.3507ZM74.3657 78.8922C71.4058 76.5783 71.4302 76.4472 77.0911 77.3651C81.4413 78.039 81.679 78.2188 79.289 79.4015C77.3654 80.2642 75.8991 80.1269 74.3657 78.8922ZM80.813 19.4688C78.7735 19.4961 77.9047 19.0632 78.5754 18.3743C79.2461 17.6853 78.7706 17.3256 77.3622 17.606C76.1093 17.7797 74.8472 17.2736 74.4936 16.2584C74.1401 15.2433 74.1889 14.9811 74.7467 15.6274C75.1735 16.2493 76.5087 16.3622 77.7037 15.7708C79.103 14.8106 79.6029 15.0393 79.4078 16.088C79.2614 16.8745 80.3192 17.7494 81.7611 18.0177C85.4314 18.7008 84.8674 19.5452 80.813 19.4688ZM76.3063 42.2284C74.151 41.4205 72.8952 39.4237 74.8614 39.7896C75.779 39.9603 76.1387 39.4848 75.8918 38.6251C75.6206 37.8965 76.1358 37.3143 77.0778 37.3539C77.9953 37.5247 77.6997 36.9272 76.3797 36.0034C74.5598 34.851 74.5019 34.4334 76.0749 34.7261C78.8521 35.1073 79.2544 35.8603 78.5714 39.5306C78.2299 41.3658 77.3305 42.5546 76.3063 42.2284ZM72.9753 20.0446C71.1311 19.0232 63.8419 25.3972 64.5734 27.2965C64.8447 28.0251 64.1831 29.3938 62.9149 30.3784C61.7778 31.3874 60.8784 32.5762 61.0674 33.0183C61.2564 33.4603 60.6345 33.8871 59.537 33.9541C58.4396 34.0211 58.3573 33.7345 59.2658 33.2255C60.1498 32.8475 61.1712 31.0032 61.7748 29.2169C63.1774 24.5955 70.8995 17.3527 72.9571 18.6849C75.0392 19.8861 75.0574 21.2458 72.9753 20.0446ZM60.8109 43.1422C60.4908 42.6758 60.3994 41.7094 60.5214 41.054C60.6433 40.3986 60.2166 39.7767 59.4301 39.6303C58.7503 39.6394 58.0064 40.7216 58.0246 42.0812C58.0185 43.5719 57.4057 44.6785 56.8813 44.5809C55.1773 44.2638 56.0707 38.7339 58.0096 37.0604C60.2351 35.3046 62.8932 38.5117 62.0212 41.74C61.6706 42.8953 61.1309 43.6087 60.8109 43.1422ZM58.5455 51.6717C56.2621 53.0099 56.2498 55.9913 58.7221 55.0952C61.3743 53.9613 59.3896 58.0674 56.3532 59.808C52.5639 61.9509 52.0396 61.8533 53.0762 59.1981C53.5823 57.9361 54.0396 56.9362 54.3018 56.985C54.4328 57.0094 54.9389 55.7474 55.3872 54.0677C56.0152 52.1502 55.6373 51.2661 54.5154 51.4642C52.5583 51.7781 53.1437 48.6322 55.2716 47.4007C55.8935 46.9739 55.9758 47.2605 55.2807 48.0805C54.61 48.7694 54.5948 49.5803 55.2502 49.7023C56.0367 49.8486 56.9939 49.0774 57.7134 48.1263C58.3018 47.1508 59.3901 46.404 60.1766 46.5504C62.1429 46.9163 61.1154 50.2513 58.5455 51.6717ZM55.0786 68.115C53.9476 67.6333 53.2252 66.4139 53.1826 65.1853C53.3839 62.646 53.3839 62.646 55.9659 64.0758C58.1302 65.5636 57.5204 68.8406 55.0786 68.115ZM53.2692 38.4838C52.7449 38.3862 52.4401 37.1089 52.7084 35.667C52.9767 34.2251 53.7206 33.1429 54.376 33.2649C55.1625 33.4113 55.3362 34.6642 54.9368 36.0817C54.5374 37.4992 53.7935 38.5814 53.2692 38.4838Z" fill="#5A430B"/>
</svg>
