<svg width="23" height="23" viewBox="0 0 23 23" fill="none" xmlns="http://www.w3.org/2000/svg">
<path fill-rule="evenodd" clip-rule="evenodd" d="M0 21.7471C0 21.4456 0.0987722 21.1565 0.274588 20.9433C0.450403 20.7301 0.68886 20.6103 0.9375 20.6103H21.5625C21.8111 20.6103 22.0496 20.7301 22.2254 20.9433C22.4012 21.1565 22.5 21.4456 22.5 21.7471C22.5 22.0486 22.4012 22.3378 22.2254 22.551C22.0496 22.7642 21.8111 22.884 21.5625 22.884H0.9375C0.68886 22.884 0.450403 22.7642 0.274588 22.551C0.0987722 22.3378 0 22.0486 0 21.7471ZM0 14.9261C0 14.6246 0.0987722 14.3354 0.274588 14.1222C0.450403 13.909 0.68886 13.7893 0.9375 13.7893H21.5625C21.8111 13.7893 22.0496 13.909 22.2254 14.1222C22.4012 14.3354 22.5 14.6246 22.5 14.9261C22.5 15.2276 22.4012 15.5168 22.2254 15.73C22.0496 15.9432 21.8111 16.0629 21.5625 16.0629H0.9375C0.68886 16.0629 0.450403 15.9432 0.274588 15.73C0.0987722 15.5168 0 15.2276 0 14.9261ZM0 8.10507C0 7.80357 0.0987722 7.51441 0.274588 7.30121C0.450403 7.08801 0.68886 6.96824 0.9375 6.96824H21.5625C21.8111 6.96824 22.0496 7.08801 22.2254 7.30121C22.4012 7.51441 22.5 7.80357 22.5 8.10507C22.5 8.40658 22.4012 8.69574 22.2254 8.90894C22.0496 9.12214 21.8111 9.24191 21.5625 9.24191H0.9375C0.68886 9.24191 0.450403 9.12214 0.274588 8.90894C0.0987722 8.69574 0 8.40658 0 8.10507ZM0 1.28405C0 0.982546 0.0987722 0.693387 0.274588 0.480189C0.450403 0.266991 0.68886 0.147217 0.9375 0.147217H21.5625C21.8111 0.147217 22.0496 0.266991 22.2254 0.480189C22.4012 0.693387 22.5 0.982546 22.5 1.28405C22.5 1.58556 22.4012 1.87472 22.2254 2.08792C22.0496 2.30112 21.8111 2.42089 21.5625 2.42089H0.9375C0.68886 2.42089 0.450403 2.30112 0.274588 2.08792C0.0987722 1.87472 0 1.58556 0 1.28405Z" fill="white"/>
</svg>
