<svg width="279" height="480" viewBox="0 0 279 480" fill="none" xmlns="http://www.w3.org/2000/svg">
<path d="M41.416 405.913C71.4242 398.708 98.9152 385.148 122.409 365.945C128.071 361.382 141.688 348.199 146.554 342.634C177.579 307.218 194.682 263.104 194.325 219.624C193.99 180.649 178.022 140.277 150.361 108.339C143.978 101.002 144.05 101.064 136.945 94.0995C111.075 68.7589 76.9786 49.8088 41.6351 41.0539C27.1608 37.4844 9.86239 35.2058 -3.60618 35.124C-6.64169 35.1105 -6.84904 35.18 -8.64877 36.9225L-10.5504 38.7635L-5.07284 38.7746C1.65964 38.7517 10.7843 39.4307 18.6272 40.4321C59.4205 45.7478 99.2665 64.4461 129.749 92.5373C137.558 99.7388 138.168 100.329 144.112 106.974C148.002 111.278 155.919 121.065 155.967 121.543C155.937 121.704 155.418 121.878 154.757 121.928C153.225 122.033 152.204 122.955 152.884 123.544C153.17 123.792 154.289 123.889 155.367 123.764C157.559 123.545 159.268 124.777 158.003 125.674C157.045 126.339 157.815 127.692 158.992 127.341C159.683 127.13 160.143 127.341 160.797 128.282C162.175 130.098 162.144 130.259 159.956 130.606C158.775 130.766 157.736 131.05 157.532 131.247C156.717 132.036 158.478 132.627 160.879 132.402C163.244 132.146 163.491 132.235 164.153 133.432C164.85 134.659 164.816 134.692 163.429 134.985C162.424 135.236 162.013 135.503 162.028 136.014C162.042 136.525 162.605 136.701 164.036 136.694C165.884 136.676 166.097 136.798 166.904 138.182C167.857 139.818 167.823 139.851 164.278 140.33C163.062 140.523 161.782 140.909 161.477 141.205C160.424 142.224 161.969 142.566 165.269 142.061C167.11 141.787 168.746 141.647 168.925 141.802C169.819 142.577 170.649 144.791 170.207 145.218C169.834 145.58 169.982 145.895 170.833 146.384C171.756 146.934 172.811 148.471 173.087 149.582C173.124 149.677 171.564 150.007 169.723 150.28C167.012 150.673 166.323 150.948 166.305 151.555C166.357 152.161 166.918 152.274 169.008 152.153C170.47 152.049 172.279 151.872 172.973 151.726C174.811 151.324 175.233 152.687 173.469 153.214C171.567 153.809 171.948 154.949 174.041 154.956C175.471 154.949 175.79 155.1 176.237 156.111L176.759 157.311L173.221 158.046C169.995 158.677 168.554 159.547 169.484 160.352C169.663 160.507 171.506 160.297 173.551 159.826C175.598 159.419 177.367 159.084 177.475 159.177C177.582 159.27 177.734 159.713 177.85 160.125C178.044 160.791 177.838 160.924 176.349 161.316C174.999 161.704 174.658 161.969 174.674 162.544C174.691 163.119 175.182 163.233 176.748 163.095C179.044 162.841 179.467 163.021 179.752 164.451C179.917 165.342 179.607 165.51 175.344 166.488C171.15 167.465 169.88 168.17 170.809 168.976C170.988 169.131 173.212 168.815 175.707 168.236C180.355 167.279 180.879 167.297 181.23 168.597C181.387 169.232 181.217 169.396 179.934 169.655C179.103 169.869 178.381 170.24 178.318 170.498C178.161 171.109 179.128 172.009 179.468 171.681C179.638 171.516 180.262 171.372 180.852 171.26C181.894 171.104 182.001 171.197 182.529 172.588C182.865 173.378 183.026 174.14 182.924 174.239C182.822 174.338 180.811 174.776 178.521 175.221C174.149 176.043 173.082 176.551 173.976 177.326C174.405 177.698 180.004 177.066 182.843 176.286C183.5 176.109 183.644 176.233 183.696 176.838C183.712 177.413 183.37 177.678 182.226 177.933C181.359 178.116 180.705 178.421 180.675 178.582C180.714 178.741 180.056 178.918 179.289 178.939C178.313 178.966 177.9 179.169 177.913 179.616C177.942 180.637 179.347 180.983 180.162 180.194C180.536 179.832 180.984 179.66 181.127 179.784C181.306 179.939 182.037 179.887 182.763 179.644C184.113 179.256 185.1 179.612 184.916 180.512C184.853 180.769 183.055 181.329 180.869 181.74C177.399 182.41 175.819 183.283 176.713 184.058C176.892 184.213 178.839 183.968 181.093 183.492C185.36 182.641 185.535 182.668 185.811 183.779C186 184.317 185.416 184.62 183.163 185.161C180.427 185.842 179.574 186.536 180.468 187.311C180.718 187.528 182.143 187.33 183.632 186.938L186.333 186.225L186.729 187.876C186.929 188.797 187.092 189.624 187.13 189.719C187.167 189.813 185.121 190.22 182.587 190.705C180.088 191.156 177.908 191.758 177.777 192.081C177.613 192.437 177.162 192.545 176.774 192.396C175.752 192.009 174.427 193.291 175.143 193.91C175.464 194.189 176.058 194.205 176.471 194.002C177.536 193.43 177.779 193.391 183.021 192.45C187.463 191.627 187.533 191.625 187.742 192.865L187.987 194.137L184.269 194.653C178.813 195.408 175.172 196.178 174.561 196.77C173.61 197.691 174.985 198.197 177.098 197.66C178.206 197.374 181.227 196.877 183.799 196.551L188.422 195.947L188.498 197.382C188.571 198.754 188.504 198.82 187.05 199.243C185.838 199.564 185.463 199.861 185.477 200.372C185.494 200.947 185.951 201.094 187.31 201.025L189.085 200.881L189.281 202.857L189.44 204.802L182.527 205.853C178.741 206.435 175.586 207.127 175.524 207.385C175.241 208.511 176.813 208.564 183.066 207.627L189.805 206.614L189.858 208.466L189.874 210.287L187.238 210.805C185.781 211.101 184.431 211.489 184.227 211.686C183.378 212.508 185.279 213.095 187.465 212.685C189.755 212.239 189.827 212.301 190.176 213.538C190.335 214.236 190.423 214.873 190.389 214.906C190.321 214.972 187.688 215.618 184.465 216.377C178.503 217.753 177.366 218.263 178.296 219.069C178.761 219.471 187.992 217.751 189.889 216.965C190.13 216.862 190.393 217.526 190.456 218.515L190.505 220.239L188.386 220.584C187.205 220.744 186.096 221.03 185.893 221.227C185.18 221.917 186.771 222.673 188.439 222.436L190.176 222.197L190.291 223.792L190.37 225.355L186.614 225.777C184.492 225.994 182.724 226.394 182.698 226.682C182.482 227.679 183.676 227.966 186.736 227.627L190.006 227.283L190.082 228.718C190.205 230.632 189.898 230.864 187.284 230.967C185.159 231.057 184.306 231.751 185.308 232.619C185.558 232.836 186.677 232.933 187.825 232.806L189.877 232.59L189.785 234.255L189.726 235.886L185.484 236.384C183.189 236.638 181.072 237.047 180.834 237.278C179.816 238.264 181.922 238.718 185.468 238.302L189.292 237.815L189.339 239.475L189.386 241.136L187.103 241.837C185.893 242.221 184.687 242.733 184.449 242.963C183.668 243.719 185.079 244.256 186.741 243.828C188.541 243.331 189.14 243.539 188.647 244.607C188.449 244.996 187.24 245.444 185.714 245.741C184.291 246.003 182.907 246.424 182.601 246.72C181.617 247.673 183.061 248.177 185.419 247.666C186.703 247.408 187.85 247.281 187.993 247.404C188.315 247.683 186.427 257.385 184.789 263.628C181.835 275.148 175.753 290.747 169.894 301.93C155.791 328.771 135.963 351.773 111.183 369.924C89.5139 385.787 61.7793 398.139 36.3883 403.301L32.9543 404.002L34.7424 405.551L36.4948 407.069L41.416 405.913Z" fill="#7F5B01"/>
<path d="M-22.3308 355.975C-19.4024 355.83 -13.727 354.551 -9.23866 353.087L-4.7503 351.623L-4.66029 354.497C-4.56215 358.521 -4.09688 360.211 -2.36584 363.364C3.42799 373.934 21.4752 376.415 32.4717 368.141C38.2299 363.762 41.4515 355.757 39.873 349.506L39.2997 347.337L41.4982 347.548C42.7194 347.636 45.2986 347.429 47.179 347.035C55.9546 345.258 62.9565 339.211 65.2382 331.436C66.1232 328.364 66.0507 323.03 64.9492 320.13L64.2018 317.994L65.6336 318.273C77.6458 320.502 91.4786 318.791 102.393 313.679C113.411 308.535 121.27 300.343 125.347 289.937C129.97 277.995 129.99 266.017 125.527 241.287L123.749 231.555L126.754 232.304C131.156 233.428 133.528 233.542 137.359 232.816C150.802 230.245 159.27 219.494 156.715 208.297C153.368 193.655 134.035 186.838 120.321 195.384C118.967 196.254 117.786 196.964 117.646 196.965C117.507 196.966 115.733 187.745 113.666 176.481C107.427 142.403 107.175 141.286 101.669 126.977C95.5227 110.946 89.3873 101.399 79.5254 92.5452C69.7332 83.6911 62.0375 80.3506 50.5962 79.9711C43.2011 79.6955 36.3414 81.1735 28.8334 84.6678C24.2798 86.771 14.2407 92.3566 9.58897 95.3867C6.9855 97.0951 5.8381 97.5811 4.86077 97.4591C-6.6952 95.6428 -25.8735 95.948 -38.6219 98.1316C-44.0556 99.0582 -54.744 101.581 -58.9192 102.947C-61.5637 103.794 -62.1216 103.797 -63.697 102.944C-66.1825 101.585 -68.9791 100.643 -71.6672 100.244C-73.8661 99.9693 -74.0749 100.034 -75.9112 101.738L-77.8861 103.571L-74.7818 103.648C-73.1075 103.702 -70.4189 104.165 -68.8458 104.699C-66.2595 105.514 -65.4536 106.053 -62.4001 108.814C-59.1009 111.797 -58.8192 112.178 -57.5053 115.525C-55.7648 120.018 -55.5344 123.019 -56.5513 127.178C-57.3306 130.409 -57.4687 130.601 -60.3449 133.206C-62.5281 135.167 -64.0553 136.198 -65.9676 137.008C-68.6453 138.078 -68.6453 138.078 -73.6435 136.479C-76.4396 135.601 -80.8411 134.541 -83.459 134.205C-87.5785 133.591 -88.3475 133.34 -89.1223 132.258C-90.8115 130.096 -92.6667 124.166 -92.7253 120.812L-92.7833 117.522L-118.214 141.183L-143.609 164.875L-145.045 168.972C-151.094 186.481 -149.565 205.51 -139.848 233.402C-138.531 237.132 -137.564 240.672 -137.665 241.279C-138.17 243.806 -137.715 249.042 -136.788 251.847L-135.721 254.844L-129.052 260.873C-125.367 264.206 -121.824 267.155 -121.125 267.407C-120.355 267.722 -119.969 268.071 -120.037 268.391C-120.104 268.71 -119.12 269.854 -117.821 271.029L-115.469 273.155L-115.868 271.081L-116.266 269.007L-114.556 269.221C-113.648 269.343 -111.764 269.523 -110.403 269.547L-107.926 269.692L-107.736 271.895C-107.083 280.484 -99.2882 287.977 -89.6891 289.229C-85.0464 289.873 -81.4224 289.468 -76.6208 287.906C-60.8254 282.638 -50.7576 266.288 -55.5548 253.635C-56.7265 250.671 -57.1846 250.003 -60.2394 247.05C-63.6106 243.748 -63.7154 243.717 -67.3147 242.684C-69.3413 242.121 -70.9841 241.588 -70.9846 241.524C-70.9504 241.428 -70.7124 240.564 -70.4752 239.572L-69.965 237.748L-67.2414 238.243C-65.7398 238.522 -63.6786 239.053 -62.7345 239.399C-61.0562 240.028 -60.9855 240.155 -60.6224 242.197L-60.2934 244.335L-56.8696 245.209C-54.6338 245.771 -53.0247 246.464 -52.1122 247.29C-50.1467 249.067 -48.134 252.6 -47.3812 255.503C-44.0441 268.803 -57.8268 287.508 -74.5667 292.366C-79.1257 293.703 -85.7145 294.029 -90.3933 293.227L-93.9547 292.609L-91.3224 294.989C-89.3921 296.734 -88.4463 297.336 -87.7492 297.268C-86.843 297.198 -86.7377 297.294 -86.6963 298.22C-86.6567 298.89 -85.9174 299.876 -84.4784 301.177L-82.3024 303.145L-82.4613 300.399C-82.5418 298.866 -82.5162 297.556 -82.3776 297.428C-82.2737 297.331 -81.2981 297.198 -80.2871 297.16L-78.4049 297.021L-78.1479 298.84C-77.418 303.435 -75.3702 307.001 -71.334 310.65C-67.7892 313.856 -63.9388 315.877 -58.5572 317.443C-50.7301 319.632 -42.6789 318.978 -36.9136 315.622C-34.1004 313.976 -28.3153 308.479 -26.3827 305.593C-20.3439 296.517 -21.8104 286.368 -30.4533 277.284C-33.721 273.821 -37.0836 271.733 -41.3475 270.416C-43.1649 269.852 -44.6336 269.286 -44.5994 269.19C-44.6349 269.094 -44.4648 268.486 -44.225 267.878C-43.9177 266.95 -43.6396 266.82 -42.0351 266.875C-34.1157 267.307 -25.709 272.56 -21.2637 279.817C-13.9252 291.848 -16.3602 307.546 -27.0305 317.575C-33.5095 323.587 -41.4747 326.541 -51.3087 326.599L-56.3654 326.597L-54.2595 328.501L-52.1888 330.374L-48.1099 330.19C-43.1248 329.937 -35.8511 327.817 -31.3699 325.331C-22.4072 320.423 -15.4648 310.895 -13.6843 301.269C-11.7042 290.301 -14.8108 280.002 -22.5021 272.349C-27.4895 267.332 -32.5296 264.742 -39.338 263.601L-43.039 262.984L-43.0277 259.63C-43.0179 256.084 -44.2346 251.683 -46.0336 248.787L-47.0568 247.1L-42.7619 247.873C-36.1974 249.048 -22.4105 250.723 -18.7136 250.765C-14.8772 250.807 -14.9119 250.839 -17.7763 255.104C-18.7423 256.579 -19.6369 258.309 -19.7372 258.917C-20.4099 262.435 -17.7731 265.454 -12.0729 267.688C-6.86231 269.733 -6.02129 270.303 -4.18721 273.231C-3.05824 275.077 -2.16821 277.659 -1.19355 282.349C-0.40112 285.922 1.2062 291.311 2.34329 294.307C4.82894 300.617 4.76821 301.895 1.93348 305.425C-1.35122 309.438 -1.64727 311.963 0.879745 314.248C1.58169 314.883 3.01753 315.737 4.06639 316.114C6.68878 317.088 7.71158 318.711 7.55727 321.555C7.43895 324.559 5.16668 328.725 1.63585 332.451C-0.683236 334.924 -1.27314 335.343 -3.74297 336.22C-7.04794 337.358 -8.89774 337.145 -13.6197 335.161C-20.7201 332.168 -24.4508 332.286 -37.0484 336.066C-38.162 336.392 -40.3565 336.756 -41.9251 336.861L-44.8183 337.038L-42.8529 338.815C-40.6066 340.846 -41.0597 340.881 -31.1741 338.267C-22.8201 336.046 -20.797 336.097 -14.5358 338.776C-4.70673 342.966 3.42721 339.212 9.79678 327.579C11.8283 323.894 12.191 320.921 11.0193 317.957C9.81332 315.089 9.2864 314.55 6.10245 313.067C2.49867 311.395 2.49689 311.14 6.43402 305.686C8.81699 302.382 8.76432 299.859 6.13692 293.23C4.96518 290.267 3.49962 285.196 2.81429 281.974C1.22585 274.317 -0.0844736 271.482 -3.55912 268.34C-5.73516 266.373 -6.89068 265.709 -9.75786 264.64C-11.6806 263.98 -13.8858 262.811 -14.6229 262.145C-15.7811 261.098 -15.9237 260.651 -15.5845 259.308C-15.3811 258.476 -14.5892 257.034 -13.8634 256.103C-12.1347 253.985 -11.2123 251.264 -11.5754 249.222C-11.9026 247.339 -13.1436 244.44 -13.9859 243.678C-14.3018 243.392 -15.0802 241.8 -15.7548 240.111C-17.5655 235.554 -19.1543 232.784 -22.251 228.841C-24.2569 226.266 -25.2806 224.515 -25.8876 222.506C-26.6027 220.019 -29.9014 212.149 -30.3577 211.736C-30.463 211.641 -30.8873 210.813 -31.3125 209.857L-32.0914 208.201L-28.9493 208.693C-27.1688 208.97 -25.4599 208.992 -25.1125 208.798C-24.7305 208.572 -24.3889 207.548 -24.2567 206.525C-24.1941 205.503 -24.025 204.767 -23.9548 204.83C-23.7091 205.052 -13.915 224.065 -9.56422 232.759C-7.7603 236.358 -4.53308 243.973 -2.43574 249.615C1.54518 260.26 5.40595 268.702 9.21764 275.132C13.9459 282.962 14.6528 284.3 16.1814 288.411C22.0477 304.316 21.1106 319.782 13.455 332.03C10.3863 336.999 4.25294 342.561 -1.61816 345.759C-8.63574 349.569 -17.5104 352.145 -24.762 352.444L-27.6557 352.557L-25.7253 354.302C-24.181 355.699 -23.516 356.046 -22.3308 355.975ZM-130.766 255.198C-131.577 253.893 -132.638 251.791 -133.066 250.452C-134.064 247.391 -133.965 241.769 -132.837 238.536C-130.785 232.71 -123.289 222.603 -120.884 222.43C-119.943 222.328 -119.492 221.974 -118.214 220.21C-116.799 218.189 -116.417 217.963 -111.237 215.601C-101.956 211.361 -95.5137 210.013 -89.4734 211.032C-82.7352 212.11 -77.017 216.899 -74.4585 223.656C-70.8353 233.026 -75.616 247.429 -85.3171 256.43C-99.453 269.546 -121.811 268.944 -130.766 255.198ZM-100.956 278.979C-102.328 277.23 -103.429 274.393 -103.798 271.585L-104.092 269.478L-99.845 268.367C-89.0882 265.652 -80.4516 258.989 -74.4555 248.795C-72.7327 245.846 -72.6634 245.782 -71.3036 245.742C-66.8413 245.524 -61.5839 249.262 -59.5973 254.042C-54.9495 265.29 -64.0867 280.07 -78.4567 284.723C-82.4582 285.992 -89.2927 286.097 -92.789 284.84C-95.2012 283.991 -98.5976 282.063 -99.3719 281.045C-99.5834 280.727 -100.322 279.805 -100.956 278.979ZM-70.8454 305.76C-72.6399 303.503 -74.0582 300.189 -74.285 297.699L-74.4344 296.294L-71.5124 295.255C-62.5379 292.008 -54.1456 285.314 -48.6598 276.944C-45.9339 272.807 -45.5861 272.678 -41.216 274.217C-33.9091 276.825 -26.6214 286.588 -26.5705 293.807C-26.5024 303.454 -36.6112 313.991 -46.9262 315.074C-52.7806 315.683 -60.8512 313.591 -66.0366 310.172C-68.875 308.24 -68.9452 308.177 -70.8454 305.76ZM0.294314 359.802C-0.594382 357.412 -1.2271 351.762 -0.714142 350.321C-0.577813 349.873 0.669923 348.78 2.40588 347.683C4.00324 346.716 6.77861 344.655 8.5816 343.175C11.91 340.408 12.6749 340.084 16.7533 339.836C20.7967 339.557 23.487 340.276 27.0607 342.618C28.9177 343.853 31.2989 345.244 32.314 345.781C37.4931 348.306 37.6867 355.971 32.7803 362.453C29.636 366.592 24.736 369.017 18.7402 369.372C9.99112 369.967 2.57075 366.113 0.294314 359.802ZM-138.976 223.463C-139.903 220.657 -140.512 218.265 -140.408 218.169C-140.235 218.008 -126.682 221.122 -126.366 221.408C-126.296 221.471 -127.195 222.627 -128.371 223.975C-130.377 226.287 -134.141 231.644 -135.034 233.502C-135.446 234.399 -135.446 234.462 -138.976 223.463ZM-138.78 211.707C-136.884 208.597 -130.824 202.524 -126.972 199.85C-111.494 189.153 -91.1741 187.468 -73.6808 195.478C-69.3426 197.433 -65.9792 199.649 -65.5877 200.764C-65.3384 201.498 -64.6378 201.941 -62.5405 202.631C-60.1282 203.479 -54.4213 206.672 -49.761 209.806L-48.0791 210.946L-49.8528 211.628C-52.1134 212.504 -52.7371 213.082 -52.0351 213.717C-51.7192 214.003 -50.3954 213.803 -48.7607 213.186C-46.7431 212.472 -45.8022 212.37 -45.2758 212.846C-44.7493 213.322 -44.8163 213.706 -45.44 214.285C-46.5487 215.314 -45.6357 216.203 -44.1058 215.555C-42.9931 215.101 -41.8407 215.318 -40.858 216.206C-40.4368 216.587 -40.6784 216.94 -42.0666 217.906C-43.1078 218.615 -43.7656 219.29 -43.6936 219.609C-43.5145 220.279 -42.5741 220.113 -40.5241 219.047C-39.4122 218.466 -38.6801 218.429 -38.0493 218.873C-37.2785 219.379 -37.3118 219.603 -38.2126 220.439C-39.6331 221.757 -38.7557 222.55 -36.8785 221.709C-35.7662 221.191 -35.2775 221.252 -34.4352 222.014C-33.1716 223.156 -33.2063 223.188 -36.1256 224.611C-38.4191 225.775 -38.834 226.288 -38.0267 227.018C-37.7459 227.272 -36.3888 226.849 -34.7555 226.041C-32.1147 224.683 -31.8357 224.682 -30.6788 225.537C-29.4869 226.425 -29.4864 226.489 -30.7036 226.975C-32.5115 227.752 -32.7189 228.009 -31.9117 228.739C-31.5256 229.088 -31.0019 229.181 -30.7247 228.924C-30.4475 228.666 -29.6124 228.406 -28.8457 228.337C-27.6955 228.235 -27.2757 228.424 -26.5711 229.442L-25.6905 230.683L-29.1358 231.693C-31.0851 232.216 -32.7193 232.896 -32.7873 233.152C-33.0586 234.24 -31.6282 234.327 -28.2525 233.317C-24.494 232.209 -24.1448 232.271 -23.1221 233.894C-22.5929 234.753 -22.6271 234.849 -24.0539 235.273C-24.8544 235.501 -25.793 235.922 -26.1048 236.211C-27.075 237.111 -25.5716 237.645 -23.7623 237.06C-22.7882 236.735 -21.7425 236.664 -21.4617 236.918C-20.7246 237.585 -19.084 242.75 -18.8936 245.017L-18.7051 247.028L-21.3563 246.916C-26.9376 246.693 -48.3726 243.498 -54.87 241.939L-56.5471 241.502L-57.2783 236.715C-59.0306 225.609 -63.0974 217.616 -70.4679 210.951C-74.1882 207.587 -75.5547 206.669 -80.1381 204.556C-90.1444 199.951 -102.483 200.855 -110.916 206.75C-114.039 208.941 -115.943 210.965 -121.198 217.512C-122.062 218.571 -122.271 218.573 -130.83 216.547C-135.65 215.426 -139.668 214.331 -139.809 214.077C-139.95 213.886 -139.47 212.797 -138.78 211.707ZM-143.539 204.484C-145.472 192.517 -144.754 180.534 -141.542 171.187C-138.432 162.193 -134.289 156.163 -127.113 150.084C-116.783 141.334 -104.433 137.012 -90.6557 137.346C-77.0529 137.649 -64.6734 142.495 -55.1607 151.287C-48.2456 157.666 -43.9443 164.285 -36.2646 180.179L-33.1148 186.709L-42.4859 178.236C-51.892 169.731 -55.6784 166.878 -63.2761 162.611C-65.4472 161.346 -65.6578 161.155 -65.8063 159.879C-65.9165 159.081 -66.3472 157.358 -66.8102 155.988C-67.5931 153.756 -68.0152 153.248 -71.7005 149.915C-75.4554 146.584 -76.0863 146.14 -79.6878 144.788C-85.0032 142.711 -90.2422 141.592 -93.0301 141.864C-95.9923 142.169 -98.4904 143.973 -99.7273 146.599C-100.517 148.425 -100.62 148.521 -101.633 148.368C-102.226 148.275 -103.066 147.897 -103.522 147.484C-105.769 145.453 -110.586 144.779 -113.401 146.105C-117.642 148.047 -119.985 152.15 -120.603 158.446L-120.926 162.026L-123.425 163.829C-126.547 166.084 -131.465 170.968 -133.433 173.759C-136.747 178.506 -138.397 186.917 -136.768 190.421L-136.13 191.823L-128.145 191.743C-123.751 191.717 -120.472 191.826 -120.854 192.052C-123.704 193.41 -127.211 195.571 -130.126 197.633C-133.596 200.081 -139.518 205.897 -141.347 208.687C-141.864 209.489 -142.383 210.099 -142.489 210.004C-142.594 209.909 -143.03 207.42 -143.539 204.484ZM17.0921 333.478C17.8512 332.323 18.5081 331.521 18.5788 331.648C18.6148 331.807 19.1457 332.922 19.7118 334.069L20.7382 336.203L18.0532 336.251C16.5886 336.26 15.4718 336.138 15.5753 335.978C15.6437 335.786 16.3681 334.664 17.0921 333.478ZM23.5396 332.896C21.2763 328.438 21.0513 326.203 22.2724 321.34C23.2574 317.597 23.7379 316.508 25.3641 314.678C28.4436 311.242 35.2551 307.88 38.8134 308.05C39.6157 308.077 42.0293 309.117 44.3052 310.413C46.5461 311.678 50.7798 313.665 53.7518 314.766L59.0668 316.778L60.2691 319.135C62.6391 323.881 62.4371 329.855 59.7842 334.439C57.8197 337.74 53.3808 341.281 49.6587 342.612C44.2664 344.465 38.0214 344.087 32.3887 341.532C29.0301 340.019 25.2729 336.368 23.5396 332.896ZM-107.692 209.031C-102.241 205.581 -94.2629 204.416 -87.1719 206.067C-77.5314 208.246 -68.8651 215.701 -64.4369 225.481C-63.2327 228.094 -61.2286 235.365 -61.575 235.686C-61.7136 235.815 -62.9703 235.631 -64.403 235.224C-65.8006 234.849 -67.5123 234.444 -68.2102 234.384C-69.4323 234.168 -69.4678 234.072 -69.2343 232.569C-68.563 228.86 -70.6392 221.27 -73.4227 217.229C-80.2231 207.335 -92.8676 204.472 -106.676 209.696C-108.484 210.346 -109.946 210.801 -109.947 210.674C-109.948 210.546 -108.906 209.837 -107.692 209.031ZM-133.455 185.482C-132.924 176.758 -126.075 168.796 -112.805 161.434C-105.476 157.334 -97.8505 155.596 -90.5219 156.319C-82.5652 157.103 -71.3035 161.7 -60.6186 168.568C-54.5229 172.493 -54.1022 172.81 -54.7951 173.453C-55.5573 174.16 -54.4711 174.889 -53.218 174.562C-52.5219 174.366 -51.788 174.585 -51.086 175.22C-50.0682 176.14 -50.0678 176.204 -51.5954 177.172C-54.0607 178.687 -54.6142 179.33 -54.0526 179.837C-53.7016 180.155 -52.6577 179.829 -51.0248 178.957C-49.1143 177.892 -48.3484 177.695 -47.8922 178.108C-47.3657 178.584 -47.4687 178.808 -48.3372 179.292C-50.0394 180.229 -48.4271 181.369 -46.6197 180.528C-45.3678 180.01 -45.0884 180.072 -44.1399 181.056C-43.0154 182.264 -43.1185 182.488 -45.4115 183.715C-46.4189 184.264 -46.4873 184.456 -45.8556 185.028C-45.3291 185.504 -44.7019 185.436 -43.3466 184.757C-41.8176 183.981 -41.3992 183.979 -40.5919 184.709C-39.8549 185.375 -39.8526 185.695 -40.4069 186.209C-41.5507 187.206 -40.8475 188.032 -39.3167 187.512C-38.3079 187.155 -37.8889 187.216 -37.5006 187.885C-36.7595 189.126 -36.7253 189.03 -39.5056 190.388C-40.9307 191.068 -42.0763 191.809 -42.0398 192.032C-42.0331 192.991 -40.5693 192.854 -38.1359 191.754C-35.8069 190.686 -35.4236 190.652 -34.5461 191.445C-33.6687 192.238 -33.6678 192.366 -34.8485 193.076C-35.8204 193.721 -35.9581 193.977 -35.5018 194.389C-35.1859 194.675 -34.3837 194.702 -33.7227 194.475C-32.8875 194.214 -32.3638 194.307 -32.0114 194.816C-31.4121 195.739 -31.3775 195.707 -33.6034 196.55C-35.9338 197.427 -36.8688 198.358 -36.0282 198.865C-35.6431 199.086 -34.389 198.887 -33.1719 198.4C-30.9117 197.461 -30.3187 197.489 -30.0316 198.637C-29.8885 199.148 -30.0959 199.404 -30.9661 199.633C-32.5671 200.09 -32.9127 200.539 -32.1405 201.237C-31.7544 201.586 -31.0215 201.678 -30.5351 201.419C-29.3535 200.837 -28.8617 201.346 -28.5678 203.452L-28.3815 205.144L-42.5581 202.609C-50.3798 201.185 -57.8177 199.792 -59.11 199.512L-61.4503 198.983L-61.8229 195.599C-62.3035 191.737 -64.4728 185.777 -66.764 182.308C-68.7736 179.222 -74.9157 173.668 -78.3462 171.836C-82.687 169.498 -89.1508 167.779 -93.6149 167.741C-99.4041 167.712 -103.614 169.11 -107.428 172.263C-111.97 176.027 -114.034 180.001 -114.309 185.464L-114.433 187.765L-123.602 188.043C-128.623 188.2 -132.948 188.162 -133.193 187.94C-133.439 187.718 -133.552 186.601 -133.455 185.482ZM22.9071 297.603C22.5093 295.593 22.1826 293.774 22.1462 293.551C22.1097 293.327 25.0215 295.77 28.6014 299.007C32.1462 302.212 35.0247 304.878 34.99 304.91C34.99 304.91 33.7378 305.365 32.2767 305.885C30.7806 306.373 28.3481 307.601 26.8205 308.568L24.0434 310.374L23.8368 305.807C23.7495 303.316 23.3049 299.613 22.9071 297.603ZM-110.238 184.259C-108.474 172.206 -94.2776 167.713 -80.5217 174.883C-76.7762 176.873 -71.8275 181.348 -69.8521 184.531C-68.2642 187.172 -66.3828 191.857 -66.0885 194.027L-65.905 195.336L-68.5305 193.914C-70.9113 192.587 -71.0868 192.428 -71.0589 191.437C-70.9703 189.169 -73.1261 185.125 -75.829 182.617C-78.8829 179.793 -81.2988 178.433 -85.5267 177.276C-95.1006 174.65 -103.483 177.798 -106.013 184.904C-106.902 187.529 -107.11 187.722 -108.363 187.985C-110.279 188.347 -110.703 187.519 -110.238 184.259ZM-102.138 185.552C-100.976 182.159 -96.6326 179.93 -91.575 180.059C-84.2847 180.304 -78.0878 183.749 -75.7853 188.814C-75.3956 189.674 -75.181 190.44 -75.2503 190.504C-75.3542 190.6 -76.6821 190.225 -78.2201 189.723C-83.0797 187.995 -90.7947 186.859 -96.6528 186.957C-99.826 187.008 -102.407 187.023 -102.476 187.024C-102.546 187.024 -102.411 186.384 -102.138 185.552ZM24.4211 289.768C12.9965 276.899 4.08297 259.127 -3.66473 233.587C-14.3391 198.545 -17.1166 165.692 -11.9886 136.242C-11.0838 131.03 -7.65836 117.306 -7.23989 117.303C-7.13505 117.335 -6.32962 117.809 -5.45354 118.411C-4.61254 118.981 -3.21091 119.931 -2.40502 120.469C-0.933634 121.419 -0.933184 121.483 -2.07203 123.182C-6.28092 129.66 -7.78691 133.693 -7.78686 138.645C-7.79897 141.871 -7.54834 142.796 -4.21629 150.442C-2.97481 153.406 -3.10169 155.195 -4.95189 159.87C-7.58996 166.562 -7.2916 169.307 -3.42592 173.501C-2.26635 174.739 -1.17562 176.107 -0.998792 176.457C-0.821954 176.807 -1.4393 178.28 -2.37025 179.787C-5.88938 185.174 -7.72066 192.532 -6.98356 198.15C-6.10068 204.661 -1.86331 212.11 2.83255 215.341L4.54962 216.513L3.20427 218.597C-2.34866 227.35 -2.3328 239.488 3.27383 248.24C5.42423 251.517 11.7773 257.325 14.9613 258.807L17.1657 259.848L17.2876 262.307C17.5361 267.864 19.3512 273.06 22.8057 278.278C24.6739 281.11 25.658 282.19 29.2708 285.14C31.5859 287.042 34.7051 289.228 36.1751 289.986C40.2 292.038 46.6993 293.853 51.4096 294.176C55.771 294.502 56.0505 294.564 63.316 296.246C76.5895 299.298 91.1904 297.71 97.5002 292.434C101.106 289.474 101.654 288.065 101.579 282.284C101.538 276.535 101.641 276.374 107.475 272.762C114.211 268.633 115.434 263.963 112.568 253.183C110.92 247.059 111.045 244.887 113.26 237.559C117.008 225.142 116.244 220.579 109.441 215.381C106.496 213.098 106.285 212.844 105.853 210.866C105.6 209.686 105.787 206.49 106.392 203.292C108.068 193.763 107.449 185.015 104.392 176.792C103.147 173.317 103.11 173.03 104.238 169.861C104.853 168.068 105.634 165.029 105.899 163.047C106.199 161.097 106.504 159.785 106.611 160.136C106.826 160.965 121.298 240.003 122.571 247.438C126.568 270.285 125.069 285.243 117.685 296.403C114.614 300.989 108.133 306.746 102.921 309.396C87.7709 317.216 68.9412 317.519 52.4298 310.269C41.6202 305.51 32.436 298.792 24.4211 289.768ZM-115.956 154.777C-114.865 151.257 -112.648 149.135 -109.999 148.928C-108.744 148.857 -107.66 149.266 -105.733 150.5C-101.354 153.253 -97.6278 152.56 -96.3301 148.656C-95.2376 145.327 -92.6265 144.705 -86.6168 146.33C-79.2441 148.363 -73.2897 152.033 -71.1352 155.885C-69.5455 158.783 -69.928 158.945 -73.8112 157.211C-81.3674 153.87 -88.3176 152.409 -95.4648 152.675C-101.566 152.871 -106.231 154.049 -111.931 156.83C-117.179 159.384 -117.354 159.289 -115.956 154.777ZM25.8582 275.96C24.7652 274.274 23.4572 271.758 22.8893 270.356C21.8935 267.615 20.8432 262.095 21.259 261.709C21.3976 261.58 22.3398 261.671 23.2829 261.889C24.2958 262.106 26.2509 262.414 27.6818 262.565L30.1944 262.806L31.5726 265.385C33.5872 269.174 41.7298 276.537 46.2785 278.682C52.7166 281.711 58.7866 281.994 66.0931 279.587C71.66 277.765 74.0911 276.346 78.561 272.262C83.862 267.344 86.5077 261.738 86.4987 255.509C86.4203 249.345 83.9806 244.6 78.1544 239.332C75.5572 236.983 74.678 235.934 74.8845 235.55C75.6404 233.948 83.8933 242.109 86.7542 247.234C90.8863 254.589 90.2865 263.504 85.0828 272.32C83.8081 274.531 82.3889 276.041 77.4344 280.638C71.8212 285.782 71.058 286.362 67.7558 287.883C62.9938 290.115 59.476 290.743 53.5117 290.618C42.3153 290.333 31.5337 284.583 25.8582 275.96ZM-50.0733 205.081C-50.004 205.016 -47.0712 205.51 -43.5097 206.128L-37.0847 207.304L-35.2465 210.807C-34.2215 212.749 -32.8414 215.584 -32.2029 217.113L-31.0672 219.918L-34.0505 217.22C-37.9103 213.857 -45.6583 208.057 -49.9316 205.399C-50.072 205.272 -50.1426 205.145 -50.0733 205.081ZM7.62902 247.671C5.12854 244.204 3.13875 238.977 2.90204 235.081C2.66669 231.377 3.77848 225.844 5.49776 222.384C7.32052 218.764 7.70254 218.538 9.94202 219.611C11.0269 220.148 13.2299 220.997 14.8723 221.467L17.8776 222.343L17.4362 224.039C17.2333 224.934 17.0718 226.756 17.1159 228.065C17.5029 238.445 26.9374 246.023 39.3519 245.95C53.9284 245.863 68.1737 233.417 68.0503 220.864C68.0273 217.606 66.3908 213.016 64.5288 211.079C62.7375 209.269 63.7791 208.624 65.7095 210.369C68.2014 212.622 70.2497 216.252 70.5476 218.933C70.9544 222.221 69.5699 228.649 67.7453 232.014C64.3711 238.167 57.2365 245.173 50.4966 248.791C38.6154 255.25 24.3309 257.187 14.855 253.633C11.568 252.375 10.2703 251.329 7.62902 247.671ZM68.8271 291.454C72.79 289.642 76.2601 287.193 80.4523 283.303C87.4856 276.777 91.7953 269.756 93.07 262.594C93.9771 257.701 93.672 253.997 91.8946 249.216C89.9048 243.99 87.6167 240.968 81.44 235.447L76.3162 230.877L76.25 226.438C76.1978 223.978 76.0749 221.392 75.8954 220.658C75.6074 219.382 75.6772 219.382 77.9261 221.796C80.0697 224.115 80.2799 224.242 81.4282 223.884C83.2033 223.394 89.3997 216.873 91.9518 212.833C97.6429 203.887 99.4494 193.016 96.9048 183.288L95.9022 179.589L97.8451 178.172C98.8859 177.399 99.9275 176.754 100.067 176.753C100.485 176.751 102.06 182.363 102.714 186.129C103.55 190.947 103.45 196.57 102.449 202.964C100.979 212.173 101.48 213.895 106.739 217.952C109.685 220.235 110.107 220.743 110.853 222.623C111.954 225.46 111.671 229.838 109.996 234.671C106.955 243.601 106.734 246.893 108.702 253.876C110.17 259.33 110.309 264.217 108.965 266.492C108.173 267.871 107.48 268.514 104.944 269.966C98.5538 273.709 97.3821 275.697 97.5671 282.148C97.6922 285.054 97.4619 287.004 96.876 287.998C94.6694 291.588 86.8757 294.126 77.6343 294.149C73.1707 294.175 66.0864 293.482 66.0828 292.971C66.0819 292.844 67.2977 292.166 68.8271 291.454ZM35.1557 264.118L34.5541 262.876L39.9874 261.886C45.7689 260.829 51.3701 258.911 56.4429 256.262C62.3145 253.129 70.4898 245.35 72.6541 240.706C73.5135 238.944 79.4499 245.01 81.2952 249.535C85.1263 258.712 79.5194 269.701 68.431 274.846C60.4708 278.502 53.67 278.447 46.4593 274.656C43.8689 273.266 36.0754 265.965 35.1557 264.118ZM-102.66 131.316C-100.164 129.193 -97.5974 127.197 -97.0764 126.907L-96.1035 126.39L-94.9673 129.258C-94.3284 130.851 -93.5855 132.348 -93.3749 132.539C-92.6729 133.174 -93.1598 133.368 -96.7145 133.709C-98.5616 133.879 -101.627 134.345 -103.543 134.707C-105.423 135.102 -107.095 135.367 -107.165 135.304C-107.236 135.24 -105.226 133.439 -102.66 131.316ZM35.2875 258.08C45.5259 256.039 53.2769 252.384 60.6959 246.143C64.6825 242.765 68.8689 238.045 70.6944 234.808C71.831 232.789 70.2553 236.823 68.9477 239.322C67.8462 241.373 66.3942 243.17 63.3124 246.287C59.607 249.982 58.6706 250.723 54.7798 252.854C49.1868 255.922 41.2877 258.364 35.3284 258.942C32.819 259.149 30.6227 259.258 30.5525 259.194C30.4472 259.099 32.571 258.607 35.2875 258.08ZM-19.6329 204.485C-23.522 196.97 -29.2159 185.728 -32.2586 179.549C-41.3152 161.267 -43.9601 157.098 -50.5981 150.461C-54.5668 146.492 -60.5972 141.928 -63.2205 140.825C-64.1645 140.479 -64.2352 140.352 -63.5747 140.061C-63.1576 139.867 -61.5948 138.931 -60.1023 137.932L-57.4295 136.159L-56.0076 139.984C-54.6928 143.458 -54.3049 144.063 -51.2852 146.984C-48.6164 149.587 -47.5298 150.379 -45.046 151.483C-36.5448 155.297 -27.3448 154.348 -20.199 148.94L-17.632 147.008L-18.1719 154.518C-19.3754 171.774 -17.7378 191.346 -13.3374 212.019C-12.4001 216.357 -11.8893 219.549 -12.1368 219.071C-12.3843 218.593 -15.7784 212.033 -19.6329 204.485ZM22.808 234.101C21.3258 231.618 20.5999 227.598 21.2447 225.07L21.7198 223.215L22.9766 223.399C36.2429 225.429 51.2811 221.57 59.4235 214.08C60.5669 213.019 60.8454 212.953 61.5123 213.556C61.9685 213.969 62.7105 215.338 63.2429 216.644C67.4308 226.969 55.393 240.904 41.0702 242.362C33.7174 243.14 26.1953 239.703 22.808 234.101ZM-0.442813 205.841C-8.92298 190.175 3.73475 170.2 25.0454 165.666C29.955 164.583 38.2914 164.821 42.9387 166.103C45.0355 166.729 46.8529 167.294 46.9933 167.421C47.0986 167.516 45.7055 167.779 43.8233 167.918C33.1583 168.812 24.8471 172.151 18.4027 178.131C13.0325 183.114 10.865 187.311 10.5929 193.222C10.3266 199.964 13.9596 205.788 20.4333 208.912C28.0264 212.54 40.688 212.881 50.9534 209.722C55.3032 208.386 59.2655 206.51 60.7553 205.128C62.5223 203.488 62.3919 204.767 60.5605 207.173C53.8917 215.933 42.7997 220.567 29.3705 220.167C23.9642 220.039 20.8914 219.482 15.7186 217.852C7.99408 215.374 2.49009 211.286 -0.442813 205.841ZM-49.9164 143.27C-53.2957 138.818 -54.319 132.18 -52.4373 127.026C-51.6166 124.721 -51.0636 124.015 -48.1879 121.347C-45.1736 118.55 -44.5833 118.195 -41.1739 117.025C-37.3816 115.757 -32.7452 115.506 -29.6004 116.382C-25.4072 117.571 -20.5003 121.055 -17.9998 124.522C-15.3225 128.34 -14.8901 130.318 -15.8336 134.987C-16.8788 140.072 -18.3614 142.476 -22.3831 145.822C-24.4633 147.56 -25.9572 148.367 -28.1143 149.082C-33.5075 150.807 -40.9414 149.989 -45.4244 147.268C-47.946 145.75 -48.2619 145.464 -49.9164 143.27ZM15.6928 199.357C11.5431 189.511 18.756 178.768 32.8798 173.829C42.4114 170.45 53.4008 171.056 57.7884 175.087C63.3698 180.261 66.7933 190.973 64.3154 195.651C60.8746 202.252 53.5451 206.352 42.4311 207.855C29.3308 209.594 18.5308 206.176 15.6928 199.357ZM-2.73529 167.587C-2.91485 166.853 -2.27187 164.071 -1.31392 161.446C-0.391076 158.789 0.529989 155.877 0.663171 154.981C0.998821 153.127 0.141591 150.257 -2.26576 145.16C-4.14349 140.987 -4.27987 136.484 -2.5327 132.033C-1.29938 128.896 1.66584 124.087 2.32953 124.242C2.50412 124.273 3.80047 125.128 5.20256 126.142L7.72642 127.98L3.77668 131.645C0.242698 134.924 -0.20681 135.469 -0.820091 137.517L-1.50175 139.757L2.81838 144.108C11.8794 153.126 19.6458 161.545 19.9325 162.629C20.0751 163.076 19.4848 163.431 17.9535 163.887C14.4042 164.994 9.47178 167.77 5.69255 170.891L2.08658 173.851L-0.197475 171.405C-1.56807 169.912 -2.58995 168.417 -2.73529 167.587ZM-53.5331 115.054C-54.2791 113.11 -55.6578 110.467 -56.6082 109.226C-57.5239 107.954 -58.3338 106.841 -58.2996 106.745C-58.3725 106.298 -48.5903 103.845 -41.66 102.494C-32.083 100.616 -25.4267 99.9701 -15.7322 99.9128C-7.29316 99.8628 1.49912 100.45 1.46853 101.057C1.46988 101.248 -0.334914 102.473 -2.52307 103.732C-6.89939 106.249 -9.08168 108.338 -10.4896 111.445C-10.9706 112.47 -11.2064 113.653 -10.9944 114.035C-10.6412 114.672 -13.0516 123.982 -13.5398 123.985C-13.6446 123.954 -14.3835 123.032 -15.2285 121.887C-18.152 117.783 -24.7021 113.701 -30.0801 112.647C-36.9951 111.219 -45.7316 113.602 -50.6861 118.199C-51.379 118.842 -51.9694 119.197 -52.0756 118.974C-52.1467 118.783 -52.8216 117.03 -53.5331 115.054ZM75.1803 213.22C72.6511 210.615 70.2973 208.17 69.841 207.757C69.104 207.091 69.2075 206.93 71.4249 204.873C80.1905 196.739 81.6951 182.612 74.8942 172.654C68.4813 163.3 53.3323 156.395 41.2724 157.296C38.1357 157.571 32.0455 159.363 30.1012 160.589C29.3371 161.041 27.8059 161.497 26.6212 161.632L24.4604 161.836L20.3117 157.069C16.7255 152.938 14.3362 150.396 7.5574 143.569C6.85455 142.806 5.45018 141.473 4.46701 140.521C2.85162 138.933 2.78053 138.742 3.43431 137.492C4.53535 135.377 8.10533 132.258 10.2283 131.638C12.0376 131.053 12.0376 131.053 15.9631 133.84C18.136 135.361 21.7123 138.087 23.9918 139.894C26.2363 141.669 28.4447 143.286 28.9338 143.41C29.5277 143.567 30.501 143.114 32.1308 141.794C33.4487 140.764 35.7057 139.377 37.1654 138.666L39.8067 137.373L44.525 138.846C49.3828 140.319 61.8383 146.059 67.3364 149.316C71.2588 151.657 75.6073 155.081 76.6296 156.64C77.6875 158.295 76.9802 161.845 75.1119 163.964C74.2476 165.023 73.8354 165.92 74.0127 166.334C74.4721 167.194 83.8679 174.23 87.8258 176.666C89.5419 177.71 90.9431 178.596 91.0484 178.691C91.1186 178.755 90.841 178.948 90.4585 179.11C89.4848 179.499 90.2273 180.932 91.237 180.703C91.655 180.636 92.0042 180.698 92.0055 180.89C92.0069 181.081 91.0327 181.406 89.8835 181.637C87.3408 182.067 86.8206 182.486 87.663 183.247C87.9788 183.533 89.2693 183.557 90.4883 183.326C91.7068 183.032 92.7529 183.025 92.8245 183.281C92.8956 183.472 92.3052 183.827 91.574 183.991C88.6137 184.551 88.7658 186.339 91.7617 185.874C92.6675 185.741 93.4009 185.896 93.4729 186.215C93.7235 187.14 93.3411 187.302 90.2053 187.704C87.5573 188.039 86.2033 188.91 87.0457 189.671C87.2562 189.862 88.8248 189.757 90.6364 189.49C92.9006 189.126 93.9121 189.152 94.0552 189.662C94.1983 190.172 93.8514 190.43 92.2153 190.855C89.7432 191.412 89.3621 191.766 90.1693 192.496C90.5203 192.813 91.5669 192.871 92.5069 192.642C94.0737 192.281 94.2482 192.312 94.2199 193.238C94.2262 194.133 93.8784 194.263 90.5334 194.666C88.4775 194.902 86.6664 195.232 86.4585 195.425C85.523 196.293 87.6194 196.855 90.4069 196.519C92.0795 196.318 93.6134 196.245 93.7889 196.403C94.561 197.102 93.3817 198.003 91.1876 198.431C88.9936 198.859 87.745 199.825 88.5171 200.523C88.6926 200.682 89.7383 200.612 90.8178 200.382C93.0811 199.889 93.6058 200.11 92.9169 201.328C92.6073 201.937 91.459 202.295 88.8456 202.598C86.8595 202.833 85.0138 203.195 84.8059 203.388C83.8358 204.288 85.8624 204.851 88.7543 204.483C91.4023 204.148 91.8559 204.177 91.617 204.913C91.4469 205.521 90.9605 205.779 89.8797 205.818C89.0427 205.823 88.1725 206.051 87.9646 206.244C87.4449 206.727 88.5334 207.774 89.5796 207.768C90.9745 207.76 86.3511 214.815 82.8518 218.062C81.0155 219.765 80.9111 219.798 80.3118 218.875C79.9595 218.366 77.6399 215.824 75.1803 213.22ZM67.8458 201.764C70.6522 194.208 69.2599 184.698 64.2175 176.838C59.6337 169.709 49.3695 163.158 40.6767 161.836C38.268 161.499 39.2413 161.046 42.728 160.961C53.6414 160.673 66.6936 166.953 71.7715 174.908C76.179 181.75 76.3775 190.118 72.3148 197.553C71.1099 199.764 67.4454 204.321 67.1295 204.036C67.0593 203.972 67.3662 202.98 67.8458 201.764ZM-5.19714 110.264C-2.15317 106.732 3.65583 104.621 10.9079 104.387C14.4293 104.27 27.2339 105.121 34.598 105.94C51.3857 107.853 66.5873 112.331 77.7222 118.717C81.434 120.867 89.6414 127.527 92.5594 130.864L94.6333 133.183L93.0715 134.247C91.822 135.084 91.615 135.405 92.0361 135.786C92.3169 136.04 93.1885 136.003 94.0232 135.678C95.0666 135.289 95.7294 135.317 96.291 135.825C97.4843 136.904 97.2427 137.256 94.5285 138.103C91.5358 139.015 90.5644 139.724 91.5448 140.293C91.93 140.514 93.4981 140.345 95.0293 139.889C97.8133 139.042 98.0922 139.04 98.5868 139.932C98.7636 140.282 98.486 140.475 97.6162 140.768C96.6416 141.029 96.3644 141.286 96.3685 141.861C96.4072 142.404 96.8265 142.529 98.081 142.394C99.3355 142.259 99.8597 142.416 100.003 142.99C100.147 143.628 99.8696 143.821 98.0594 144.279C93.8478 145.422 94.035 147.242 98.2471 146.163C99.9182 145.769 100.79 145.796 101.037 146.21C101.391 146.975 101.011 147.456 100.208 147.301C99.3697 147.114 98.2278 148.367 98.7893 148.875C99.035 149.097 99.6987 149.252 100.222 149.217C100.744 149.182 101.373 149.306 101.654 149.56C102.566 150.385 101.769 150.997 99.1912 151.46C96.544 151.922 95.2261 152.952 96.5548 153.456C96.8698 153.613 98.3336 153.477 99.7613 153.181C101.537 152.819 102.304 152.815 102.308 153.326C102.311 153.773 101.999 154.062 101.198 154.227C100.607 154.39 99.9458 154.617 99.7379 154.81C99.1836 155.325 100.726 156.466 101.526 156.109C102.117 155.882 102.327 156.009 102.366 156.616C102.514 157.765 102.166 157.958 99.5521 158.134C98.2274 158.205 97.1137 158.531 96.9423 158.948C96.4267 160.005 97.1259 160.256 99.809 159.953C102.458 159.682 103.509 160.378 101.071 160.84C99.1206 161.235 99.0252 162.545 100.944 162.629C102.165 162.654 102.166 162.782 101.419 165.661C100.977 167.293 100.329 169.373 99.9167 170.27L99.1612 171.935L95.2398 169.722C93.0687 168.458 90.0926 166.782 88.6216 165.896L85.8908 164.379L86.9509 161.402C89.0706 155.385 87.8583 146.671 83.9764 140.178C81.7882 136.485 75.5418 130.964 70.8171 128.597C58.9525 122.566 42.0325 121.676 31.0818 126.564C28.1615 127.859 23.4405 130.953 22.2643 132.302C21.3995 133.297 21.0845 133.139 15.0901 128.735C13.6529 127.689 8.18444 123.697 2.92658 119.894C-2.33127 116.092 -6.60911 112.796 -6.68065 112.541C-6.68246 112.285 -6.02686 111.291 -5.19714 110.264ZM120.521 213.974L118.307 201.561L120.075 200.113C126.975 194.418 137.293 193.782 145.347 198.526C151.791 202.385 154.779 210.672 152.178 217.715C149.612 224.662 140.86 229.825 132.174 229.461C129.139 229.319 124.596 228.004 123.297 226.83C123.017 226.576 121.755 220.802 120.521 213.974ZM24.9722 135.512C24.8638 134.97 25.348 134.392 27.0479 133.136C30.5868 130.56 34.6896 128.81 39.4259 127.888C55.2362 124.728 72.6085 130.407 79.902 141.001C82.2986 144.564 84.0094 149.793 84.0387 153.945C84.1026 158.065 82.7055 162.705 81.3147 163.288C80.4454 163.645 80.4098 163.549 80.6802 162.334C82.0966 155.49 80.1397 149.975 73.958 143.751C67.3899 137.114 58.3618 132.759 50.338 132.359C44.5119 132.042 36.8544 134.132 31.8905 137.388L29.1479 139.161L27.3949 137.829C26.413 137.069 25.5365 136.403 25.3966 136.34C25.2566 136.277 25.0798 135.927 24.9722 135.512ZM81.8983 166.926C82.805 166.921 96.178 174.189 96.1816 174.7C96.1474 174.796 95.6619 175.182 95.0715 175.537C94.0641 176.086 93.6447 175.961 90.2114 173.745C84.8164 170.263 84.6062 170.137 82.6066 168.456C81.0276 167.091 80.9565 166.9 81.8983 166.926ZM12.2235 98.0863C16.7366 95.1847 24.8652 90.6646 29.8004 88.2716C42.6944 82.0303 55.6669 81.9536 67.3926 88.0492C70.3326 89.565 71.9804 90.8011 76.6128 94.9262C84.3342 101.908 89.1233 108.46 94.0793 118.908C96.2742 123.559 100.322 133.82 99.9735 133.822C99.8691 133.855 98.6029 132.329 97.1949 130.485C93.4296 125.684 84.905 118.547 78.7778 115.101C64.3879 107.041 46.3974 102.707 20.9983 101.133C17.579 100.898 13.3935 100.795 11.6845 100.773C9.97598 100.815 8.58064 100.759 8.57974 100.631C8.57884 100.504 10.2099 99.3759 12.2235 98.0863ZM50.433 135.936C56.8535 136.473 62.6257 139.026 68.6944 144.07C73.5 148.034 73.6454 148.864 69.0922 146.08C66.22 144.308 51.8022 137.238 50.4051 136.927C48.5886 136.49 48.5836 135.788 50.433 135.936Z" fill="#7F5B01"/>
</svg>
