<svg width="437" height="114" viewBox="0 0 437 114" fill="none" xmlns="http://www.w3.org/2000/svg">
<mask id="mask0_800_17856" style="mask-type:luminance" maskUnits="userSpaceOnUse" x="356" y="0" width="81" height="89">
<path d="M356.412 0H436.412V89H356.412V0Z" fill="white"/>
</mask>
<g mask="url(#mask0_800_17856)">
<path d="M436.345 75.2604C433.584 78.474 429.975 79.9479 425.86 80.7865C416.006 82.8333 406.215 85.2344 396.355 87.3073C393.084 87.9688 389.777 88.3906 386.475 88.5677C383.439 88.75 381.366 87.1875 380.886 84.9063C380.402 82.5313 381.787 80.0677 384.85 79.2865C389.897 77.9948 395.064 77.1823 400.173 76.099C407.923 74.4792 415.616 72.6458 423.366 71.2344C427.876 70.3906 432.35 71.026 436.319 73.6354L436.345 75.2604ZM373.553 0C370.22 2.01042 367.548 4.6875 366.314 8.38021C363.131 17.9375 360.095 27.5521 357.178 37.224C356.61 39.1146 356.459 41.1302 356.73 43.0833C356.907 44.375 358.022 46.1771 359.074 46.4792C360.303 46.8073 362.048 45.9375 363.34 45.2135C364.09 44.7969 364.569 43.6823 364.959 42.7813C369.407 32.026 373.767 21.2396 375.657 9.70313C376.168 6.60938 375.027 3.24479 374.636 0H373.553ZM409.246 26.3177C400.564 31.8177 391.761 37.0729 384.699 44.7656C383.017 46.599 380.824 47.9792 378.991 49.6927C377.371 51.224 375.689 52.7552 374.423 54.5885C373.282 56.2135 373.225 58.224 374.845 59.7865C376.376 61.2604 378.241 61.1094 379.866 60.1198C383.319 58.0156 386.892 56 389.991 53.4479C396.147 48.3125 402.037 42.875 407.985 37.526C410.329 35.4219 412.673 33.2865 414.923 31.0938C416.668 29.3854 418.079 27.4323 417.808 24.6042C414.595 23.7969 411.798 24.6979 409.246 26.3177Z" fill="white"/>
</g>
<mask id="mask1_800_17856" style="mask-type:luminance" maskUnits="userSpaceOnUse" x="0" y="0" width="80" height="89">
<path d="M0 0H79.9844V89H0V0Z" fill="white"/>
</mask>
<g mask="url(#mask1_800_17856)">
<path d="M0.046875 75.2604C2.8125 78.474 6.41667 79.9479 10.5313 80.7865C20.3854 82.8333 30.1823 85.2344 40.0365 87.3073C43.3125 87.9688 46.6146 88.3906 49.9219 88.5677C52.9531 88.75 55.026 87.1875 55.5104 84.9063C55.9896 82.5313 54.6094 80.0677 51.5417 79.2865C46.4948 77.9948 41.3281 77.1823 36.2188 76.099C28.4688 74.4792 20.776 72.6458 13.026 71.2344C8.52083 70.3906 4.04167 71.026 0.078125 73.6354L0.046875 75.2604ZM62.8385 0C66.1719 2.01042 68.849 4.6875 70.0781 8.38021C73.2656 17.9375 76.2969 27.5521 79.2135 37.224C79.7865 39.1146 79.9323 41.1302 79.6615 43.0833C79.4844 44.375 78.3698 46.1771 77.3229 46.4792C76.0885 46.8073 74.3438 45.9375 73.0521 45.2135C72.3021 44.7969 71.8229 43.6823 71.4323 42.7813C66.9844 32.026 62.6302 21.2396 60.7344 9.70313C60.224 6.60938 61.3698 3.24479 61.7552 0H62.8385ZM27.1458 26.3177C35.8281 31.8177 44.6302 37.0729 51.6927 44.7656C53.375 46.599 55.5677 47.9792 57.401 49.6927C59.026 51.224 60.7083 52.7552 61.9688 54.5885C63.1094 56.2135 63.1719 58.224 61.5469 59.7865C60.0156 61.2604 58.151 61.1094 56.5313 60.1198C53.0729 58.0156 49.5 56 46.4063 53.4479C40.2448 48.3125 34.3594 42.875 28.4115 37.526C26.0677 35.4219 23.724 33.2865 21.4688 31.0938C19.724 29.3854 18.3125 27.4323 18.5833 24.6042C21.7969 23.7969 24.5938 24.6979 27.1458 26.3177Z" fill="white"/>
</g>
<path d="M151.199 69.0297C151.37 69.0297 141.074 95.837 141.074 102.769C141.074 108.045 148.985 110.514 154.777 110.514C155.584 110.514 156.605 110.092 156.943 109.623C160.136 101.665 172.813 64.7328 178.646 52.3474C178.771 52.1807 178.813 51.5401 178.813 51.2432C178.813 51.2015 178.813 51.1599 178.771 51.1182C177.495 47.6703 173.282 45.4151 169.923 42.988L169.199 42.4776C168.73 42.3057 167.792 42.264 167.282 42.264C159.24 44.0974 145.756 55.0297 138.094 61.4984H138.136L133.459 65.3265C132.053 65.3265 129.756 61.7536 124.86 56.7328C119.798 51.5401 113.969 45.7536 109.459 43.2849C103.798 43.7536 103.459 45.4151 102.777 48.8161L102.693 48.9463C99.6309 62.9463 91.6309 79.9672 91.6309 93.4099C91.6309 94.2172 91.6725 95.0297 91.7559 95.7953C91.9277 98.5609 99.2454 103.92 104.141 103.92C106.949 103.92 107.376 102.858 107.844 100.941L107.928 100.347C109.969 92.3057 114.605 76.8578 117.673 65.3682C123.287 70.4776 132.605 78.3474 137.37 78.3474L151.199 69.0297Z" fill="white"/>
<path d="M165.182 100.004C164.968 100.306 164.927 100.514 164.802 100.816C164.802 102.431 176.458 108.259 178.755 108.259C179.224 108.259 180.286 107.879 180.583 107.582C182.755 103.28 186.416 97.7953 189.307 93.7953L191.093 91.2849C196.416 91.6234 202.838 92.264 208.328 93.3265C209.687 100.858 209.604 108.259 224.073 109.452C224.369 109.493 224.666 109.493 224.963 109.493C227.646 109.493 229.817 108.045 229.817 104.603C229.817 96.4307 226.541 87.6651 226.541 78.8161C226.541 67.4567 230.369 54.264 232.198 44.3526C231.859 42.7745 223.604 40.6078 218.625 40.6078C195.989 58.988 171.651 88.8995 165.182 100.004ZM209.224 69.7953C208.198 71.5401 208.458 75.7953 207.776 81.3265L207.604 83.4984L197.817 82.4307C200.838 79.4099 202.156 77.7536 205.479 74.0088L209.224 69.7953Z" fill="white"/>
<path d="M255.46 42.139C248.991 43.8422 234.824 90.6443 234.824 101.452C234.824 105.071 236.225 107.024 241.246 107.024C245.887 107.024 249.501 103.452 250.866 100.728C255.632 90.3057 269.585 55.3734 270.053 49.2015C270.053 48.7745 270.012 48.4776 269.882 48.3526C266.522 46.2224 261.543 45.0297 257.46 42.3057L255.46 42.139Z" fill="white"/>
<path d="M302.769 50.0505C294.811 50.9047 279.024 52.5193 274.05 53.0714L272.472 53.2432C274.899 57.9255 282.602 66.2224 286.472 66.7328C293.154 66.7328 300.3 64.3891 306.258 63.0297C299.451 68.6026 296.258 70.4776 289.321 75.3682C277.196 83.962 264.644 93.113 254.686 102.514C253.623 103.535 253.154 104.603 253.029 105.582C253.029 109.623 261.623 113.493 262.988 113.493C264.305 113.493 265.243 113.155 266.561 112.259C274.982 106.472 290.133 100.259 300.982 100.259C313.196 100.259 330.128 108.556 343.66 111.962C344.3 112.134 344.811 112.176 345.488 112.176C348.805 112.176 349.701 110.431 350.128 108.556L349.321 106.899C340.17 98.9412 321.024 85.4099 306.769 85.4099C303.706 85.4099 300.644 85.5818 297.279 85.7953C304.258 80.4307 314.472 73.4099 322.555 69.2849C326.3 67.5818 329.873 65.2849 333.279 63.113L335.79 61.5401C337.956 60.0505 338.764 57.7953 338.764 55.5818C338.764 53.4985 338.128 50.6912 337.488 48.6078L337.024 46.988C336.722 46.1807 335.66 45.6287 334.514 45.6287C333.79 45.6287 310.258 49.3735 302.769 50.0505Z" fill="white"/>
</svg>
