<svg width="60" height="60" viewBox="0 0 60 60" fill="none" xmlns="http://www.w3.org/2000/svg">
<path d="M30 0C13.4316 0 0 13.4316 0 30C0 46.5694 13.4316 60 30 60C46.5694 60 60 46.5694 60 30C60 13.4316 46.5694 0 30 0ZM30 56.3091C15.5259 56.3091 3.75 44.4741 3.75 29.9999C3.75 15.5258 15.5259 3.74988 30 3.74988C44.4741 3.74988 56.25 15.5259 56.25 29.9999C56.25 44.4739 44.4741 56.3091 30 56.3091ZM41.9728 19.0228L24.3712 36.735L16.4446 28.8084C15.7124 28.0763 14.5256 28.0763 13.7924 28.8084C13.0603 29.5406 13.0603 30.7275 13.7924 31.4597L23.0728 40.7409C23.8049 41.4722 24.9918 41.4722 25.7249 40.7409C25.8093 40.6566 25.8816 40.5646 25.9472 40.4691L44.6259 21.6749C45.3572 20.9428 45.3572 19.7559 44.6259 19.0228C43.8928 18.2906 42.7059 18.2906 41.9728 19.0228Z" fill="#DEA001"/>
</svg>
