<svg width="250" height="84" viewBox="0 0 250 84" fill="none" xmlns="http://www.w3.org/2000/svg">
<path d="M26.7778 22.9664C26.1058 25.2384 25.3378 27.7024 24.4738 30.3584C23.6418 33.0144 22.7618 35.7504 21.8338 38.5664C20.9378 41.3504 20.0258 44.1664 19.0978 47.0144C18.2018 49.8624 17.3218 52.6144 16.4578 55.2704C15.5938 57.9264 14.7938 60.4224 14.0578 62.7584C13.3218 65.0944 12.6978 67.1584 12.1858 68.9504C11.9298 69.8784 11.7058 70.5824 11.5138 71.0624C11.3218 71.5104 10.9378 71.7344 10.3618 71.7344C9.33775 71.7344 8.24975 71.4624 7.09775 70.9184C5.94575 70.3424 4.88975 69.6544 3.92975 68.8544C2.96975 68.0224 2.18575 67.1744 1.57775 66.3104C0.93775 65.4144 0.61775 64.6304 0.61775 63.9584C0.61775 61.2704 0.88975 58.4544 1.43375 55.5104C1.97775 52.5344 2.69775 49.5104 3.59375 46.4384C4.45775 43.3344 5.44975 40.1824 6.56975 36.9824C7.68975 33.7824 8.82575 30.5824 9.97775 27.3824C11.1618 24.1824 12.2978 21.0144 13.3858 17.8784C14.4738 14.7104 15.4338 11.6224 16.2657 8.61444C16.4898 7.81445 16.6818 7.09445 16.8418 6.45445C17.0338 5.81444 17.2578 5.28644 17.5138 4.87045C17.8018 4.42245 18.1858 4.08644 18.6658 3.86245C19.1458 3.60645 19.8018 3.44645 20.6338 3.38245C21.7538 4.15044 23.0498 5.33444 24.5218 6.93445C26.0258 8.53444 27.5778 10.3264 29.1778 12.3104C30.8098 14.2624 32.4258 16.2784 34.0258 18.3584C35.6578 20.4384 37.1618 22.3424 38.5378 24.0704C39.9458 25.7664 41.1778 27.1744 42.2338 28.2944C43.3218 29.3824 44.1218 29.9264 44.6338 29.9264C44.9858 29.7344 45.6418 29.2224 46.6018 28.3904C47.5938 27.5584 48.7938 26.5184 50.2018 25.2704C51.6098 24.0224 53.1938 22.6304 54.9538 21.0944C56.7138 19.5584 58.5538 17.9904 60.4738 16.3904C62.3938 14.7584 64.3458 13.1584 66.3298 11.5904C68.3458 10.0224 70.2978 8.58245 72.1858 7.27044C74.0738 5.95844 75.8498 4.83844 77.5138 3.91044C79.2098 2.98244 80.7138 2.34245 82.0258 1.99044C82.7938 2.56644 83.5938 3.19044 84.4258 3.86245C85.2898 4.50245 86.1058 5.20645 86.8738 5.97445C87.6418 6.71045 88.3138 7.52645 88.8898 8.42245C89.4658 9.28645 89.8818 10.2144 90.1378 11.2064C89.1778 13.1904 88.0898 15.5584 86.8738 18.3104C85.6578 21.0624 84.3778 24.0544 83.0338 27.2864C81.7218 30.5184 80.3458 33.9104 78.9058 37.4624C77.4978 40.9824 76.1058 44.5024 74.7298 48.0224C73.3538 51.5424 72.0098 54.9664 70.6978 58.2944C69.4178 61.5904 68.2338 64.6464 67.1458 67.4624C66.0578 70.2464 65.0978 72.6944 64.2658 74.8064C63.4338 76.9184 62.7778 78.5184 62.2978 79.6064C61.1778 79.6064 59.9618 79.4624 58.6498 79.1744C57.3698 78.9184 56.1698 78.5184 55.0498 77.9744C53.9298 77.4624 53.0018 76.7904 52.2658 75.9584C51.5298 75.1584 51.1618 74.1984 51.1618 73.0784C51.1618 71.9264 51.4018 70.3744 51.8818 68.4224C52.3618 66.4384 52.9858 64.2304 53.7538 61.7984C54.5218 59.3344 55.4018 56.7424 56.3938 54.0224C57.3858 51.2704 58.3938 48.5504 59.4178 45.8624C61.8498 39.5584 64.6018 32.7744 67.6738 25.5104L46.2178 41.2544C45.5778 41.2544 44.7458 40.9184 43.7218 40.2464C42.7298 39.5424 41.6258 38.6464 40.4098 37.5584C39.1938 36.4704 37.9298 35.2544 36.6178 33.9104C35.3058 32.5344 34.0258 31.1744 32.7778 29.8304C31.5618 28.4544 30.4258 27.1744 29.3698 25.9904C28.3138 24.7744 27.4498 23.7664 26.7778 22.9664ZM130.478 78.3584C128.334 78.1344 126.526 77.7184 125.054 77.1104C123.614 76.5024 122.43 75.7344 121.502 74.8064C120.574 73.8784 119.87 72.8384 119.39 71.6864C118.91 70.5024 118.558 69.2544 118.334 67.9424C118.11 66.6304 117.966 65.2704 117.902 63.8624C117.87 62.4544 117.838 61.0464 117.806 59.6384C116.174 59.2224 114.446 58.8544 112.622 58.5344C110.798 58.2144 108.942 57.9264 107.054 57.6704C105.198 57.4144 103.358 57.1904 101.534 56.9984C99.71 56.8064 97.982 56.6624 96.35 56.5664C95.454 57.8144 94.366 59.2864 93.086 60.9824C91.838 62.6784 90.542 64.4544 89.198 66.3104C87.854 68.1344 86.542 69.9744 85.262 71.8304C84.014 73.6864 82.926 75.3824 81.998 76.9184C81.71 76.9504 81.134 76.7424 80.27 76.2944C79.374 75.8464 78.382 75.2704 77.294 74.5664C76.206 73.8624 75.118 73.1104 74.03 72.3104C72.91 71.5104 71.982 70.7904 71.246 70.1504C72.334 68.4864 73.726 66.5024 75.422 64.1984C77.118 61.8944 79.07 59.3664 81.278 56.6144C83.518 53.8304 85.95 50.8864 88.574 47.7824C91.23 44.6464 94.03 41.4304 96.974 38.1344C99.95 34.8384 103.022 31.5104 106.19 28.1504C109.39 24.7584 112.638 21.4304 115.934 18.1664C119.23 14.9024 122.542 11.7344 125.87 8.66245C129.198 5.59044 132.478 2.72644 135.71 0.070446C136.574 0.070446 137.55 0.166445 138.638 0.358442C139.726 0.550444 140.734 0.790443 141.662 1.07844C142.59 1.36644 143.342 1.67044 143.918 1.99044C144.526 2.31044 144.798 2.58244 144.734 2.80644C143.454 7.09444 142.174 11.6224 140.894 16.3904C139.646 21.1584 138.526 25.9744 137.534 30.8384C136.542 35.7024 135.726 40.5504 135.086 45.3824C134.478 50.1824 134.174 54.7744 134.174 59.1584C134.174 60.6624 134.222 62.1984 134.318 63.7664C134.446 65.3344 134.542 66.8544 134.606 68.3264C134.702 69.7664 134.734 71.1264 134.702 72.4064C134.702 73.6544 134.558 74.7424 134.27 75.6704C134.014 76.5984 133.582 77.3024 132.974 77.7824C132.366 78.2624 131.534 78.4544 130.478 78.3584ZM118.094 51.5744C118.254 50.9024 118.494 49.8464 118.814 48.4064C119.166 46.9344 119.55 45.2864 119.966 43.4624C120.414 41.6384 120.878 39.7184 121.358 37.7024C121.87 35.6864 122.35 33.7984 122.798 32.0384C123.278 30.2784 123.71 28.7424 124.094 27.4304C124.51 26.0864 124.862 25.1904 125.15 24.7424C124.414 25.3184 123.502 26.1504 122.414 27.2384C121.358 28.3264 120.19 29.5744 118.91 30.9824C117.63 32.3584 116.254 33.8464 114.782 35.4464C113.342 37.0464 111.886 38.6624 110.414 40.2944C108.942 41.9264 107.47 43.5264 105.998 45.0944C104.526 46.6624 103.118 48.1024 101.774 49.4144L118.094 51.5744ZM163.384 1.84644C164.312 2.51844 165.304 3.14244 166.359 3.71844C167.448 4.29445 168.52 4.85444 169.576 5.39844C170.664 5.94245 171.688 6.48645 172.648 7.03045C173.608 7.54245 174.456 8.08645 175.192 8.66245C175.384 8.85444 175.24 9.70244 174.76 11.2064C174.312 12.7104 173.64 14.6624 172.744 17.0624C171.848 19.4624 170.76 22.2144 169.48 25.3184C168.232 28.4224 166.904 31.6544 165.496 35.0144C164.088 38.3744 162.632 41.7664 161.128 45.1904C159.656 48.5824 158.232 51.7984 156.856 54.8384C155.512 57.8464 154.264 60.5824 153.112 63.0464C151.992 65.5104 151.08 67.4624 150.376 68.9024C150.024 69.6384 149.56 70.3904 148.984 71.1584C148.408 71.9264 147.752 72.6304 147.016 73.2704C146.312 73.8784 145.528 74.3904 144.664 74.8064C143.832 75.2224 142.952 75.4304 142.024 75.4304C140.519 75.4304 139.511 75.1264 138.999 74.5184C138.487 73.9104 138.231 72.9984 138.231 71.7824C138.231 70.7584 138.407 69.2864 138.759 67.3664C139.111 65.4464 139.591 63.2384 140.199 60.7424C140.807 58.2144 141.528 55.4624 142.36 52.4864C143.224 49.5104 144.152 46.4544 145.144 43.3184C146.136 40.1504 147.176 36.9504 148.264 33.7184C149.352 30.4864 150.456 27.3824 151.576 24.4064C152.728 21.3984 153.848 18.5824 154.936 15.9584C156.056 13.3024 157.128 10.9664 158.152 8.95044C159.176 6.93444 160.136 5.30244 161.032 4.05444C161.928 2.80644 162.712 2.07044 163.384 1.84644ZM249.72 78.5984C249.528 79.3664 249.24 80.0544 248.856 80.6624C248.472 81.2704 247.848 81.5744 246.984 81.5744C246.568 81.5744 246.152 81.5104 245.736 81.3824C243.56 80.7424 241.272 79.9424 238.872 78.9824C236.504 78.0224 234.056 77.0144 231.528 75.9584C229.032 74.9344 226.488 73.9104 223.896 72.8864C221.336 71.8624 218.792 70.9504 216.264 70.1504C213.768 69.3184 211.304 68.6464 208.872 68.1344C206.44 67.6224 204.12 67.3664 201.912 67.3664C199.928 67.3664 197.832 67.5744 195.624 67.9904C193.416 68.3744 191.16 68.9184 188.856 69.6224C186.552 70.2944 184.232 71.0944 181.896 72.0224C179.592 72.9504 177.352 73.9584 175.176 75.0464C173.032 76.1344 170.984 77.2704 169.032 78.4544C167.08 79.6384 165.32 80.8224 163.752 82.0064C163.208 82.4224 162.744 82.7104 162.36 82.8704C161.944 83.0624 161.544 83.1584 161.16 83.1584C160.968 83.1584 160.488 82.9664 159.72 82.5824C158.952 82.1984 158.152 81.6704 157.32 80.9984C156.488 80.3584 155.736 79.6224 155.064 78.7904C154.392 77.9584 154.056 77.0944 154.056 76.1984C154.056 75.7504 154.152 75.2864 154.344 74.8064C154.536 74.3264 154.856 73.8624 155.304 73.4144C160.104 68.6144 165.112 64.0384 170.328 59.6864C175.576 55.3344 180.888 51.0624 186.264 46.8704C191.64 42.6464 197.032 38.4544 202.44 34.2944C207.848 30.1344 213.112 25.8624 218.232 21.4784C215.608 21.7664 213.08 22.2624 210.648 22.9664C208.216 23.6384 205.832 24.3104 203.496 24.9824C201.192 25.6544 198.92 26.2464 196.68 26.7584C194.472 27.2384 192.264 27.4464 190.056 27.3824C189.096 27.3504 188.008 26.8544 186.792 25.8944C185.576 24.9344 184.376 23.7664 183.192 22.3904C182.04 20.9824 180.968 19.5104 179.976 17.9744C179.016 16.4064 178.328 15.0144 177.912 13.7984C181.88 13.5424 185.752 13.2704 189.528 12.9824C191.128 12.8544 192.792 12.7264 194.52 12.5984C196.248 12.4704 197.944 12.3424 199.608 12.2144C201.272 12.0544 202.872 11.9104 204.408 11.7824C205.976 11.6544 207.384 11.5104 208.632 11.3504C209.56 11.2544 210.744 11.0944 212.184 10.8704C213.624 10.6464 215.208 10.4064 216.936 10.1504C218.664 9.89445 220.472 9.60645 222.36 9.28644C224.28 8.96644 226.152 8.66244 227.976 8.37444C232.296 7.67045 236.888 6.90245 241.752 6.07045C241.848 6.77444 241.976 7.57444 242.136 8.47044C242.296 9.36644 242.424 10.3104 242.52 11.3024C242.648 12.2624 242.728 13.2544 242.76 14.2784C242.824 15.2704 242.776 16.2304 242.616 17.1584C242.488 18.0544 242.232 18.8864 241.848 19.6544C241.496 20.3904 240.984 20.9984 240.312 21.4784C237.944 23.1104 235.592 24.7264 233.256 26.3264C230.952 27.8944 228.552 29.3344 226.056 30.6464C223.336 32.1504 220.44 33.9424 217.368 36.0224C214.296 38.0704 211.272 40.1824 208.296 42.3584C205.352 44.5344 202.584 46.6784 199.992 48.7904C197.432 50.9024 195.272 52.7584 193.512 54.3584C196.552 54.1984 199.336 54.0224 201.864 53.8304C204.392 53.6064 206.872 53.4944 209.304 53.4944C211.608 53.4944 214.008 53.9104 216.504 54.7424C219 55.5424 221.496 56.6144 223.992 57.9584C226.52 59.3024 229.016 60.8544 231.48 62.6144C233.944 64.3424 236.28 66.1344 238.488 67.9904C240.728 69.8464 242.792 71.7024 244.68 73.5584C246.6 75.3824 248.28 77.0624 249.72 78.5984Z" fill="#FCCC00"/>
</svg>
