<svg width="17" height="17" viewBox="0 0 17 17" fill="none" xmlns="http://www.w3.org/2000/svg">
<path d="M16.4706 2.06124C16.5698 2.16082 16.6256 2.29569 16.6256 2.4363C16.6256 2.57691 16.5698 2.71178 16.4706 2.81137L15.3624 3.92062L13.2374 1.79562L14.3456 0.686366C14.4452 0.586772 14.5803 0.530823 14.7212 0.530823C14.862 0.530823 14.9971 0.586772 15.0968 0.686366L16.4706 2.06018V2.06124ZM14.6112 4.67074L12.4862 2.54574L5.24739 9.78561C5.18891 9.84408 5.14489 9.91539 5.11882 9.99387L4.26351 12.5587C4.248 12.6055 4.2458 12.6557 4.25715 12.7036C4.2685 12.7515 4.29296 12.7954 4.3278 12.8302C4.36264 12.865 4.40647 12.8895 4.45441 12.9009C4.50235 12.9122 4.5525 12.91 4.59926 12.8945L7.16414 12.0392C7.24251 12.0134 7.31381 11.9698 7.37239 11.9117L14.6112 4.67074Z" fill="white"/>
<path fill-rule="evenodd" clip-rule="evenodd" d="M1.0625 14.3438C1.0625 14.7664 1.23041 15.1718 1.5293 15.4707C1.82818 15.7696 2.23356 15.9375 2.65625 15.9375H14.3438C14.7664 15.9375 15.1718 15.7696 15.4707 15.4707C15.7696 15.1718 15.9375 14.7664 15.9375 14.3438V7.96875C15.9375 7.82785 15.8815 7.69273 15.7819 7.5931C15.6823 7.49347 15.5471 7.4375 15.4062 7.4375C15.2654 7.4375 15.1302 7.49347 15.0306 7.5931C14.931 7.69273 14.875 7.82785 14.875 7.96875V14.3438C14.875 14.4846 14.819 14.6198 14.7194 14.7194C14.6198 14.819 14.4846 14.875 14.3438 14.875H2.65625C2.51535 14.875 2.38023 14.819 2.2806 14.7194C2.18097 14.6198 2.125 14.4846 2.125 14.3438V2.65625C2.125 2.51535 2.18097 2.38023 2.2806 2.2806C2.38023 2.18097 2.51535 2.125 2.65625 2.125H9.5625C9.7034 2.125 9.83852 2.06903 9.93815 1.9694C10.0378 1.86977 10.0938 1.73465 10.0938 1.59375C10.0938 1.45285 10.0378 1.31773 9.93815 1.2181C9.83852 1.11847 9.7034 1.0625 9.5625 1.0625H2.65625C2.23356 1.0625 1.82818 1.23041 1.5293 1.5293C1.23041 1.82818 1.0625 2.23356 1.0625 2.65625V14.3438Z" fill="white"/>
</svg>
