<svg width="343" height="448" viewBox="0 0 343 448" fill="none" xmlns="http://www.w3.org/2000/svg">
<path d="M214.011 0.531433C196.174 1.99246 172.778 7.65393 146.562 16.694C138.431 19.5247 131.379 21.625 130.799 21.2597C130.218 20.8944 130.052 20.9858 130.467 21.351C130.799 21.8076 128.144 23.2686 124.494 24.6383C116.197 27.8343 114.787 28.6561 114.206 30.7563C113.874 32.2174 114.123 32.4 115.617 31.9435C116.529 31.5782 125.572 28.3822 135.611 24.7296C174.769 10.3933 193.934 5.82764 218.988 4.73187C269.596 2.54034 316.304 23.6339 354.633 66.0949C373.548 87.0058 389.56 112.665 396.944 133.85C398.188 137.502 399.599 140.242 400.097 139.877C400.511 139.603 400.594 140.151 400.263 141.429C399.848 142.707 400.014 143.255 400.511 142.89C401.009 142.616 402.503 145.721 403.996 150.286C420.505 200.6 419.261 250.732 400.345 299.037C390.058 325.153 375.042 347.798 352.393 371.266C340.529 383.502 328.665 393.455 334.39 386.333L336.381 383.867L334.141 386.059C332.814 387.337 331.984 388.525 332.233 388.707C332.814 389.346 330.988 391.629 329.993 391.629C329.495 391.629 329.661 390.899 330.242 389.986C331.154 388.707 331.071 388.798 329.495 390.168C327.587 391.994 327.006 393.09 328.5 392.086C328.997 391.812 329.329 391.72 329.329 391.903C329.329 392.086 327.587 393.547 325.43 395.19L321.448 398.204L324.351 395.282L327.255 392.36L323.937 394.825C322.111 396.195 319.954 398.204 319.208 399.117C318.378 400.121 317.714 400.761 317.714 400.395C317.714 400.121 314.23 402.404 310.082 405.418C300.956 411.901 283.948 421.215 272.914 425.689C200.819 455.092 133.122 446.235 81.2698 400.761C66.2535 387.52 45.9276 362.135 37.9632 346.703C36.4698 343.689 34.3958 339.854 33.3172 338.119C32.3217 336.293 31.7409 334.467 31.9898 333.919C32.3217 333.371 32.1558 333.188 31.7409 333.462C30.6624 334.193 29.5839 331.636 30.4135 330.266C30.6624 329.718 30.5795 329.536 30.0817 329.81C27.9246 331.271 15.2313 296.206 10.8343 276.574C0.961675 232.378 2.53797 190.738 15.4802 152.387C21.5365 134.398 35.0595 109.926 48.3335 92.5759C54.5558 84.5403 78.615 57.7853 75.4624 62.4423C74.3009 64.1773 74.3009 64.1773 75.7113 62.9902C76.458 62.2597 76.9558 61.5292 76.7069 61.2552C76.458 60.9813 78.698 57.9679 81.7676 54.5893C85.2521 50.7541 87.1602 47.9234 86.8284 47.1016C86.5795 46.3711 86.8284 45.2753 87.3261 44.5448C87.9069 43.9056 86.6624 44.8187 84.5884 46.5537C82.5143 48.1973 77.1217 53.8588 72.6417 58.9724C68.0787 64.1773 64.0135 68.3777 63.5987 68.3777C63.1009 68.3777 63.7647 67.008 65.0921 65.3643C66.4195 63.812 63.9306 66.3688 59.4506 71.1171C55.0535 75.8655 51.4032 79.9746 51.4032 80.2485C51.4032 80.4312 53.8091 77.9657 56.7958 74.7697C59.7824 71.5737 62.1884 69.2909 62.1884 69.7474C62.1884 70.2953 58.7039 74.4044 54.5558 78.8788C50.3246 83.4445 48.0017 85.636 49.3291 83.9011L51.818 80.7051L48.6654 83.8098C45.6787 86.9145 44.7661 88.1928 46.4254 87.0971C48.3335 85.8187 46.9232 88.2841 43.4387 92.5759L39.6224 97.1416L42.6921 92.5759L45.7617 88.0102L42.4432 92.028C40.618 94.2196 39.2906 96.5024 39.4565 97.1416C39.7054 97.6895 39.2076 98.7853 38.378 99.5158C36.9676 100.703 36.9676 100.703 38.1291 98.9679C39.2906 97.3242 39.2906 97.2329 37.9632 98.3287C37.2165 99.0592 36.7187 100.064 36.9676 100.703C37.2165 101.342 36.7187 102.438 35.8891 103.168C34.5617 104.355 34.4787 104.264 35.5572 102.803C36.138 101.981 36.4698 101.251 36.2209 101.251C35.9721 101.251 34.8935 102.62 33.898 104.173C32.8195 105.908 32.4876 106.821 33.2343 106.273C33.898 105.725 33.4832 106.364 32.3217 107.551C31.1602 108.738 30.8283 109.378 31.4921 108.921C32.1558 108.556 31.658 109.378 30.4135 110.656C29.1691 112.026 28.2565 113.487 28.5054 113.943C28.7543 114.4 28.5054 114.948 27.9246 115.222C26.4313 115.861 15.6461 139.146 11.9128 149.738C7.51575 162.431 2.78686 183.981 1.29353 198.044C-5.75833 264.885 16.3928 337.571 58.7039 386.333C70.7335 400.121 92.138 419.663 93.9632 418.384C94.5439 418.11 94.7098 418.202 94.295 418.567C93.7143 419.297 98.1943 423.041 103.089 425.963C106.739 428.155 105.661 426.694 101.596 424.137C99.5217 422.767 97.8624 421.58 97.8624 421.398C97.8624 421.306 103.172 424.137 109.726 427.698C152.369 451.166 199.99 454.271 254.662 437.104C298.799 423.224 346.171 389.438 374.876 351.177C377.78 347.342 380.434 344.42 380.849 344.602C381.181 344.876 381.762 344.602 382.094 344.055C382.425 343.324 382.343 343.233 381.762 343.598C381.181 343.963 380.766 343.872 380.766 343.415C380.766 342.228 382.84 340.402 383.421 341.041C383.67 341.315 383.836 340.767 383.753 339.854C383.753 338.941 384.085 338.302 384.665 338.393C385.246 338.576 385.495 338.119 385.246 337.389C384.997 336.658 385.578 335.562 386.491 334.832C387.486 334.101 387.984 333.188 387.652 332.914C387.403 332.549 387.569 332.275 388.067 332.275C389.228 332.275 396.28 318.669 402.005 305.337C410.467 285.431 416.274 263.607 419.012 240.961C420.505 228.542 420.257 202.518 418.597 190.282C410.799 134.489 382.508 81.1617 340.944 44.3622C323.024 28.4735 289.175 6.74078 285.608 8.93231C284.529 9.57153 282.123 9.11496 277.145 7.56262C257.566 1.35327 234.834 -1.20352 214.011 0.531433ZM287.433 9.93677C287.184 10.3933 286.437 10.8499 285.94 10.8499C285.359 10.8499 285.442 10.4846 286.188 9.93677C287.765 8.841 288.097 8.841 287.433 9.93677Z" fill="#5A430B"/>
<path d="M204.975 56.9705C203.816 57.7009 200.669 58.34 197.937 58.34C194.543 58.4313 193.466 58.7052 194.625 59.1616C196.033 59.8007 195.702 60.0746 192.721 61.0788C190.568 61.8092 188.912 61.9918 188.581 61.444C188.25 60.9875 184.938 60.5311 181.213 60.3485L174.506 60.0746L172.271 63.3612C169.621 67.013 168.131 67.3782 167.386 64.4567C166.889 62.5396 166.723 62.5396 164.074 65.8262C162.584 67.7434 160.928 69.2954 160.348 69.2954C159.603 69.2954 159.686 69.6606 160.431 70.5735C161.342 71.6691 161.673 71.6691 162.832 70.5735C163.494 69.8432 164.488 69.2954 164.985 69.2954C166.392 69.2954 166.889 71.6691 165.813 72.9472C165.233 73.5863 166.641 72.7646 168.876 71.2126C171.194 69.6606 173.43 68.3824 174.009 68.3824C174.506 68.3824 175.168 67.7434 175.417 67.1043C175.748 66.1001 175.5 65.9175 174.506 66.2827C173.264 66.8304 173.264 66.7391 174.258 65.3697C174.837 64.548 176.162 63.8177 177.156 63.8177C178.232 63.8177 178.48 64.0916 177.901 64.548C177.404 64.9132 180.219 65.1871 184.11 65.0958C190.982 65.0958 195.702 64.1829 202.905 61.444C207.541 59.7094 207.79 59.7094 213.172 63.7264C215.738 65.7349 219.464 67.7434 221.368 68.2911C223.273 68.9302 227.081 71.4865 230.145 74.2253C233.125 76.8729 236.685 79.6117 238.01 80.2508C240.246 81.2551 240.411 81.6202 239.666 83.2635C238.921 84.633 239.004 85.272 239.997 85.8198C240.66 86.2763 241.487 87.6457 241.736 88.8326C241.984 90.1107 243.392 91.9366 244.716 93.0321C246.124 94.1277 247.78 96.5013 248.525 98.3272C249.187 100.153 250.347 102.436 251.175 103.348C253.162 105.813 255.645 116.221 255.811 122.703C255.894 126.172 256.473 129.459 257.467 131.65L259.123 135.028L257.219 139.41C255.977 142.149 254.983 146.349 254.652 151.096C253.99 158.765 252.002 164.242 246.952 172.459C245.544 174.741 244.965 176.019 245.71 175.38C246.952 174.285 247.118 174.559 247.035 177.845C247.035 181.771 243.226 188.892 241.239 188.892C240.742 188.892 240.991 187.979 241.901 186.792C242.729 185.697 241.901 186.518 239.997 188.618C238.093 190.627 235.112 192.818 233.374 193.457C231.635 194.096 228.82 196.196 227.164 198.113C225.425 200.03 223.438 201.673 222.693 201.673C221.948 201.673 220.292 202.495 218.967 203.591C216.897 205.143 215.821 205.416 212.758 204.869C209.86 204.412 208.287 204.686 205.389 206.238C202.16 207.973 201.332 208.064 198.848 207.06C196.364 206.056 195.785 206.147 193.797 207.881C191.065 210.255 186.76 210.438 180.385 208.612C177.984 207.881 175.334 207.516 174.423 207.79C173.513 208.064 172.105 207.425 171.029 206.238C169.621 204.686 168.214 204.23 163.494 204.138L157.699 203.956L153.642 199.117C149.419 194.005 148.343 193.548 147.184 195.83C146.521 197.109 146.19 196.926 144.783 194.735C143.872 193.274 142.878 191.357 142.63 190.535C142.382 189.622 141.636 189.166 140.974 189.44C140.229 189.714 139.318 188.618 138.407 186.244C137.331 183.688 136.255 182.593 134.682 182.228C132.86 181.771 131.949 180.584 130.211 176.385C129.052 173.463 126.982 169.903 125.574 168.442C123.67 166.433 123.007 164.699 122.511 160.864C122.18 157.852 121.517 155.661 120.689 155.204C119.447 154.474 119.447 153.835 120.358 150.183C121.6 144.796 121.6 144.157 120.11 144.157C119.447 144.157 118.868 143.701 118.868 143.153C118.868 142.697 119.116 142.423 119.53 142.605C119.861 142.879 120.11 138.497 120.11 132.928C120.11 122.247 120.855 117.225 122.18 118.138C122.676 118.412 123.007 117.956 123.007 117.043C123.007 116.13 124.332 112.843 125.823 109.739C127.396 106.544 128.224 104.261 127.644 104.535C127.147 104.809 127.644 104.17 128.803 103.075C129.962 101.979 130.293 101.34 129.631 101.705C128.969 102.07 129.3 101.431 130.459 100.244C133.771 96.8665 137.745 91.4801 135.841 93.0321C134.847 93.7625 135.675 92.7582 137.579 90.7497C139.484 88.7413 142.713 85.0894 144.617 82.5332L148.26 77.9684L143.872 81.9854C141.554 84.0852 139.732 86.2763 139.981 86.6415C140.477 87.4631 138.987 88.7413 137.248 89.0151C135.758 89.289 145.031 78.3336 148.094 76.2338C149.336 75.3209 150.909 74.7731 151.489 75.047C152.069 75.3209 153.642 74.5905 154.884 73.495L157.202 71.3952L153.145 72.0342C150.909 72.3994 148.094 73.1298 146.935 73.7688C143.872 75.4122 133.109 88.7413 131.535 92.7582C130.873 94.6754 128.886 97.5969 127.147 99.1489C124.995 101.249 123.835 103.166 123.504 105.54C123.173 107.457 121.6 111.474 119.944 114.395C117.377 119.051 116.881 120.877 116.301 128.089C115.887 132.654 115.39 137.31 115.142 138.406C114.811 139.867 115.059 140.506 115.887 140.506C116.798 140.506 116.963 141.236 116.632 143.792C116.301 145.801 116.467 147.353 117.046 147.718C118.123 148.448 117.46 152.374 116.301 152.374C114.976 152.374 115.473 155.843 117.957 163.329C122.262 176.293 129.052 186.518 139.484 195.648C145.362 200.76 147.929 202.312 147.598 200.487C147.266 198.569 149.668 199.3 151.075 201.582C152.317 203.773 152.317 203.773 150.496 202.678C149.502 202.13 148.674 201.856 148.674 202.13C148.674 203.408 159.769 208.338 162.749 208.429C164.488 208.429 165.813 208.703 165.564 209.068C165.233 209.799 170.366 211.442 174.755 212.081C176.576 212.355 180.55 212.994 183.614 213.45C189.409 214.455 191.148 214.181 193.632 211.807C195.039 210.529 195.371 210.529 197.606 211.898C199.345 213.085 200.587 213.268 201.994 212.629C203.07 212.172 204.23 211.99 204.478 212.264C204.726 212.446 204.809 212.355 204.561 211.99C204.312 211.716 204.561 210.894 205.058 210.164C206.217 208.703 211.35 208.612 211.764 209.981C212.261 211.716 225.674 204.686 228.82 201.126C230.227 199.391 231.552 198.113 231.718 198.204C232.132 198.478 239.418 194.005 242.978 191.174C247.863 187.249 250.512 182.228 250.512 176.658C250.512 173.554 251.175 171.272 253.079 167.894C256.97 160.864 258.792 154.839 258.792 148.631C258.792 144.979 259.371 141.966 260.448 139.593C262.517 135.028 262.517 131.376 260.448 128.363C259.123 126.537 258.874 124.894 258.957 120.329C259.206 113.574 256.805 102.618 254.569 99.8793C253.741 98.875 252.499 96.5926 251.837 94.7667C251.175 92.9408 249.601 90.7497 248.442 89.9281C247.2 89.0151 245.876 87.0979 245.379 85.6372C244.965 84.1765 244.054 82.9897 243.475 82.9897C242.067 82.9897 241.487 81.0725 242.315 79.2466C242.812 78.151 242.481 77.5119 241.156 76.8729C240.163 76.3251 236.768 73.5863 233.539 70.7561C230.227 67.8347 226.088 65.0958 223.935 64.3654C221.782 63.6351 218.222 61.6266 215.987 59.8007C211.102 55.9663 207.873 55.0533 204.975 56.9705ZM119.282 162.416L119.696 165.612L118.537 162.416C117.046 158.582 116.881 157.121 118.04 158.399C118.454 158.856 119.033 160.682 119.282 162.416ZM124.498 172.642C125.574 174.194 128.803 182.501 128.306 182.501C127.892 182.501 122.18 172.824 122.18 172.002C122.18 171.089 123.587 171.546 124.498 172.642ZM134.433 188.436C134.93 189.714 135.261 190.718 135.178 190.718C135.013 190.718 134.019 189.714 132.943 188.436C131.453 186.701 131.287 186.153 132.281 186.153C132.943 186.153 133.936 187.157 134.433 188.436ZM141.222 195.374C141.222 195.922 140.891 196.013 140.394 195.739C139.981 195.465 139.567 194.735 139.567 194.278C139.567 193.731 139.981 193.639 140.394 193.913C140.891 194.187 141.222 194.918 141.222 195.374Z" fill="#5A430B"/>
<path d="M332.899 68.1156C326.887 71.6603 323.631 74.4779 308.183 89.5656C286.306 111.016 277.872 121.831 270.774 137.828C265.848 148.917 263.844 155.733 261.589 168.276C260.086 176.911 259.502 178.547 258.249 178.547C257.414 178.547 256.913 178.91 257.247 179.365C257.498 179.819 257.331 180.455 256.83 180.819C255.41 181.819 255.911 184 257.581 184C258.5 184 262.842 182.364 267.351 180.364C273.697 177.547 276.786 176.729 281.045 176.547L286.473 176.456L281.88 175.911L277.287 175.365L282.715 172.093C285.721 170.276 290.23 167.64 292.735 166.277C304.258 160.005 311.857 152.552 317.619 142.1C320.792 136.374 328.641 114.833 331.48 104.199C332.983 98.6545 334.402 94.2009 334.653 94.4736C334.987 94.9281 335.905 89.4747 336.49 83.476C336.573 82.4762 336.907 81.2037 337.241 80.6584C337.575 80.113 337.575 78.9315 337.241 78.0226C336.824 76.9319 336.991 76.6592 337.742 77.2046C338.577 77.659 338.661 77.3863 338.243 75.9321C337.909 74.8414 338.076 74.0234 338.577 74.0234C339.078 74.0234 339.496 73.2963 339.496 72.3874C339.496 71.4785 340.08 69.9334 340.748 68.9336C344.088 64.0256 340.498 63.662 332.899 68.1156ZM333.233 78.7497C329.058 98.7454 325.802 111.379 322.462 120.741C312.859 147.371 309.185 152.37 290.648 163.095C275.45 171.912 266.516 176.638 266.098 176.183C265.848 176.002 269.271 171.821 273.697 166.913C278.039 162.096 283.216 155.642 285.22 152.643C287.224 149.644 290.898 144.736 293.403 141.736C295.908 138.737 299.833 133.374 302.087 129.921C306.262 123.649 312.775 110.198 312.775 108.016C312.775 106.38 311.356 105.653 310.604 106.835C310.187 107.562 310.437 107.744 311.189 107.289C311.857 106.926 311.439 107.471 310.27 108.562C309.101 109.652 308.684 110.288 309.268 109.925C310.688 109.107 310.521 109.834 308.099 115.196C304.759 122.377 297.829 133.102 296.743 132.829C296.159 132.738 295.741 133.284 295.658 134.011C295.658 134.738 292.819 138.464 289.395 142.282C285.972 146.099 279.793 153.188 275.617 158.187C271.526 163.186 267.1 168.094 265.931 169.185L263.844 171.094L265.764 162.732C268.269 151.461 273.363 138.101 278.707 128.739C283.717 120.014 298.58 102.563 308.016 94.3827C311.356 91.5651 315.364 87.6569 316.951 85.8391C318.537 84.0213 319.539 83.2033 319.038 84.0213C318.621 84.8393 319.706 83.7486 321.543 81.5673C324.967 77.659 333.567 70.9332 334.235 71.6603C334.486 71.8421 333.985 75.0232 333.233 78.7497Z" fill="#5A430B"/>
<path d="M153.306 80.4545L152 83L153.523 80.8182C154.883 78.7273 155.264 78 154.829 78C154.72 78 154.067 79.0909 153.306 80.4545Z" fill="#5A430B"/>
<path d="M211 98.2055C211 98.9771 211.892 100.52 213.027 101.774C214.243 103.124 215.054 105.149 215.054 106.692C215.054 109.875 216.108 110.936 217.406 109.103C218.865 107.078 217.487 101.967 214.892 99.3628C212.216 96.6625 211 96.2767 211 98.2055Z" fill="#5A430B"/>
<path d="M180 103.526C180 103.789 180.645 105.104 181.533 106.332C182.339 107.647 183.227 109.488 183.549 110.452C183.791 111.417 185.243 112.82 186.695 113.521C190.164 115.275 190.245 117.204 187.018 118.782C185.405 119.571 184.356 120.886 184.195 122.026C183.872 124.393 185.405 124.744 186.292 122.464C186.615 121.587 187.744 120.974 188.873 120.974C193.471 120.974 192.826 112.557 188.067 110.628C186.695 110.102 185.647 108.962 185.647 108.261C185.647 106.595 182.42 103 180.968 103C180.403 103 180 103.263 180 103.526Z" fill="#5A430B"/>
<path d="M206.085 126.928C204.483 127.901 204.567 127.99 206.928 128.609C208.361 128.962 210.637 129.758 212.07 130.378C213.503 130.997 215.442 131.173 216.285 130.82C217.633 130.289 217.212 129.847 213.84 127.99C209.288 125.602 208.445 125.513 206.085 126.928Z" fill="#5A430B"/>
<path d="M145 130.555C145 131.458 145.715 132.361 146.609 132.662C147.861 132.962 148.13 133.865 147.861 136.573C147.682 138.478 147.861 139.983 148.398 139.983C148.845 139.983 149.471 141.286 149.828 142.991C150.097 144.596 150.812 146 151.349 146C152.064 146 152.153 144.897 151.796 142.69C151.438 140.986 150.901 137.576 150.633 135.169C150.276 132.06 149.739 130.957 148.845 131.358C148.219 131.659 147.414 131.257 147.146 130.455C146.431 128.449 145 128.55 145 130.555Z" fill="#5A430B"/>
<path d="M234.188 142.548C233.608 143.26 234.478 144.301 235.348 143.918C236.217 143.479 236.217 142 235.348 142C234.913 142 234.405 142.219 234.188 142.548Z" fill="#5A430B"/>
<path d="M311.819 160.952L306 168L312.069 161.241C317.639 155.062 318.47 154 317.805 154C317.722 154 314.978 157.186 311.819 160.952Z" fill="#5A430B"/>
<path d="M41.0361 158.479C40.789 159.456 40.1302 160.344 39.5538 160.344C37.5774 160.344 41.2831 169.404 44.4947 172.425C46.0593 173.935 50.4238 179.087 54.2118 183.706C64.176 196.319 80.9751 210.176 86.0807 209.998C86.7395 209.998 85.5866 209.288 83.5279 208.399C81.3868 207.511 78.834 206.09 77.7635 205.202C76.1989 203.958 76.1165 203.78 77.4341 204.313C90.9393 209.821 110.95 211.242 114.985 206.889C116.632 205.113 116.632 205.113 112.268 195.875C102.797 175.622 85.9984 164.253 60.1409 160.788C49.9297 159.456 46.3064 158.656 43.0124 157.235C41.8596 156.702 41.3655 157.058 41.0361 158.479ZM52.3178 165.318C54.3765 165.851 56.9293 166.651 58.0822 166.917C59.8939 167.45 59.9762 167.361 58.494 166.562C57.2587 165.94 57.9999 165.851 61.2938 166.207C66.3994 166.829 76.5283 169.937 74.1402 170.115C73.2343 170.204 74.6343 170.826 77.3518 171.536C88.7982 174.556 100.821 184.505 107.08 196.23C109.056 199.961 109.221 200.583 107.985 200.05C105.433 198.984 91.7628 190.101 86.0807 185.749C82.8691 183.261 80.481 182.018 79.9869 182.551C79.4928 183.084 79.5752 183.883 80.1516 184.594C80.7281 185.304 80.9751 186.015 80.7281 186.282C80.1516 186.815 83.3632 189.923 86.4924 191.789C88.9629 193.299 88.9629 193.299 86.9042 191.7C82.6221 188.236 80.8927 186.104 84.7631 188.946C86.9865 190.545 88.9629 192.411 89.1276 193.032C89.3746 193.654 93.6568 196.497 98.7624 199.428C108.727 205.202 108.562 205.468 97.0331 203.78C88.9629 202.626 76.94 198.362 71.9991 194.898C68.6228 192.588 43.2595 164.874 43.2595 163.542C43.2595 163.009 47.0475 163.72 52.3178 165.318Z" fill="#5A430B"/>
<path d="M228.734 159.737C227.267 161.105 228.105 162.263 230.306 161.948C233.135 161.526 234.079 159 231.459 159C230.306 159 229.048 159.316 228.734 159.737Z" fill="#5A430B"/>
<path d="M298.058 171.442C297.15 172.273 296.761 172.896 297.15 173C297.474 173 298.382 172.273 299.095 171.442C300.651 169.572 300.133 169.468 298.058 171.442Z" fill="#5A430B"/>
<path d="M174.034 177.902C174.285 180.699 174.452 180.88 176.958 180.609C178.963 180.429 179.882 180.79 180.717 182.143C181.803 184.038 183.891 184.579 185.06 183.316C185.394 182.955 188.151 182.684 191.158 182.684C198.676 182.684 199.01 180.88 191.743 180.068C188.318 179.707 185.812 179.797 185.311 180.339C184.726 180.97 183.64 180.519 181.97 178.985C180.466 177.632 178.796 176.91 177.877 177.09C176.958 177.361 176.039 177 175.789 176.278C174.953 173.932 173.784 175.015 174.034 177.902Z" fill="#5A430B"/>
<path d="M302.91 183.739L305.397 184.285L302.744 185.561C299.761 186.928 297.026 186.563 297.357 184.832C297.523 183.921 296.528 183.83 293.213 184.285C283.433 185.561 272.907 187.748 270.255 188.932C268.763 189.661 266.773 190.208 265.945 190.208C265.116 190.208 263.955 191.028 263.375 191.939C262.712 192.85 260.64 194.126 258.734 194.673C256.828 195.31 255.253 196.13 255.253 196.586C255.253 197.133 254.424 197.497 253.347 197.497C250.611 197.497 247.13 201.415 247.545 204.057C247.793 205.606 246.965 207.155 244.229 210.162C242.157 212.349 239.588 214.536 238.593 215.173C237.516 215.72 236.521 217.087 236.356 218.271C236.19 219.365 234.947 221.096 233.621 222.098C232.294 223.192 231.217 224.558 231.217 225.196C231.217 225.925 230.637 226.927 229.891 227.656C227.984 229.387 224.089 238.317 223.426 242.599C223.094 244.513 222.597 248.613 222.431 251.711C222.183 254.718 221.685 260.64 221.354 264.922C220.525 273.487 221.105 278.134 223.592 283.692C225.415 287.61 228.896 290.799 230.637 290.161C231.217 289.979 232.875 291.893 234.449 294.444C237.93 300.184 251.855 315.583 257.159 319.5C259.314 321.049 261.055 322.234 261.055 321.961C261.055 321.687 259.314 320.138 257.159 318.589C251.938 314.58 242.075 304.193 237.93 298.271C236.024 295.537 232.792 290.161 230.802 286.243C227.156 279.319 225.664 277.496 228.399 283.419L229.808 286.335L227.984 284.603C227.073 283.601 226.244 282.234 226.244 281.505C226.244 280.685 225.747 279.41 225.084 278.681C223.675 276.859 222.348 268.931 223.592 269.843C224.172 270.207 224.338 268.658 224.006 265.196C223.757 261.551 223.923 260.276 224.421 261.187C225.001 262.098 225.249 260.184 225.332 255.082C225.415 245.697 226.493 240.321 229.642 233.943C233.289 226.472 235.03 224.558 237.35 225.014C239.008 225.378 240.666 224.012 246.716 217.178L254.01 208.887L246.799 216.631C241.246 222.554 239.505 223.921 239.422 222.554C239.422 221.552 239.257 220.003 239.091 219.091C238.925 218.271 239.174 217.725 239.505 217.998C239.92 218.271 240.417 218.089 240.748 217.542C240.997 217.087 241.992 216.631 242.82 216.631C243.649 216.631 244.644 216.176 244.975 215.629C245.638 214.445 243.649 212.896 242.406 213.624C241.992 213.989 241.909 213.807 242.24 213.351C242.655 212.896 243.235 212.531 243.484 212.531C243.815 212.44 245.97 210.435 248.208 207.975C250.529 205.424 253.678 202.235 255.253 200.868C256.828 199.411 257.656 198.59 257.159 198.864C256.579 199.137 256.082 199.046 256.082 198.59C256.082 198.044 256.662 197.406 257.408 197.133C259.231 196.404 259.563 196.404 258.983 197.497C258.651 198.044 259.646 197.679 261.22 196.586C262.712 195.584 264.701 194.764 265.613 194.673H267.271L265.613 193.852C264.121 193.124 264.121 193.032 265.447 193.032C266.276 192.941 269.26 192.121 272.078 191.21C274.896 190.208 278.543 189.206 280.118 188.932C282.438 188.477 281.775 189.114 276.968 191.666C273.653 193.397 271.166 195.219 271.415 195.584C271.829 196.404 278.128 193.306 279.952 191.392C280.532 190.755 281.609 190.208 282.272 190.208C283.018 190.208 284.179 189.57 284.842 188.75C286.168 187.292 288.903 187.292 298.02 188.841C300.507 189.297 302.081 189.023 303.49 188.021C305.397 186.654 305.728 186.654 306.64 187.93C307.22 188.659 308.463 189.297 309.458 189.297C313.602 189.297 319.652 192.121 323.216 195.766C325.869 198.499 327.858 199.684 330.261 200.048C334.406 200.595 335.4 201.415 336.063 204.877C336.395 206.335 337.472 208.704 338.467 210.071C339.544 211.438 340.705 213.533 341.036 214.809L341.699 217.087L339.71 215.265L337.721 213.442L339.71 215.902C340.788 217.269 341.865 218.271 342.197 218.18C344.269 217.542 352.225 227.747 352.225 231.119C352.225 231.848 353.137 233.943 354.297 235.674C355.541 237.77 356.95 242.326 358.027 248.066C358.939 253.077 359.933 258.089 360.182 259.182C360.348 260.367 361.094 261.278 361.757 261.278C362.668 261.278 363 260.184 363 257.178C363 254.809 362.586 253.077 362.088 253.077C361.425 253.077 361.342 251.62 361.591 248.704C362.005 245.515 361.923 244.968 361.342 246.699C360.679 248.431 360.596 247.884 360.928 244.421C361.259 241.05 361.094 240.23 360.431 241.232C359.85 242.235 359.768 241.779 360.182 239.41C360.431 237.679 360.431 236.494 360.099 236.859C359.353 237.679 356.204 232.759 353.966 227.018C352.971 224.649 350.153 220.549 347.667 217.907C345.18 215.173 343.108 212.44 343.108 211.711C343.108 210.982 342.197 209.251 341.119 207.793C339.959 206.335 338.798 203.875 338.467 202.417L337.887 199.775L340.953 202.964C345.76 207.975 350.568 215.173 354.38 223.283C356.369 227.383 358.027 230.39 358.027 230.025C358.027 228.567 352.723 217.725 349.242 212.44C345.263 206.153 334.82 195.128 330.593 192.668C327.858 191.119 327.858 191.119 329.847 192.668C330.924 193.579 332.748 195.128 333.825 196.13L335.815 198.044L332.251 197.679C329.184 197.315 327.858 196.495 323.962 192.395C319.901 188.203 318.741 187.474 314.928 186.928C312.442 186.563 309.872 185.561 309.044 184.65C307.966 183.465 306.391 182.919 303.988 183.01C300.755 183.101 300.672 183.192 302.91 183.739Z" fill="#5A430B"/>
<path d="M300.135 208.904C299.791 209.456 300.135 210.376 300.824 210.928C301.512 211.479 302.373 212.859 302.718 214.055C303.062 215.158 303.751 216.078 304.181 216.078C304.612 216.078 304.956 216.722 304.956 217.458C304.956 218.285 305.558 219.113 306.333 219.481C307.108 219.757 307.538 220.677 307.28 221.688C306.936 222.976 307.711 223.62 311.068 224.816C315.372 226.379 319.246 226.379 318.988 224.908C318.902 224.356 316.836 223.344 314.339 222.608C310.379 221.321 309.777 220.769 308.658 217.55C306.419 210.56 301.857 205.961 300.135 208.904Z" fill="#5A430B"/>
<path d="M132.355 215.341C123.069 215.891 122.82 215.983 121.577 218.459C120.499 220.659 120.499 221.118 121.577 221.851C122.489 222.493 122.24 222.86 120.416 223.685C118.758 224.327 117.763 224.418 117.099 223.685C116.021 222.493 106.901 222.493 106.487 223.685C106.321 224.235 103.833 225.977 100.848 227.627C97.3661 229.553 95.1275 231.387 94.3813 233.129C93.718 234.596 92.6401 235.604 91.5622 235.604C89.6552 235.604 76.638 249.632 73.736 254.858C72.7411 256.6 70.3366 263.385 68.3467 269.987C64.9473 280.897 64.6985 282.364 65.196 287.865C65.5276 291.166 65.8593 292.541 65.9422 291.074C66.108 288.691 66.191 288.599 66.8543 290.158C67.9321 292.816 67.8492 298.226 66.8543 297.493C65.0302 296.301 67.0201 306.753 69.8391 313.446C71.4145 317.113 72.6581 321.239 72.6581 322.615C72.6581 326.007 75.3113 330.408 79.2912 333.617C81.1982 335.084 83.4368 337.376 84.3488 338.66C85.2609 339.943 86.5046 341.044 87.1679 341.044C87.7483 341.044 88.6603 341.685 89.2407 342.419C89.8211 343.152 90.5673 343.519 90.9819 343.244C91.3964 342.969 91.6452 343.061 91.5622 343.519C91.1477 344.894 100.102 353.146 101.429 352.596C102.092 352.321 102.424 352.413 102.175 352.871C101.926 353.33 102.258 354.155 102.921 354.797C103.585 355.438 104.165 356.447 104.165 357.089C104.165 359.198 108.311 363.874 111.213 365.065C113.202 365.799 113.783 366.441 113.037 366.899C112.539 367.266 113.202 367.358 114.695 367.083C116.187 366.716 119.504 366.808 122.157 367.266C126.8 367.908 126.883 367.999 124.064 368.641C121.411 369.191 121.494 369.283 125.722 369.466C128.21 369.65 132.687 369.833 135.672 369.925C138.657 370.017 142.636 370.383 144.626 370.75C146.782 371.208 149.684 371.025 152.171 370.292C155.571 369.375 156.068 368.916 155.156 367.908C154.327 366.991 153.498 366.991 151.84 367.633C148.772 368.916 145.373 368.825 146.119 367.449C146.533 366.716 144.709 366.532 138.822 366.991C134.428 367.266 130.531 367.083 130.2 366.716C129.536 365.982 119.587 363.14 116.436 362.773C115.69 362.682 115.192 362.407 115.358 362.132C115.524 361.765 114.446 360.848 112.871 360.023C109.388 358.189 108.974 358.739 112.29 360.665C113.534 361.398 114.032 362.04 113.368 362.132C111.71 362.132 106.984 356.08 106.072 352.688C105.492 350.396 104.828 349.662 103.087 349.479C101.595 349.295 100.434 348.287 99.6048 346.637C98.3611 343.886 94.1325 339.943 90.4844 338.11C87.8312 336.826 78.2133 326.741 77.0525 324.082C76.555 323.073 75.8917 320.598 75.643 318.672C75.3113 316.747 73.9018 312.896 72.4923 310.145C70.0878 305.378 70.0049 305.011 70.5853 297.126C71.0828 290.433 70.917 288.507 69.7562 286.032C68.5125 283.281 68.5125 282.548 69.6733 276.68C70.4195 273.196 71.7461 268.428 72.5752 266.227C73.4873 264.027 74.1506 262.01 74.0677 261.735C73.9847 261.551 74.648 260.726 75.5601 259.901C76.4721 259.076 76.7209 258.709 76.1405 258.984C73.5702 260.451 77.1354 255.5 84.5976 247.065C89.2407 241.839 92.9718 238.355 93.9667 238.355C95.7079 238.355 98.9415 235.054 98.1123 234.137C97.449 233.404 100.351 230.836 104.745 228.361C108.311 226.435 113.617 225.794 114.446 227.261C114.861 227.994 121.494 224.968 122.406 223.593C122.986 222.768 126.8 221.393 127.795 221.759C128.293 221.851 128.21 221.484 127.712 220.934C126.966 220.109 126.303 220.109 125.059 220.843C122.82 222.126 122.406 222.126 122.903 220.567C123.401 219.192 128.79 218.734 144.792 218.734C154.161 218.734 159.468 219.834 162.204 222.31C162.867 222.951 164.443 223.685 165.769 224.052C167.013 224.327 168.008 225.243 168.008 225.977C168.008 226.802 168.754 227.352 169.998 227.352C173.729 227.352 179.201 230.195 182.766 233.954C184.673 236.063 186.249 238.263 186.249 238.813C186.249 239.272 186.995 240.28 187.907 240.922C189.316 241.839 189.565 243.031 189.565 247.89C189.565 252.933 189.897 254.125 192.052 257.242C198.52 266.502 201.173 272.645 201.173 277.963C201.173 280.714 204.324 298.959 204.904 299.601C205.733 300.518 206.313 292.633 205.816 287.59C204.655 275.946 204.241 273.196 203.66 273.654C203.329 273.837 203.246 273.012 203.494 271.637C203.743 270.078 203.577 269.436 202.997 269.895C202.499 270.262 202.334 269.711 202.582 268.428C202.831 267.236 202.748 266.594 202.417 266.961C202.085 267.328 200.758 265.861 199.515 263.752C198.271 261.643 195.949 257.884 194.291 255.408C191.389 251.282 190.394 247.34 191.887 246.24C192.301 245.965 193.462 247.432 194.457 249.357C195.452 251.374 196.447 253.025 196.696 253.025C197.193 253.025 195.535 249.632 193.628 246.423C192.716 245.139 192.052 243.397 192.052 242.572C192.052 241.747 191.306 240.28 190.394 239.272C189.482 238.263 188.985 236.979 189.15 236.246C189.897 234.32 181.191 226.71 176.382 224.968C173.977 224.143 171.822 222.86 171.573 222.218C171.324 221.484 170.412 220.934 169.5 220.934C168.671 220.934 166.764 220.292 165.272 219.376C158.556 215.525 148.855 214.333 132.355 215.341ZM95.9566 346.637C97.0345 349.02 96.537 348.837 94.1325 345.995C92.723 344.253 92.5572 343.886 93.6351 344.344C94.4642 344.619 95.4591 345.72 95.9566 346.637Z" fill="#5A430B"/>
<path d="M289.611 216.638C288.573 219.402 288.885 222.371 290.338 221.962C291.79 221.45 292.724 215 291.272 215C290.649 215 289.922 215.717 289.611 216.638Z" fill="#5A430B"/>
<path d="M326 228.678C326.08 230.085 328.17 233 329.135 233C330.341 233 330.26 230.688 329.055 229.181C328.01 227.874 326 227.573 326 228.678Z" fill="#5A430B"/>
<path d="M177.103 241.5C180.122 245.029 182.824 248 182.983 248C183.221 248 180.917 245.029 177.897 241.5C174.878 237.879 172.176 235 172.017 235C171.779 235 174.083 237.879 177.103 241.5Z" fill="#5A430B"/>
<path d="M132.125 242.063C130.251 245.214 130.495 245.5 134.57 244.927C138.237 244.45 138.237 244.545 137.666 247.028C137.177 249.32 137.34 249.511 139.622 249.511C140.926 249.511 142.23 250.084 142.474 250.848C142.719 251.612 144.919 252.376 148.015 252.758C154.127 253.617 156.49 251.994 150.623 250.943C145.571 250.084 143.859 248.938 143.859 246.551C143.859 244.832 143.778 244.736 141.822 246.264C139.785 247.792 139.785 247.792 139.785 244.832C139.785 242.349 139.459 241.872 137.829 241.872C136.688 241.872 135.548 241.394 135.303 240.917C134.488 239.389 133.429 239.771 132.125 242.063Z" fill="#5A430B"/>
<path d="M252.721 243.851C252.477 245.455 251.99 248.751 251.747 251.246C251.503 253.651 250.935 256.235 250.448 256.948C249.718 257.839 249.88 258.373 250.935 259.264C251.666 259.799 252.396 261.313 252.558 262.472C252.883 264.699 254.993 265.857 255.886 264.253C256.21 263.808 255.805 261.848 255.155 259.888C253.695 255.879 253.37 249.375 254.344 244.296C254.75 242.158 254.668 241 254.1 241C253.695 241 253.045 242.336 252.721 243.851Z" fill="#5A430B"/>
<path d="M333.011 245.954C331.06 248.046 332.093 248.744 334.733 247.05C335.996 246.253 336.34 245.555 335.651 245.156C334.963 244.758 333.815 245.156 333.011 245.954Z" fill="#5A430B"/>
<path d="M311.661 254.989C310.754 256.215 310.754 256.78 311.826 257.911C313.558 259.89 319.578 260.738 321.145 259.23C322.877 257.628 321.887 256.403 319.001 256.403C317.681 256.403 315.702 255.743 314.63 254.989C312.898 253.67 312.568 253.67 311.661 254.989Z" fill="#5A430B"/>
<path d="M117 256.916C117 258.031 117.586 259.248 118.256 259.552C118.926 259.958 119.513 260.769 119.513 261.58C119.513 262.392 120.099 263 120.769 263C122.695 263 122.277 259.552 120.099 257.118C117.67 254.381 117 254.279 117 256.916Z" fill="#5A430B"/>
<path d="M161.046 266.5C161.864 267.833 162.681 269 162.954 269C163.136 269 162.772 267.833 161.954 266.5C161.136 265.083 160.319 264 160.046 264C159.864 264 160.228 265.083 161.046 266.5Z" fill="#5A430B"/>
<path d="M93.9527 269.967C92.6635 272.19 92.6635 272.375 94.0699 272.931C94.8318 273.209 95.4764 272.653 96.121 271.171C96.5898 269.967 97 268.763 97 268.485C97 267.374 94.8318 268.3 93.9527 269.967Z" fill="#5A430B"/>
<path d="M180.228 274.393C179.892 275.136 180.228 276.436 180.816 277.271C181.74 278.479 181.488 279.036 179.556 280.8C177.54 282.564 177.12 283.586 176.868 288.786C176.616 292.779 176.028 295.007 175.272 295.564C174.012 296.307 173.508 299 174.6 299C174.936 299 176.364 298.536 177.876 297.886L180.48 296.864L180.144 290.271C179.892 283.771 179.892 283.586 182.412 281.543C186.275 278.386 185.688 273 181.488 273C181.068 273 180.48 273.65 180.228 274.393Z" fill="#5A430B"/>
<path d="M281.596 276.194C280.764 277.149 280.764 277.387 281.845 277.387C282.594 277.387 283.509 277.944 283.842 278.501C284.757 280.172 293.326 280.57 293.909 279.058C294.158 278.263 293.909 278.103 292.994 278.422C292.245 278.66 291.413 278.581 291.163 278.183C290.831 277.706 289.583 277.387 288.252 277.387C287.004 277.387 285.756 276.83 285.423 276.194C285.173 275.557 284.424 275 283.842 275C283.177 275 282.178 275.557 281.596 276.194Z" fill="#5A430B"/>
<path d="M336.573 280.335C335.558 281.908 335.993 290.512 337.081 290.974C337.515 291.159 338.24 290.327 338.675 289.032C339.763 286.071 337.878 278.3 336.573 280.335Z" fill="#5A430B"/>
<path d="M139.157 281.158C138.426 283.233 140.374 286 142.485 286C145.001 286 145.975 284.271 143.784 283.665C142.891 283.406 141.917 282.455 141.673 281.59C141.105 279.688 139.806 279.429 139.157 281.158Z" fill="#5A430B"/>
<path d="M109 283.774C109 285.326 109.3 285.326 110.5 284.217C111.3 283.441 112 282.665 112 282.443C112 282.222 111.3 282 110.5 282C109.7 282 109 282.776 109 283.774Z" fill="#5A430B"/>
<path d="M318.696 290.256C317.126 290.88 312.913 292.128 309.443 292.93C305.891 293.821 303 294.801 303 295.247C303 296.405 305.891 296.227 312.83 294.712C319.852 293.108 322 292.039 322 290.256C322 289.543 321.917 288.919 321.835 289.009C321.67 289.098 320.265 289.632 318.696 290.256Z" fill="#5A430B"/>
<path d="M225.699 297.869C230.615 308.869 242.613 322.523 252.362 328.213C255.528 330.014 254.028 328.687 248.529 324.609C241.113 319.11 234.531 311.808 229.782 303.748C225.116 295.688 224.116 294.266 225.699 297.869Z" fill="#5A430B"/>
<path d="M353.787 297.919C354.035 298.378 353.87 298.837 353.373 298.837C352.876 298.837 352.71 299.204 352.959 299.756C353.207 300.215 353.042 300.674 352.545 300.674C352.048 300.674 351.799 301.042 352.048 301.409C352.462 302.144 351.551 302.787 347.162 305.175C346.748 305.451 346.914 304.808 347.576 303.797C348.322 302.695 347.99 302.787 346.5 304.256C344.099 306.645 343.602 307.655 345.341 306.553C345.837 306.185 344.513 307.655 342.36 309.86C340.207 311.972 338.633 313.993 338.799 314.269C339.379 314.912 337.64 317.208 336.646 317.208C336.149 317.208 336.315 316.473 336.895 315.646C337.971 314.177 336.812 315.003 328.945 321.617C323.894 325.842 313.709 330.986 310.48 330.986C308.824 330.986 306.422 331.721 305.346 332.548C304.187 333.466 300.709 334.476 297.479 334.936C290.358 335.762 290.524 335.762 287.625 335.028C286.052 334.568 285.059 334.844 284.562 335.671C284.065 336.589 283.485 336.681 282.574 336.038C281.829 335.487 281.25 334.752 281.332 334.293C281.498 333.374 279.676 331.905 278.434 331.905C278.02 331.905 278.186 332.364 278.848 332.915C279.759 333.65 279.428 333.742 277.275 333.374C275.784 333.099 273.383 332.823 272.058 332.823C270.319 332.823 268.829 331.905 267.09 329.884C265.102 327.496 263.943 326.944 261.542 326.944C258.975 327.036 258.395 326.669 257.319 324.189C256.408 322.076 255.249 321.158 253.013 320.606C249.535 319.688 242.414 311.88 240.095 306.461C238.77 303.338 236.866 302.511 236.121 304.716C235.375 306.828 238.108 311.605 243.573 317.851C247.134 321.892 249.287 323.638 250.777 323.638C253.51 323.638 254.835 325.199 254.835 328.414C254.835 330.527 255.166 330.986 256.822 330.986C257.898 330.986 259.555 331.262 260.383 331.537C261.625 331.996 261.625 331.905 260.631 331.078C259.555 330.251 259.72 330.067 261.211 330.067C263.198 330.067 264.523 331.537 263.032 332.088C261.211 332.731 269.574 336.497 272.886 336.497C275.288 336.497 276.944 337.14 278.683 338.794C281.498 341.457 283.154 341.641 284.645 339.712C285.39 338.702 286.052 338.61 287.129 339.253C288.122 339.804 289.447 339.896 290.689 339.345C291.766 338.885 294.912 338.242 297.728 338.059C300.46 337.783 303.772 336.773 304.932 335.946C306.339 334.936 308.41 334.385 310.397 334.476C312.55 334.66 314.951 333.925 318.263 331.905C320.83 330.435 323.397 329.149 323.894 329.149C324.391 329.057 325.881 328.139 327.206 326.944C329.525 324.832 333.168 324.648 332.092 326.761C331.843 327.312 332.34 326.944 333.334 326.026C335.238 324.189 335.735 323.087 334.245 324.189C333.665 324.556 333.417 324.097 333.665 323.087C333.831 322.168 334.907 320.882 336.066 320.239C337.309 319.596 340.041 316.749 342.194 313.993C344.264 311.237 346.334 309.125 346.748 309.4C347.08 309.676 347.908 309.125 348.487 308.298C349.315 307.196 349.315 307.012 348.653 307.471C348.073 307.839 347.576 307.655 347.576 307.196C347.576 306.645 348.073 306.185 348.736 306.185C349.398 306.185 351.054 304.716 352.462 302.971C355.029 299.664 355.774 297 354.118 297C353.704 297 353.538 297.367 353.787 297.919Z" fill="#5A430B"/>
<path d="M120.474 301.691C119.611 302.894 120.009 305 121.005 305C121.535 305 122 304.097 122 302.994C122 300.989 121.27 300.387 120.474 301.691Z" fill="#5A430B"/>
<path d="M100.104 306.628C99.7663 306.907 100.273 307.837 101.287 308.581C102.724 309.698 102.893 310.535 102.47 313.512C101.963 316.488 102.132 317.14 103.231 317.14C103.992 317.14 104.583 317.512 104.583 318.07C104.583 318.535 105.006 319 105.513 319C106.611 319 105.682 308.86 104.414 307.093C103.485 305.884 101.034 305.604 100.104 306.628Z" fill="#5A430B"/>
<path d="M308.93 307.165C307.319 307.722 305.707 308.928 305.283 309.857C304.775 310.692 303.842 311.434 303.079 311.434C302.315 311.434 299.263 313.198 296.125 315.332C290.444 319.23 289.002 319.602 282.473 318.395C277.724 317.467 276.876 316.817 275.604 312.548C274.501 308.464 272.805 306.794 270.601 307.444C268.481 308.093 268.481 309.207 270.516 310.413C271.364 310.97 272.382 312.826 272.636 314.59C273.569 319.88 274.586 320.344 287.645 320.994C289.935 321.087 292.14 320.158 295.871 317.653C298.669 315.796 301.722 314.219 302.739 314.219C303.672 314.219 305.283 313.012 306.301 311.527C307.319 310.042 309.184 308.557 310.541 308.279C311.898 308 313 307.351 313 306.794C313 305.68 312.491 305.68 308.93 307.165Z" fill="#5A430B"/>
<path d="M201.897 312.627C201.237 317.373 199.835 321.469 198.927 321.469C198.185 321.469 192.329 332.079 192.329 333.475C192.329 334.033 191.174 335.988 189.69 337.942C187.133 341.293 187.133 341.386 189.36 339.152C190.679 337.849 191.504 337.477 191.092 338.222C189.937 340.642 188.04 342.875 187.38 342.41C187.05 342.224 185.896 343.061 184.823 344.458C183.751 345.761 183.339 346.598 183.916 346.226C185.813 345.016 184.906 347.343 182.761 349.297C179.875 351.903 178.473 351.81 180.452 349.111C181.854 347.25 181.772 347.25 179.71 349.297C177.483 351.531 176.741 352.834 178.308 351.717C179.297 350.973 179.38 354.044 178.39 355.813C177.813 356.836 177.153 356.836 175.091 356.092C173.689 355.533 172.534 355.161 172.452 355.254C172.452 355.347 172.287 356.185 172.122 357.209C171.957 358.139 171.462 359.349 170.967 359.908C169.73 361.304 162.389 361.676 161.647 360.28C161.152 359.535 160.822 359.815 160.492 361.211C160.245 362.328 159.255 363.538 158.348 363.91C157.44 364.189 156.863 364.561 157.028 364.654C157.44 365.12 167.833 363.724 170.06 362.886C172.039 362.235 172.122 362.235 170.472 363.817C168.823 365.306 168.823 365.306 170.637 364.282C171.709 363.724 172.452 362.979 172.369 362.607C171.874 359.908 175.256 357.302 175.998 359.815C176.163 360.373 178.72 358.232 181.689 354.882C184.658 351.624 185.648 350.414 183.916 352.183C182.184 353.951 180.782 354.882 180.782 354.23C180.782 352.927 186.556 346.971 187.463 347.25C187.71 347.343 188.7 346.505 189.525 345.388C191.092 343.341 191.092 343.341 189.36 344.737C188.453 345.481 188.7 345.109 189.855 343.806C192.329 341.2 195.711 335.616 194.226 336.639C193.484 337.198 193.401 336.639 194.144 334.313C195.381 330.217 196.535 328.542 197.278 329.845C197.608 330.497 198.432 329.473 199.175 327.332C199.835 325.378 201.237 323.051 202.144 322.213C203.134 321.282 203.876 319.421 203.876 318.118C203.876 316.629 204.701 314.767 205.938 313.464C207.093 312.254 208 310.858 208 310.3C208 309.09 205.773 309.09 205.113 310.393C204.701 310.951 204.123 310.765 203.464 309.741C202.556 308.345 202.391 308.717 201.897 312.627ZM187.38 343.248C187.38 343.434 186.72 344.178 185.978 344.83C184.658 346.04 184.576 345.947 185.648 344.458C186.72 342.968 187.38 342.503 187.38 343.248Z" fill="#5A430B"/>
<path d="M182.445 310.693C181.768 311.694 181.904 315 182.58 315C183.188 315 184 312.596 184 310.893C184 309.791 183.053 309.691 182.445 310.693Z" fill="#5A430B"/>
<path d="M63.0245 315.15C63.0245 316.039 63.3991 316.281 63.7738 315.635C64.1484 315.07 64.0236 314.343 63.6489 314.1C63.2743 313.777 62.8996 314.262 63.0245 315.15Z" fill="#5A430B"/>
<path d="M158.719 319.138C155.875 321.32 153.844 322.229 152.056 322.047C150.675 321.956 149.05 322.32 148.4 322.865C146.775 324.32 141.169 323.592 140.275 321.865C139.462 320.229 138 320.684 138 322.683C138 323.32 138.487 324.501 139.137 325.138C140.925 327.138 152.869 325.41 157.5 322.502C161.725 319.866 164 317.775 164 316.593C164 315.411 163.025 315.866 158.719 319.138Z" fill="#5A430B"/>
<path d="M65 324.409C65 325.404 69.5017 334 69.9519 334C70.222 334 69.3217 331.828 68.0612 329.205C65.5402 324.228 65 323.323 65 324.409Z" fill="#5A430B"/>
<path d="M108.424 327.4C107.249 329.672 108.695 334 110.593 334C111.496 334 112.581 333.459 112.852 332.918C113.123 332.269 113.033 331.836 112.49 331.836C111.948 331.836 110.954 330.537 110.321 329.023C109.418 327.075 108.875 326.534 108.424 327.4Z" fill="#5A430B"/>
<path d="M71.0913 335.314C72.5461 338.634 79.8201 347.964 83.2955 351.015C89.842 356.847 89.7612 356.667 81.7598 347.875C77.5571 343.209 73.2735 338.095 72.3037 336.66C71.3338 335.135 70.768 334.596 71.0913 335.314Z" fill="#5A430B"/>
<path d="M204.557 336.733C201.831 338.557 195.636 347.496 192.911 353.698C189.937 360.174 184.486 378.507 183.164 386.259C182.503 390.455 181.925 396.931 182.008 400.67C182.008 415.72 182.09 418 182.586 418C183.495 418 188.533 413.896 188.533 413.166C188.533 412.71 189.029 412.71 189.607 413.075C190.102 413.44 190.35 413.44 190.02 413.075C189.772 412.71 191.837 409.153 194.728 405.231C197.619 401.218 200.427 397.204 200.923 396.11C201.418 395.107 202.244 394.559 202.74 394.833C203.318 395.198 203.4 395.107 203.07 394.468C202.74 393.83 202.905 392.644 203.318 391.823C203.813 390.911 204.226 390.546 204.226 391.093C204.392 393.1 210.091 374.22 210.917 368.93L211.825 363.092L215.625 367.288C219.259 371.392 227.436 376.409 232.062 377.412C234.044 377.777 233.961 377.686 231.483 376.5C228.675 375.132 228.675 375.132 231.07 375.588C232.475 375.77 236.191 376.226 239.33 376.591C242.551 376.865 247.672 377.686 250.728 378.415C253.867 379.145 257.584 379.692 258.988 379.784C261.218 379.784 261.383 379.966 259.979 380.604C258.493 381.334 258.575 381.425 260.557 381.425C264.192 381.516 267 379.966 267 377.777C267 374.676 263.448 370.207 256.015 364.004C252.298 360.903 246.351 355.796 242.799 352.603C239.247 349.411 234.539 345.763 232.227 344.486C227.271 341.749 218.763 339.56 212.734 339.56C208.604 339.56 206.539 338.466 208.356 337.28C209.513 336.459 209.43 335 208.191 335C207.613 335 205.961 335.821 204.557 336.733ZM202.079 351.782C201.418 356.16 199.766 362.91 198.445 366.923C195.636 375.405 194.976 381.06 196.793 381.06C197.619 381.06 198.197 379.692 198.527 376.956C198.858 374.676 200.262 369.477 201.666 365.373C202.987 361.268 204.392 355.704 204.722 353.059L205.3 348.225L206.539 351.418C208.191 355.613 208.108 366.649 206.291 374.129C203.566 385.712 197.123 398.208 188.12 409.335L184.486 413.896L184.403 405.14C184.403 400.305 184.981 392.918 185.725 388.813C187.129 380.604 192.498 362.636 195.802 355.522C198.114 350.232 202.574 342.935 203.07 343.391C203.235 343.665 202.822 347.404 202.079 351.782ZM219.507 345.033C224.958 345.763 228.014 346.675 231.318 348.681C233.796 350.141 236.191 351.144 236.687 350.779C237.183 350.505 237.265 350.688 236.935 351.235C236.357 352.238 237.513 352.786 239.33 352.33C239.743 352.238 239.908 352.512 239.578 352.877C238.917 353.607 245.442 359.353 246.516 358.988C247.507 358.623 263.366 375.77 262.705 376.5C262.375 376.956 258.493 373.125 254.115 368.2C246.764 359.809 246.599 359.718 252.463 366.832C255.932 371.027 258.575 374.676 258.493 374.858C258.327 375.041 254.693 374.585 250.398 373.855C246.103 373.125 239.578 372.031 235.778 371.575C225.289 370.115 219.342 366.467 214.055 358.349C211.082 353.971 210.917 352.147 213.725 355.796C214.799 357.255 216.946 358.988 218.433 359.626C219.92 360.174 221.737 361.086 222.48 361.451C223.637 362.089 223.802 361.907 223.471 360.447C223.224 359.444 222.233 358.167 221.241 357.62C217.359 355.34 210.008 347.04 210.008 344.942C210.008 343.938 210.421 343.938 219.507 345.033Z" fill="#5A430B"/>
<path d="M159 340.5C159 340.75 159.25 341 159.5 341C159.8 341 160 340.75 160 340.5C160 340.2 159.8 340 159.5 340C159.25 340 159 340.2 159 340.5Z" fill="#5A430B"/>
<path d="M132 347.829C132 349.352 132.4 350.331 133 349.896C133.6 349.57 134 348.264 134 347.067C134 345.979 133.6 345 133 345C132.5 345 132 346.306 132 347.829Z" fill="#5A430B"/>
<path d="M91.2015 357.317C93.2229 359.336 102.656 365.499 102.993 364.968C103.162 364.755 100.214 362.63 96.4235 360.186C92.6334 357.636 90.275 356.361 91.2015 357.317Z" fill="#5A430B"/>
<path d="M168.002 357.15C166.619 358.188 166.619 358.262 168.309 357.447C169.232 357.002 170 356.483 170 356.335C170 355.742 169.616 355.89 168.002 357.15Z" fill="#5A430B"/>
</svg>
