<svg width="94" height="33" viewBox="0 0 94 33" fill="none" xmlns="http://www.w3.org/2000/svg">
<path d="M10.2292 9.47C9.97716 10.322 9.68916 11.246 9.36516 12.242C9.05316 13.238 8.72316 14.264 8.37516 15.32C8.03916 16.364 7.69716 17.42 7.34916 18.488C7.01316 19.556 6.68316 20.588 6.35916 21.584C6.03516 22.58 5.73516 23.516 5.45916 24.392C5.18316 25.268 4.94916 26.042 4.75716 26.714C4.66116 27.062 4.57716 27.326 4.50516 27.506C4.43316 27.674 4.28916 27.758 4.07316 27.758C3.68916 27.758 3.28116 27.656 2.84916 27.452C2.41716 27.236 2.02116 26.978 1.66116 26.678C1.30116 26.366 1.00716 26.048 0.779156 25.724C0.539156 25.388 0.419156 25.094 0.419156 24.842C0.419156 23.834 0.521156 22.778 0.725156 21.674C0.929156 20.558 1.19916 19.424 1.53516 18.272C1.85916 17.108 2.23116 15.926 2.65116 14.726C3.07116 13.526 3.49716 12.326 3.92916 11.126C4.37316 9.926 4.79916 8.738 5.20716 7.562C5.61516 6.374 5.97516 5.216 6.28716 4.088C6.37116 3.788 6.44316 3.518 6.50316 3.278C6.57516 3.038 6.65916 2.84 6.75516 2.684C6.86316 2.516 7.00716 2.39 7.18716 2.306C7.36716 2.21 7.61316 2.15 7.92516 2.126C8.34516 2.414 8.83116 2.858 9.38316 3.458C9.94716 4.058 10.5292 4.73 11.1292 5.474C11.7412 6.206 12.3472 6.962 12.9472 7.742C13.5592 8.522 14.1232 9.236 14.6392 9.884C15.1672 10.52 15.6292 11.048 16.0252 11.468C16.4332 11.876 16.7332 12.08 16.9252 12.08C17.0572 12.008 17.3032 11.816 17.6632 11.504C18.0352 11.192 18.4852 10.802 19.0132 10.334C19.5412 9.866 20.1352 9.344 20.7952 8.768C21.4552 8.192 22.1452 7.604 22.8652 7.004C23.5852 6.392 24.3172 5.792 25.0612 5.204C25.8172 4.616 26.5492 4.076 27.2572 3.584C27.9652 3.092 28.6312 2.672 29.2552 2.324C29.8912 1.976 30.4552 1.736 30.9472 1.604C31.2352 1.82 31.5352 2.054 31.8472 2.306C32.1712 2.546 32.4772 2.81 32.7652 3.098C33.0532 3.374 33.3052 3.68 33.5212 4.016C33.7372 4.34 33.8932 4.688 33.9892 5.06C33.6292 5.804 33.2212 6.692 32.7652 7.724C32.3092 8.756 31.8292 9.878 31.3252 11.09C30.8332 12.302 30.3172 13.574 29.7772 14.906C29.2492 16.226 28.7272 17.546 28.2112 18.866C27.6952 20.186 27.1912 21.47 26.6992 22.718C26.2192 23.954 25.7752 25.1 25.3672 26.156C24.9592 27.2 24.5992 28.118 24.2872 28.91C23.9752 29.702 23.7292 30.302 23.5492 30.71C23.1292 30.71 22.6732 30.656 22.1812 30.548C21.7012 30.452 21.2512 30.302 20.8312 30.098C20.4112 29.906 20.0632 29.654 19.7872 29.342C19.5112 29.042 19.3732 28.682 19.3732 28.262C19.3732 27.83 19.4632 27.248 19.6432 26.516C19.8232 25.772 20.0572 24.944 20.3452 24.032C20.6332 23.108 20.9632 22.136 21.3352 21.116C21.7072 20.084 22.0852 19.064 22.4692 18.056C23.3812 15.692 24.4132 13.148 25.5652 10.424L17.5192 16.328C17.2792 16.328 16.9672 16.202 16.5832 15.95C16.2112 15.686 15.7972 15.35 15.3412 14.942C14.8852 14.534 14.4112 14.078 13.9192 13.574C13.4272 13.058 12.9472 12.548 12.4792 12.044C12.0232 11.528 11.5972 11.048 11.2012 10.604C10.8052 10.148 10.4812 9.77 10.2292 9.47ZM49.1168 30.242C48.3128 30.158 47.6348 30.002 47.0828 29.774C46.5428 29.546 46.0988 29.258 45.7508 28.91C45.4028 28.562 45.1388 28.172 44.9588 27.74C44.7788 27.296 44.6468 26.828 44.5628 26.336C44.4788 25.844 44.4248 25.334 44.4008 24.806C44.3888 24.278 44.3768 23.75 44.3648 23.222C43.7528 23.066 43.1048 22.928 42.4208 22.808C41.7368 22.688 41.0408 22.58 40.3328 22.484C39.6368 22.388 38.9468 22.304 38.2628 22.232C37.5788 22.16 36.9308 22.106 36.3188 22.07C35.9828 22.538 35.5748 23.09 35.0947 23.726C34.6268 24.362 34.1408 25.028 33.6368 25.724C33.1328 26.408 32.6408 27.098 32.1608 27.794C31.6928 28.49 31.2848 29.126 30.9368 29.702C30.8288 29.714 30.6128 29.636 30.2887 29.468C29.9527 29.3 29.5807 29.084 29.1727 28.82C28.7647 28.556 28.3567 28.274 27.9487 27.974C27.5287 27.674 27.1807 27.404 26.9047 27.164C27.3127 26.54 27.8347 25.796 28.4707 24.932C29.1067 24.068 29.8387 23.12 30.6668 22.088C31.5068 21.044 32.4188 19.94 33.4028 18.776C34.3988 17.6 35.4488 16.394 36.5528 15.158C37.6688 13.922 38.8208 12.674 40.0088 11.414C41.2088 10.142 42.4268 8.894 43.6628 7.67C44.8988 6.446 46.1408 5.258 47.3888 4.106C48.6368 2.954 49.8668 1.88 51.0788 0.883999C51.4028 0.883999 51.7688 0.919999 52.1768 0.991998C52.5848 1.064 52.9628 1.154 53.3108 1.262C53.6588 1.37 53.9408 1.484 54.1568 1.604C54.3848 1.724 54.4868 1.826 54.4628 1.91C53.9828 3.518 53.5028 5.216 53.0228 7.004C52.5548 8.792 52.1348 10.598 51.7628 12.422C51.3908 14.246 51.0848 16.064 50.8448 17.876C50.6168 19.676 50.5028 21.398 50.5028 23.042C50.5028 23.606 50.5208 24.182 50.5568 24.77C50.6048 25.358 50.6408 25.928 50.6648 26.48C50.7008 27.02 50.7128 27.53 50.7008 28.01C50.7008 28.478 50.6468 28.886 50.5388 29.234C50.4427 29.582 50.2808 29.846 50.0528 30.026C49.8248 30.206 49.5128 30.278 49.1168 30.242ZM44.4728 20.198C44.5328 19.946 44.6228 19.55 44.7428 19.01C44.8748 18.458 45.0188 17.84 45.1748 17.156C45.3428 16.472 45.5168 15.752 45.6968 14.996C45.8888 14.24 46.0688 13.532 46.2368 12.872C46.4168 12.212 46.5788 11.636 46.7228 11.144C46.8788 10.64 47.0108 10.304 47.1188 10.136C46.8428 10.352 46.5008 10.664 46.0928 11.072C45.6968 11.48 45.2588 11.948 44.7788 12.476C44.2988 12.992 43.7828 13.55 43.2308 14.15C42.6908 14.75 42.1448 15.356 41.5928 15.968C41.0408 16.58 40.4888 17.18 39.9368 17.768C39.3848 18.356 38.8568 18.896 38.3528 19.388L44.4728 20.198ZM61.4563 1.55C61.8043 1.802 62.1763 2.036 62.5723 2.252C62.9803 2.468 63.3823 2.678 63.7783 2.882C64.1863 3.086 64.5703 3.29 64.9303 3.494C65.2903 3.686 65.6083 3.89 65.8843 4.106C65.9563 4.178 65.9023 4.496 65.7223 5.06C65.5543 5.624 65.3023 6.356 64.9663 7.256C64.6303 8.156 64.2223 9.188 63.7423 10.352C63.2743 11.516 62.7763 12.728 62.2483 13.988C61.7203 15.248 61.1743 16.52 60.6103 17.804C60.0583 19.076 59.5243 20.282 59.0083 21.422C58.5043 22.55 58.0363 23.576 57.6043 24.5C57.1843 25.424 56.8423 26.156 56.5783 26.696C56.4463 26.972 56.2723 27.254 56.0563 27.542C55.8403 27.83 55.5943 28.094 55.3183 28.334C55.0543 28.562 54.7603 28.754 54.4363 28.91C54.1243 29.066 53.7943 29.144 53.4463 29.144C52.8823 29.144 52.5043 29.03 52.3123 28.802C52.1203 28.574 52.0243 28.232 52.0243 27.776C52.0243 27.392 52.0903 26.84 52.2223 26.12C52.3543 25.4 52.5343 24.572 52.7623 23.636C52.9903 22.688 53.2603 21.656 53.5723 20.54C53.8963 19.424 54.2443 18.278 54.6163 17.102C54.9883 15.914 55.3783 14.714 55.7863 13.502C56.1943 12.29 56.6083 11.126 57.0283 10.01C57.4603 8.882 57.8803 7.826 58.2883 6.842C58.7083 5.846 59.1103 4.97 59.4943 4.214C59.8783 3.458 60.2383 2.846 60.5743 2.378C60.9103 1.91 61.2043 1.634 61.4563 1.55ZM93.8324 30.332C93.7604 30.62 93.6524 30.878 93.5084 31.106C93.3644 31.334 93.1304 31.448 92.8064 31.448C92.6504 31.448 92.4944 31.424 92.3384 31.376C91.5224 31.136 90.6644 30.836 89.7644 30.476C88.8764 30.116 87.9584 29.738 87.0104 29.342C86.0744 28.958 85.1204 28.574 84.1484 28.19C83.1884 27.806 82.2344 27.464 81.2864 27.164C80.3504 26.852 79.4264 26.6 78.5144 26.408C77.6024 26.216 76.7324 26.12 75.9044 26.12C75.1604 26.12 74.3744 26.198 73.5464 26.354C72.7184 26.498 71.8724 26.702 71.0084 26.966C70.1444 27.218 69.2744 27.518 68.3984 27.866C67.5344 28.214 66.6944 28.592 65.8784 29C65.0744 29.408 64.3064 29.834 63.5744 30.278C62.8424 30.722 62.1824 31.166 61.5944 31.61C61.3904 31.766 61.2164 31.874 61.0724 31.934C60.9164 32.006 60.7664 32.042 60.6224 32.042C60.5504 32.042 60.3704 31.97 60.0824 31.826C59.7944 31.682 59.4944 31.484 59.1824 31.232C58.8704 30.992 58.5884 30.716 58.3364 30.404C58.0844 30.092 57.9584 29.768 57.9584 29.432C57.9584 29.264 57.9944 29.09 58.0664 28.91C58.1384 28.73 58.2584 28.556 58.4264 28.388C60.2264 26.588 62.1044 24.872 64.0604 23.24C66.0284 21.608 68.0204 20.006 70.0364 18.434C72.0524 16.85 74.0744 15.278 76.1024 13.718C78.1304 12.158 80.1044 10.556 82.0244 8.912C81.0404 9.02 80.0924 9.206 79.1804 9.47C78.2684 9.722 77.3744 9.974 76.4984 10.226C75.6344 10.478 74.7824 10.7 73.9424 10.892C73.1144 11.072 72.2864 11.15 71.4584 11.126C71.0984 11.114 70.6904 10.928 70.2344 10.568C69.7784 10.208 69.3284 9.77 68.8844 9.254C68.4524 8.726 68.0504 8.174 67.6784 7.598C67.3184 7.01 67.0604 6.488 66.9044 6.032C68.3924 5.936 69.8444 5.834 71.2604 5.726C71.8604 5.678 72.4844 5.63 73.1324 5.582C73.7804 5.534 74.4164 5.486 75.0404 5.438C75.6644 5.378 76.2644 5.324 76.8404 5.276C77.4284 5.228 77.9564 5.174 78.4244 5.114C78.7724 5.078 79.2164 5.018 79.7564 4.934C80.2964 4.85 80.8904 4.76 81.5384 4.664C82.1864 4.568 82.8644 4.46 83.5724 4.34C84.2924 4.22 84.9944 4.106 85.6784 3.998C87.2984 3.734 89.0204 3.446 90.8444 3.134C90.8804 3.398 90.9284 3.698 90.9884 4.034C91.0484 4.37 91.0964 4.724 91.1324 5.096C91.1804 5.456 91.2104 5.828 91.2224 6.212C91.2464 6.584 91.2284 6.944 91.1684 7.292C91.1204 7.628 91.0244 7.94 90.8804 8.228C90.7484 8.504 90.5564 8.732 90.3044 8.912C89.4164 9.524 88.5344 10.13 87.6584 10.73C86.7944 11.318 85.8944 11.858 84.9584 12.35C83.9384 12.914 82.8524 13.586 81.7004 14.366C80.5484 15.134 79.4144 15.926 78.2984 16.742C77.1944 17.558 76.1564 18.362 75.1844 19.154C74.2244 19.946 73.4144 20.642 72.7544 21.242C73.8944 21.182 74.9384 21.116 75.8864 21.044C76.8344 20.96 77.7644 20.918 78.6764 20.918C79.5404 20.918 80.4404 21.074 81.3764 21.386C82.3124 21.686 83.2484 22.088 84.1844 22.592C85.1324 23.096 86.0684 23.678 86.9924 24.338C87.9164 24.986 88.7924 25.658 89.6204 26.354C90.4604 27.05 91.2344 27.746 91.9424 28.442C92.6624 29.126 93.2924 29.756 93.8324 30.332Z" fill="white"/>
</svg>
