<svg width="38" height="38" viewBox="0 0 38 38" fill="none" xmlns="http://www.w3.org/2000/svg">
<path d="M19.1597 37.8932C14.2067 37.9554 9.43152 36.0319 5.8848 32.5458C2.33808 29.0596 0.310317 24.2965 0.247585 19.3041C0.184853 14.3117 2.09229 9.49914 5.55029 5.92499C9.0083 2.35085 13.7336 0.307956 18.6867 0.245717C23.6398 0.183479 28.4149 2.107 31.9616 5.59312C35.5083 9.07924 37.5361 13.8424 37.5988 18.8348C37.6616 23.8271 35.7541 28.6397 32.2961 32.2139C28.8381 35.788 24.1128 37.8309 19.1597 37.8932ZM27.1086 20.1433C27.4181 20.1394 27.7135 20.0117 27.9296 19.7883C28.1457 19.5649 28.2649 19.2641 28.261 18.9521C28.2571 18.6401 28.1304 18.3424 27.9087 18.1245C27.687 17.9066 27.3886 17.7864 27.079 17.7903L13.5555 17.9602L18.5041 12.8478C18.7205 12.6241 18.8399 12.3229 18.836 12.0105C18.8321 11.6981 18.7052 11.4 18.4832 11.1819C18.2613 10.9637 17.9624 10.8433 17.6525 10.8472C17.3425 10.8511 17.0468 10.979 16.8304 11.2026L9.91576 18.3495C9.80843 18.4602 9.72383 18.5911 9.66678 18.7348C9.60973 18.8784 9.58137 19.0321 9.58331 19.1868C9.58526 19.3415 9.61747 19.4944 9.67811 19.6366C9.73875 19.7788 9.82662 19.9075 9.93669 20.0154L17.0288 26.9863C17.2507 27.2045 17.5495 27.3249 17.8595 27.321C18.1694 27.3171 18.4651 27.1892 18.6815 26.9656C18.8979 26.7419 19.0173 26.4407 19.0134 26.1283C19.0095 25.8159 18.8826 25.5178 18.6606 25.2997L13.5851 20.3132L27.1086 20.1433Z" fill="#D9D9D9"/>
</svg>
