<svg width="38" height="38" viewBox="0 0 38 38" fill="none" xmlns="http://www.w3.org/2000/svg">
<path d="M19.1711 0.245851C24.1241 0.311054 28.8482 2.35678 32.3041 5.93299C35.7599 9.5092 37.6645 14.323 37.5988 19.3153C37.533 24.3076 35.5024 29.0695 31.9536 32.5535C28.4048 36.0375 23.6285 37.9582 18.6755 37.893C13.7224 37.8278 8.99836 35.7821 5.5425 32.2059C2.08664 28.6297 0.182078 23.8159 0.247798 18.8236C0.313518 13.8313 2.34414 9.06931 5.89294 5.58531C9.44174 2.10131 14.218 0.180648 19.1711 0.245851ZM10.7682 17.7854C10.4587 17.7813 10.1602 17.9014 9.93836 18.1191C9.71656 18.3369 9.58965 18.6345 9.58554 18.9465C9.58143 19.2585 9.70047 19.5594 9.91646 19.7829C10.1324 20.0064 10.4277 20.1343 10.7373 20.1383L24.2607 20.3164L19.1821 25.2998C18.9601 25.5178 18.833 25.8158 18.8289 26.1282C18.8248 26.4407 18.944 26.7419 19.1602 26.9657C19.3765 27.1895 19.6721 27.3175 19.9821 27.3216C20.292 27.3257 20.5909 27.2055 20.813 26.9875L27.9092 20.0208C28.0194 19.913 28.1073 19.7843 28.168 19.6421C28.2288 19.5 28.2611 19.3471 28.2631 19.1924C28.2651 19.0376 28.2369 18.884 28.1799 18.7403C28.1229 18.5966 28.0384 18.4656 27.9312 18.3549L21.0208 11.2039C20.8045 10.9801 20.5089 10.8521 20.1989 10.848C19.889 10.8439 19.5901 10.9641 19.368 11.1821C19.1459 11.4002 19.0188 11.6982 19.0147 12.0106C19.0106 12.323 19.1298 12.6242 19.3461 12.848L24.2916 17.9634L10.7682 17.7854Z" fill="#D9D9D9"/>
</svg>
