<svg width="25" height="25" viewBox="0 0 25 25" fill="none" xmlns="http://www.w3.org/2000/svg">
<g clip-path="url(#clip0_242_29863)">
<path d="M25 12.5C25 15.8152 23.683 18.9946 21.3388 21.3388C18.9946 23.683 15.8152 25 12.5 25C9.18479 25 6.00537 23.683 3.66117 21.3388C1.31696 18.9946 0 15.8152 0 12.5C0 9.18479 1.31696 6.00537 3.66117 3.66117C6.00537 1.31696 9.18479 0 12.5 0C15.8152 0 18.9946 1.31696 21.3388 3.66117C23.683 6.00537 25 9.18479 25 12.5ZM7.03125 11.7188C6.82405 11.7188 6.62534 11.8011 6.47882 11.9476C6.33231 12.0941 6.25 12.2928 6.25 12.5C6.25 12.7072 6.33231 12.9059 6.47882 13.0524C6.62534 13.1989 6.82405 13.2812 7.03125 13.2812H17.9688C18.176 13.2812 18.3747 13.1989 18.5212 13.0524C18.6677 12.9059 18.75 12.7072 18.75 12.5C18.75 12.2928 18.6677 12.0941 18.5212 11.9476C18.3747 11.8011 18.176 11.7188 17.9688 11.7188H7.03125Z" fill="#F24E1E"/>
</g>
<defs>
<clipPath id="clip0_242_29863">
<rect width="25" height="25" fill="white"/>
</clipPath>
</defs>
</svg>
